<svg width="24" height="24" viewBox="0 0 24 24" fill="none" xmlns="http://www.w3.org/2000/svg">
<path d="M15.5103 3.28491C15.7499 2.64011 15.8995 2.08435 15.8995 1.5567C15.8995 1.4686 15.8697 1.4105 15.8697 1.3224C15.8697 1.2343 15.84 1.11715 15.8094 1C14.3114 1.3224 13.2638 1.96626 12.6044 2.90347C11.945 3.81162 11.6163 4.89503 11.5856 6.15464C12.1252 6.0956 12.5738 6.00844 12.9035 5.92034C13.353 5.77413 13.8322 5.48079 14.3114 5.04124C14.851 4.51359 15.2698 3.86973 15.5094 3.28397L15.5103 3.28491ZM13.8024 6.21368C12.9035 6.50703 12.2747 6.62418 11.945 6.62418C11.6757 6.62418 11.1064 6.50703 10.1777 6.27273C9.27873 6.00937 8.5302 5.86223 7.87177 5.86223C6.40444 5.86223 5.17575 6.47704 4.18762 7.70759C3.22921 8.93814 2.75 10.4902 2.75 12.4227C2.75 14.5023 3.37872 16.6111 4.63712 18.7779C5.92523 20.9456 7.24305 22 8.53116 22C8.95095 22 9.48958 21.8538 10.2381 21.5895C10.9272 21.3261 11.5262 21.179 12.0648 21.179C12.6035 21.179 13.2629 21.2962 14.0114 21.5595C14.7906 21.8229 15.3896 21.94 15.8381 21.94C16.946 21.94 18.0549 21.12 19.1629 19.5089C19.5223 18.9813 19.852 18.4255 20.1213 17.8978C20.3609 17.4002 20.5708 16.8725 20.75 16.3749C19.9411 16.1406 19.252 15.5839 18.6837 14.7638C18.1144 13.9147 17.8153 12.9775 17.8153 11.9522C17.8153 10.9859 18.0846 10.1359 18.6242 9.34583C18.9539 8.93533 19.4628 8.40862 20.1222 7.85192C19.9123 7.58857 19.6727 7.32427 19.4628 7.11996C19.2232 6.91471 19.0134 6.73946 18.8035 6.59232C17.9648 6.06467 17.0361 5.77226 16.0183 5.77226C15.4193 5.77226 14.6708 5.94845 13.8015 6.21181L13.8024 6.21368Z" fill="black"/>
</svg>
