<svg width="22" height="22" viewBox="0 0 22 22" fill="none" xmlns="http://www.w3.org/2000/svg">
<path d="M3.90404 15.2117C2.87903 13.4838 2.52006 11.4411 2.89454 9.46724C3.26902 7.49339 4.35119 5.72414 5.93784 4.4917C7.52448 3.25927 9.50646 2.64844 11.5116 2.77392C13.5167 2.8994 15.4071 3.75255 16.8277 5.17317C18.2484 6.59378 19.1015 8.48415 19.227 10.4893C19.3525 12.4944 18.7417 14.4764 17.5093 16.0631C16.2768 17.6497 14.5076 18.7319 12.5337 19.1064C10.5599 19.4809 8.5172 19.1219 6.78928 18.0969L6.7893 18.0968L3.93991 18.9109C3.82202 18.9446 3.69727 18.9462 3.57858 18.9154C3.45989 18.8847 3.35159 18.8227 3.26489 18.736C3.1782 18.6493 3.11626 18.541 3.08551 18.4223C3.05476 18.3037 3.0563 18.1789 3.08998 18.061L3.9041 15.2116L3.90404 15.2117Z" stroke="#828282" stroke-width="1.5" stroke-linecap="round" stroke-linejoin="round"/>
<path d="M6.875 12.0352C7.44454 12.0352 7.90625 11.5734 7.90625 11.0039C7.90625 10.4344 7.44454 9.97266 6.875 9.97266C6.30546 9.97266 5.84375 10.4344 5.84375 11.0039C5.84375 11.5734 6.30546 12.0352 6.875 12.0352Z" fill="#828282"/>
<path d="M11 12.0352C11.5695 12.0352 12.0312 11.5734 12.0312 11.0039C12.0312 10.4344 11.5695 9.97266 11 9.97266C10.4305 9.97266 9.96875 10.4344 9.96875 11.0039C9.96875 11.5734 10.4305 12.0352 11 12.0352Z" fill="#828282"/>
<path d="M15.125 12.0352C15.6945 12.0352 16.1562 11.5734 16.1562 11.0039C16.1562 10.4344 15.6945 9.97266 15.125 9.97266C14.5555 9.97266 14.0938 10.4344 14.0938 11.0039C14.0938 11.5734 14.5555 12.0352 15.125 12.0352Z" fill="#828282"/>
</svg>
