<svg width="1280" height="521" viewBox="0 0 1280 521" fill="none" xmlns="http://www.w3.org/2000/svg">
<g opacity="0.08">
<path d="M251.617 519.071L217.809 480.19V358.303L251.617 319.422V519.071Z" stroke="#919DFF" stroke-miterlimit="10"/>
<path d="M227.047 363.344H219.973V366.743H227.047V363.344Z" stroke="#919DFF" stroke-miterlimit="10"/>
<path d="M227.047 372.68H219.973V376.079H227.047V372.68Z" stroke="#919DFF" stroke-miterlimit="10"/>
<path d="M227.047 382.027H219.973V385.427H227.047V382.027Z" stroke="#919DFF" stroke-miterlimit="10"/>
<path d="M227.047 391.359H219.973V394.759H227.047V391.359Z" stroke="#919DFF" stroke-miterlimit="10"/>
<path d="M227.047 400.703H219.973V404.102H227.047V400.703Z" stroke="#919DFF" stroke-miterlimit="10"/>
<path d="M227.047 410.035H219.973V413.435H227.047V410.035Z" stroke="#919DFF" stroke-miterlimit="10"/>
<path d="M227.047 419.383H219.973V422.782H227.047V419.383Z" stroke="#919DFF" stroke-miterlimit="10"/>
<path d="M227.047 428.719H219.973V432.118H227.047V428.719Z" stroke="#919DFF" stroke-miterlimit="10"/>
<path d="M227.047 438.055H219.973V441.454H227.047V438.055Z" stroke="#919DFF" stroke-miterlimit="10"/>
<path d="M227.047 447.398H219.973V450.798H227.047V447.398Z" stroke="#919DFF" stroke-miterlimit="10"/>
<path d="M227.047 456.734H219.973V460.134H227.047V456.734Z" stroke="#919DFF" stroke-miterlimit="10"/>
<path d="M227.047 466.074H219.973V469.474H227.047V466.074Z" stroke="#919DFF" stroke-miterlimit="10"/>
<path d="M227.047 475.414H219.973V478.813H227.047V475.414Z" stroke="#919DFF" stroke-miterlimit="10"/>
<path d="M272.367 519.071L306.175 480.19V358.303L272.367 319.422V519.071Z" stroke="#919DFF" stroke-miterlimit="10"/>
<path d="M304.008 363.344H296.933V366.743H304.008V363.344Z" stroke="#919DFF" stroke-miterlimit="10"/>
<path d="M304.008 372.68H296.933V376.079H304.008V372.68Z" stroke="#919DFF" stroke-miterlimit="10"/>
<path d="M304.008 382.027H296.933V385.427H304.008V382.027Z" stroke="#919DFF" stroke-miterlimit="10"/>
<path d="M304.008 391.359H296.933V394.759H304.008V391.359Z" stroke="#919DFF" stroke-miterlimit="10"/>
<path d="M304.008 400.703H296.933V404.102H304.008V400.703Z" stroke="#919DFF" stroke-miterlimit="10"/>
<path d="M304.008 410.035H296.933V413.435H304.008V410.035Z" stroke="#919DFF" stroke-miterlimit="10"/>
<path d="M304.008 419.383H296.933V422.782H304.008V419.383Z" stroke="#919DFF" stroke-miterlimit="10"/>
<path d="M304.008 428.719H296.933V432.118H304.008V428.719Z" stroke="#919DFF" stroke-miterlimit="10"/>
<path d="M304.008 438.055H296.933V441.454H304.008V438.055Z" stroke="#919DFF" stroke-miterlimit="10"/>
<path d="M304.008 447.398H296.933V450.798H304.008V447.398Z" stroke="#919DFF" stroke-miterlimit="10"/>
<path d="M304.008 456.734H296.933V460.134H304.008V456.734Z" stroke="#919DFF" stroke-miterlimit="10"/>
<path d="M304.008 466.074H296.933V469.474H304.008V466.074Z" stroke="#919DFF" stroke-miterlimit="10"/>
<path d="M304.008 475.414H296.933V478.813H304.008V475.414Z" stroke="#919DFF" stroke-miterlimit="10"/>
<path d="M261.989 288.371L245.027 301.768H278.95L261.989 288.371Z" stroke="#919DFF" stroke-miterlimit="10"/>
<path d="M278.95 301.77H245.027V312.166H278.95V301.77Z" stroke="#919DFF" stroke-miterlimit="10"/>
<path d="M278.952 312.168H245.029L232.23 322.166H291.751L278.952 312.168Z" stroke="#919DFF" stroke-miterlimit="10"/>
<path d="M295.079 322.16H228.898V502.309H295.079V322.16Z" stroke="#919DFF" stroke-miterlimit="10"/>
<path d="M291.751 327.566H232.23V340.764H291.751V327.566Z" stroke="#919DFF" stroke-miterlimit="10"/>
<path d="M291.751 343.762H232.23V361.359H291.751V343.762Z" stroke="#919DFF" stroke-miterlimit="10"/>
<path d="M291.751 363.891H232.23V381.488H291.751V363.891Z" stroke="#919DFF" stroke-miterlimit="10"/>
<path d="M291.751 384.016H232.23V401.613H291.751V384.016Z" stroke="#919DFF" stroke-miterlimit="10"/>
<path d="M291.751 404.152H232.23V421.749H291.751V404.152Z" stroke="#919DFF" stroke-miterlimit="10"/>
<path d="M291.751 424.281H232.23V441.878H291.751V424.281Z" stroke="#919DFF" stroke-miterlimit="10"/>
<path d="M291.751 444.41H232.23V462.007H291.751V444.41Z" stroke="#919DFF" stroke-miterlimit="10"/>
<path d="M291.751 464.543H232.23V482.14H291.751V464.543Z" stroke="#919DFF" stroke-miterlimit="10"/>
<path d="M291.751 484.676H232.23V502.273H291.751V484.676Z" stroke="#919DFF" stroke-miterlimit="10"/>
<path d="M275.727 477.919L261.991 502.315L248.254 477.919V363.347L261.991 340.762L275.727 363.347V477.919Z" stroke="#919DFF" stroke-miterlimit="10"/>
<path d="M271.241 475.414H252.738V478.813H271.241V475.414Z" stroke="#919DFF" stroke-miterlimit="10"/>
<path d="M271.241 466.078H252.738V469.477H271.241V466.078Z" stroke="#919DFF" stroke-miterlimit="10"/>
<path d="M271.241 456.738H252.738V460.138H271.241V456.738Z" stroke="#919DFF" stroke-miterlimit="10"/>
<path d="M271.241 447.398H252.738V450.798H271.241V447.398Z" stroke="#919DFF" stroke-miterlimit="10"/>
<path d="M271.241 438.062H252.738V441.462H271.241V438.062Z" stroke="#919DFF" stroke-miterlimit="10"/>
<path d="M271.241 428.719H252.738V432.118H271.241V428.719Z" stroke="#919DFF" stroke-miterlimit="10"/>
<path d="M271.241 419.387H252.738V422.786H271.241V419.387Z" stroke="#919DFF" stroke-miterlimit="10"/>
<path d="M271.241 410.043H252.738V413.442H271.241V410.043Z" stroke="#919DFF" stroke-miterlimit="10"/>
<path d="M271.241 400.707H252.738V404.106H271.241V400.707Z" stroke="#919DFF" stroke-miterlimit="10"/>
<path d="M271.241 391.367H252.738V394.767H271.241V391.367Z" stroke="#919DFF" stroke-miterlimit="10"/>
<path d="M271.241 382.031H252.738V385.431H271.241V382.031Z" stroke="#919DFF" stroke-miterlimit="10"/>
<path d="M271.241 372.688H252.738V376.087H271.241V372.688Z" stroke="#919DFF" stroke-miterlimit="10"/>
<path d="M271.241 363.352H252.738V366.751H271.241V363.352Z" stroke="#919DFF" stroke-miterlimit="10"/>
<path d="M295.079 502.312H228.898V544.701H295.079V502.312Z" stroke="#919DFF" stroke-miterlimit="10"/>
<path d="M244.624 509.309H234.191V519.909H244.624V509.309Z" stroke="#919DFF" stroke-miterlimit="10"/>
<path d="M289.788 509.309H279.355V519.909H289.788V509.309Z" stroke="#919DFF" stroke-miterlimit="10"/>
<path d="M273.76 509.309H249.41V519.909H273.76V509.309Z" stroke="#919DFF" stroke-miterlimit="10"/>
<path d="M330.902 450.953H301.797V544.701H330.902V450.953Z" stroke="#919DFF" stroke-miterlimit="10"/>
<path d="M325.63 478.578H321.242V482.069H325.63V478.578Z" stroke="#919DFF" stroke-miterlimit="10"/>
<path d="M318.54 478.578H314.152V482.069H318.54V478.578Z" stroke="#919DFF" stroke-miterlimit="10"/>
<path d="M311.458 478.578H307.07V482.069H311.458V478.578Z" stroke="#919DFF" stroke-miterlimit="10"/>
<path d="M325.63 471.082H321.242V474.573H325.63V471.082Z" stroke="#919DFF" stroke-miterlimit="10"/>
<path d="M318.54 471.082H314.152V474.573H318.54V471.082Z" stroke="#919DFF" stroke-miterlimit="10"/>
<path d="M311.458 471.082H307.07V474.573H311.458V471.082Z" stroke="#919DFF" stroke-miterlimit="10"/>
<path d="M325.63 463.594H321.242V467.084H325.63V463.594Z" stroke="#919DFF" stroke-miterlimit="10"/>
<path d="M318.54 463.594H314.152V467.084H318.54V463.594Z" stroke="#919DFF" stroke-miterlimit="10"/>
<path d="M311.458 463.594H307.07V467.084H311.458V463.594Z" stroke="#919DFF" stroke-miterlimit="10"/>
<path d="M325.63 456.102H321.242V459.592H325.63V456.102Z" stroke="#919DFF" stroke-miterlimit="10"/>
<path d="M318.54 456.102H314.152V459.592H318.54V456.102Z" stroke="#919DFF" stroke-miterlimit="10"/>
<path d="M311.458 456.102H307.07V459.592H311.458V456.102Z" stroke="#919DFF" stroke-miterlimit="10"/>
<path d="M325.63 501.055H321.242V504.545H325.63V501.055Z" stroke="#919DFF" stroke-miterlimit="10"/>
<path d="M318.54 501.055H314.152V504.545H318.54V501.055Z" stroke="#919DFF" stroke-miterlimit="10"/>
<path d="M311.458 501.055H307.07V504.545H311.458V501.055Z" stroke="#919DFF" stroke-miterlimit="10"/>
<path d="M325.63 493.57H321.242V497.061H325.63V493.57Z" stroke="#919DFF" stroke-miterlimit="10"/>
<path d="M318.54 493.57H314.152V497.061H318.54V493.57Z" stroke="#919DFF" stroke-miterlimit="10"/>
<path d="M311.458 493.57H307.07V497.061H311.458V493.57Z" stroke="#919DFF" stroke-miterlimit="10"/>
<path d="M325.63 486.074H321.242V489.565H325.63V486.074Z" stroke="#919DFF" stroke-miterlimit="10"/>
<path d="M318.54 486.074H314.152V489.565H318.54V486.074Z" stroke="#919DFF" stroke-miterlimit="10"/>
<path d="M311.458 486.074H307.07V489.565H311.458V486.074Z" stroke="#919DFF" stroke-miterlimit="10"/>
<path d="M1053.16 369.551H955.438V544.701H1053.16V369.551Z" stroke="#919DFF" stroke-miterlimit="10"/>
<path d="M1005.96 0.5H1002.63V48.1337H1005.96V0.5Z" stroke="#919DFF" stroke-miterlimit="10"/>
<path d="M1010.14 44.9297H998.469V72.9501H1010.14V44.9297Z" stroke="#919DFF" stroke-miterlimit="10"/>
<path d="M1021.56 88.3615C1023.03 79.185 1016.48 70.6003 1006.93 69.1871C997.375 67.7739 988.439 74.0674 986.968 83.2439C985.497 92.4204 992.048 101.005 1001.6 102.418C1011.15 103.831 1020.09 97.5381 1021.56 88.3615Z" stroke="#919DFF" stroke-miterlimit="10"/>
<path d="M1026.94 106.091C1028.97 94.089 1020.49 82.7802 1007.99 80.8323C995.501 78.8844 983.73 87.0351 981.702 99.0374C979.675 111.04 988.159 122.349 1000.65 124.297C1013.14 126.244 1024.92 118.094 1026.94 106.091Z" stroke="#919DFF" stroke-miterlimit="10"/>
<path d="M1004.3 143.162C1019.18 143.162 1031.23 131.577 1031.23 117.286C1031.23 102.995 1019.18 91.4102 1004.3 91.4102C989.426 91.4102 977.367 102.995 977.367 117.286C977.367 131.577 989.426 143.162 1004.3 143.162Z" stroke="#919DFF" stroke-miterlimit="10"/>
<path d="M1035.34 184.828C1035.34 200.92 1021.76 213.965 1005.01 213.965H1003.59C986.841 213.965 973.262 200.92 973.262 184.828V135.825C973.262 119.733 986.841 106.688 1003.59 106.688H1005.01C1021.76 106.688 1035.34 119.733 1035.34 135.825V184.828Z" stroke="#919DFF" stroke-miterlimit="10"/>
<path d="M994.544 126.59H991.629V207.848H994.544V126.59Z" stroke="#919DFF" stroke-miterlimit="10"/>
<path d="M1005.76 126.59H1002.84V207.848H1005.76V126.59Z" stroke="#919DFF" stroke-miterlimit="10"/>
<path d="M1016.97 126.59H1014.06V207.848H1016.97V126.59Z" stroke="#919DFF" stroke-miterlimit="10"/>
<path d="M1045.25 175.629H963.359V369.555H1045.25V175.629Z" stroke="#919DFF" stroke-miterlimit="10"/>
<path d="M1032.78 200.881V175.629H975.83V200.881H963.359V369.555H1045.25V200.881H1032.78Z" stroke="#919DFF" stroke-miterlimit="10"/>
<path d="M980.884 385.094H947.523V543.084H980.884V385.094Z" stroke="#919DFF" stroke-miterlimit="10"/>
<path d="M980.882 409.695H936.738V544.702H980.882V409.695Z" stroke="#919DFF" stroke-miterlimit="10"/>
<path d="M1061.08 385.094H1027.72V543.084H1061.08V385.094Z" stroke="#919DFF" stroke-miterlimit="10"/>
<path d="M1071.87 409.695H1027.72V544.702H1071.87V409.695Z" stroke="#919DFF" stroke-miterlimit="10"/>
<path d="M1051.65 457.125H1027.72V518.986H980.881V457.125H956.956H924.941V544.704H956.956H1051.65H1083.66V457.125H1051.65Z" stroke="#919DFF" stroke-miterlimit="10"/>
<path d="M946.712 470.477H937.551V472.419H946.712V470.477Z" stroke="#919DFF" stroke-miterlimit="10"/>
<path d="M946.712 479.223H937.551V481.165H946.712V479.223Z" stroke="#919DFF" stroke-miterlimit="10"/>
<path d="M946.712 487.961H937.551V489.903H946.712V487.961Z" stroke="#919DFF" stroke-miterlimit="10"/>
<path d="M946.712 496.703H937.551V498.646H946.712V496.703Z" stroke="#919DFF" stroke-miterlimit="10"/>
<path d="M946.712 505.441H937.551V507.384H946.712V505.441Z" stroke="#919DFF" stroke-miterlimit="10"/>
<path d="M946.712 514.188H937.551V516.13H946.712V514.188Z" stroke="#919DFF" stroke-miterlimit="10"/>
<path d="M967.161 470.477H958V472.419H967.161V470.477Z" stroke="#919DFF" stroke-miterlimit="10"/>
<path d="M967.161 479.223H958V481.165H967.161V479.223Z" stroke="#919DFF" stroke-miterlimit="10"/>
<path d="M967.161 487.961H958V489.903H967.161V487.961Z" stroke="#919DFF" stroke-miterlimit="10"/>
<path d="M967.161 496.703H958V498.646H967.161V496.703Z" stroke="#919DFF" stroke-miterlimit="10"/>
<path d="M967.161 505.441H958V507.384H967.161V505.441Z" stroke="#919DFF" stroke-miterlimit="10"/>
<path d="M967.161 514.188H958V516.13H967.161V514.188Z" stroke="#919DFF" stroke-miterlimit="10"/>
<path d="M1050.6 470.477H1041.44V472.419H1050.6V470.477Z" stroke="#919DFF" stroke-miterlimit="10"/>
<path d="M1050.6 479.223H1041.44V481.165H1050.6V479.223Z" stroke="#919DFF" stroke-miterlimit="10"/>
<path d="M1050.6 487.961H1041.44V489.903H1050.6V487.961Z" stroke="#919DFF" stroke-miterlimit="10"/>
<path d="M1050.6 496.703H1041.44V498.646H1050.6V496.703Z" stroke="#919DFF" stroke-miterlimit="10"/>
<path d="M1050.6 505.441H1041.44V507.384H1050.6V505.441Z" stroke="#919DFF" stroke-miterlimit="10"/>
<path d="M1050.6 514.188H1041.44V516.13H1050.6V514.188Z" stroke="#919DFF" stroke-miterlimit="10"/>
<path d="M1071.06 470.477H1061.89V472.419H1071.06V470.477Z" stroke="#919DFF" stroke-miterlimit="10"/>
<path d="M1071.06 479.223H1061.89V481.165H1071.06V479.223Z" stroke="#919DFF" stroke-miterlimit="10"/>
<path d="M1071.06 487.961H1061.89V489.903H1071.06V487.961Z" stroke="#919DFF" stroke-miterlimit="10"/>
<path d="M1071.06 496.703H1061.89V498.646H1071.06V496.703Z" stroke="#919DFF" stroke-miterlimit="10"/>
<path d="M1071.06 505.441H1061.89V507.384H1071.06V505.441Z" stroke="#919DFF" stroke-miterlimit="10"/>
<path d="M1071.06 514.188H1061.89V516.13H1071.06V514.188Z" stroke="#919DFF" stroke-miterlimit="10"/>
<path d="M950.186 423.617H948.164V428.959H950.186V423.617Z" stroke="#919DFF" stroke-miterlimit="10"/>
<path d="M959.01 423.617H956.988V428.959H959.01V423.617Z" stroke="#919DFF" stroke-miterlimit="10"/>
<path d="M967.838 423.617H965.816V428.959H967.838V423.617Z" stroke="#919DFF" stroke-miterlimit="10"/>
<path d="M950.186 439.152H948.164V444.494H950.186V439.152Z" stroke="#919DFF" stroke-miterlimit="10"/>
<path d="M959.01 439.152H956.988V444.494H959.01V439.152Z" stroke="#919DFF" stroke-miterlimit="10"/>
<path d="M967.838 439.152H965.816V444.494H967.838V439.152Z" stroke="#919DFF" stroke-miterlimit="10"/>
<path d="M1041.17 423.617H1039.14V428.959H1041.17V423.617Z" stroke="#919DFF" stroke-miterlimit="10"/>
<path d="M1049.99 423.617H1047.97V428.959H1049.99V423.617Z" stroke="#919DFF" stroke-miterlimit="10"/>
<path d="M1058.81 423.617H1056.79V428.959H1058.81V423.617Z" stroke="#919DFF" stroke-miterlimit="10"/>
<path d="M1041.17 439.152H1039.14V444.494H1041.17V439.152Z" stroke="#919DFF" stroke-miterlimit="10"/>
<path d="M1049.99 439.152H1047.97V444.494H1049.99V439.152Z" stroke="#919DFF" stroke-miterlimit="10"/>
<path d="M1058.81 439.152H1056.79V444.494H1058.81V439.152Z" stroke="#919DFF" stroke-miterlimit="10"/>
<path d="M982.287 209.215H972.457V210.915H982.287V209.215Z" stroke="#919DFF" stroke-miterlimit="10"/>
<path d="M982.287 217.836H972.457V219.536H982.287V217.836Z" stroke="#919DFF" stroke-miterlimit="10"/>
<path d="M982.287 226.457H972.457V228.157H982.287V226.457Z" stroke="#919DFF" stroke-miterlimit="10"/>
<path d="M982.287 235.07H972.457V236.77H982.287V235.07Z" stroke="#919DFF" stroke-miterlimit="10"/>
<path d="M982.287 243.691H972.457V245.391H982.287V243.691Z" stroke="#919DFF" stroke-miterlimit="10"/>
<path d="M982.287 252.316H972.457V254.016H982.287V252.316Z" stroke="#919DFF" stroke-miterlimit="10"/>
<path d="M982.287 260.934H972.457V262.633H982.287V260.934Z" stroke="#919DFF" stroke-miterlimit="10"/>
<path d="M982.287 269.555H972.457V271.254H982.287V269.555Z" stroke="#919DFF" stroke-miterlimit="10"/>
<path d="M982.287 278.172H972.457V279.872H982.287V278.172Z" stroke="#919DFF" stroke-miterlimit="10"/>
<path d="M982.287 286.793H972.457V288.493H982.287V286.793Z" stroke="#919DFF" stroke-miterlimit="10"/>
<path d="M982.287 295.41H972.457V297.11H982.287V295.41Z" stroke="#919DFF" stroke-miterlimit="10"/>
<path d="M982.287 304.031H972.457V305.731H982.287V304.031Z" stroke="#919DFF" stroke-miterlimit="10"/>
<path d="M982.287 312.656H972.457V314.356H982.287V312.656Z" stroke="#919DFF" stroke-miterlimit="10"/>
<path d="M982.287 321.273H972.457V322.973H982.287V321.273Z" stroke="#919DFF" stroke-miterlimit="10"/>
<path d="M982.287 329.891H972.457V331.59H982.287V329.891Z" stroke="#919DFF" stroke-miterlimit="10"/>
<path d="M982.287 338.512H972.457V340.211H982.287V338.512Z" stroke="#919DFF" stroke-miterlimit="10"/>
<path d="M982.287 347.129H972.457V348.829H982.287V347.129Z" stroke="#919DFF" stroke-miterlimit="10"/>
<path d="M982.287 355.75H972.457V357.45H982.287V355.75Z" stroke="#919DFF" stroke-miterlimit="10"/>
<path d="M1034.53 209.215H1024.7V210.915H1034.53V209.215Z" stroke="#919DFF" stroke-miterlimit="10"/>
<path d="M1034.53 217.836H1024.7V219.536H1034.53V217.836Z" stroke="#919DFF" stroke-miterlimit="10"/>
<path d="M1034.53 226.457H1024.7V228.157H1034.53V226.457Z" stroke="#919DFF" stroke-miterlimit="10"/>
<path d="M1034.53 235.07H1024.7V236.77H1034.53V235.07Z" stroke="#919DFF" stroke-miterlimit="10"/>
<path d="M1034.53 243.691H1024.7V245.391H1034.53V243.691Z" stroke="#919DFF" stroke-miterlimit="10"/>
<path d="M1034.53 252.316H1024.7V254.016H1034.53V252.316Z" stroke="#919DFF" stroke-miterlimit="10"/>
<path d="M1034.53 260.934H1024.7V262.633H1034.53V260.934Z" stroke="#919DFF" stroke-miterlimit="10"/>
<path d="M1034.53 269.555H1024.7V271.254H1034.53V269.555Z" stroke="#919DFF" stroke-miterlimit="10"/>
<path d="M1034.53 278.172H1024.7V279.872H1034.53V278.172Z" stroke="#919DFF" stroke-miterlimit="10"/>
<path d="M1034.53 286.793H1024.7V288.493H1034.53V286.793Z" stroke="#919DFF" stroke-miterlimit="10"/>
<path d="M1034.53 295.41H1024.7V297.11H1034.53V295.41Z" stroke="#919DFF" stroke-miterlimit="10"/>
<path d="M1034.53 304.031H1024.7V305.731H1034.53V304.031Z" stroke="#919DFF" stroke-miterlimit="10"/>
<path d="M1034.53 312.656H1024.7V314.356H1034.53V312.656Z" stroke="#919DFF" stroke-miterlimit="10"/>
<path d="M1034.53 321.273H1024.7V322.973H1034.53V321.273Z" stroke="#919DFF" stroke-miterlimit="10"/>
<path d="M1034.53 329.891H1024.7V331.59H1034.53V329.891Z" stroke="#919DFF" stroke-miterlimit="10"/>
<path d="M1034.53 338.512H1024.7V340.211H1034.53V338.512Z" stroke="#919DFF" stroke-miterlimit="10"/>
<path d="M1034.53 347.129H1024.7V348.829H1034.53V347.129Z" stroke="#919DFF" stroke-miterlimit="10"/>
<path d="M1034.53 355.75H1024.7V357.45H1034.53V355.75Z" stroke="#919DFF" stroke-miterlimit="10"/>
<path d="M993.794 188.09H992.336V518.983H993.794V188.09Z" stroke="#919DFF" stroke-miterlimit="10"/>
<path d="M1005.03 188.09H1003.57V518.983H1005.03V188.09Z" stroke="#919DFF" stroke-miterlimit="10"/>
<path d="M1016.27 188.09H1014.81V518.983H1016.27V188.09Z" stroke="#919DFF" stroke-miterlimit="10"/>
<path d="M1211.07 484.766V517.021H1157.45V484.766H1143.16V544.705H1225.35V484.766H1211.07Z" stroke="#919DFF" stroke-miterlimit="10"/>
<path d="M1227.23 457.559H1208.44V489.332H1227.23V457.559Z" stroke="#919DFF" stroke-miterlimit="10"/>
<path d="M1159.45 457.559H1140.66V489.332H1159.45V457.559Z" stroke="#919DFF" stroke-miterlimit="10"/>
<path d="M1055.16 403.879H1312.73C1312.73 403.879 1264.13 469.597 1183.95 469.597C1103.77 469.597 1055.16 403.879 1055.16 403.879Z" stroke="#919DFF" stroke-miterlimit="10"/>
<path d="M1222.21 471.73H1213.99V475.004H1222.21V471.73Z" stroke="#919DFF" stroke-miterlimit="10"/>
<path d="M1222.21 476.738H1213.99V480.017H1222.21V476.738Z" stroke="#919DFF" stroke-miterlimit="10"/>
<path d="M1222.21 481.75H1213.99V485.023H1222.21V481.75Z" stroke="#919DFF" stroke-miterlimit="10"/>
<path d="M1154.72 471.73H1146.5V475.004H1154.72V471.73Z" stroke="#919DFF" stroke-miterlimit="10"/>
<path d="M1154.72 476.738H1146.5V480.017H1154.72V476.738Z" stroke="#919DFF" stroke-miterlimit="10"/>
<path d="M1154.72 481.75H1146.5V485.023H1154.72V481.75Z" stroke="#919DFF" stroke-miterlimit="10"/>
<path d="M1081.88 403.879V430.604" stroke="#919DFF" stroke-miterlimit="10"/>
<path d="M1097.75 442.529V403.879" stroke="#919DFF" stroke-miterlimit="10"/>
<path d="M1113.57 451.864V403.879" stroke="#919DFF" stroke-miterlimit="10"/>
<path d="M1128.97 458.925V403.879" stroke="#919DFF" stroke-miterlimit="10"/>
<path d="M1144.29 464.096V403.879" stroke="#919DFF" stroke-miterlimit="10"/>
<path d="M1161.27 467.795V403.879" stroke="#919DFF" stroke-miterlimit="10"/>
<path d="M1174.87 469.327V403.879" stroke="#919DFF" stroke-miterlimit="10"/>
<path d="M1190.1 469.45V403.879" stroke="#919DFF" stroke-miterlimit="10"/>
<path d="M1205.5 467.997V403.879" stroke="#919DFF" stroke-miterlimit="10"/>
<path d="M1220.73 465.011V403.879" stroke="#919DFF" stroke-miterlimit="10"/>
<path d="M1236.03 460.036V403.879" stroke="#919DFF" stroke-miterlimit="10"/>
<path d="M1251.7 453.201V403.879" stroke="#919DFF" stroke-miterlimit="10"/>
<path d="M1266.94 444.595V403.879" stroke="#919DFF" stroke-miterlimit="10"/>
<path d="M1246.2 439.998C1246.2 439.998 1217.39 453.353 1185.67 453.353C1150.17 453.353 1125.14 439.998 1125.14 439.998V410.375H1246.2V439.998H1246.2Z" stroke="#919DFF" stroke-miterlimit="10"/>
<path d="M1214.3 412.559H1206.46V417.9H1214.3V412.559Z" stroke="#919DFF" stroke-miterlimit="10"/>
<path d="M1184.73 412.559H1176.89V417.9H1184.73V412.559Z" stroke="#919DFF" stroke-miterlimit="10"/>
<path d="M1224.15 412.559H1216.32V417.9H1224.15V412.559Z" stroke="#919DFF" stroke-miterlimit="10"/>
<path d="M1216.32 447.585C1219.08 446.973 1221.71 446.326 1224.15 445.666V443.879H1216.32V447.585Z" stroke="#919DFF" stroke-miterlimit="10"/>
<path d="M1204.44 412.559H1196.6V417.9H1204.44V412.559Z" stroke="#919DFF" stroke-miterlimit="10"/>
<path d="M1226.17 445.108C1227.64 444.695 1229.03 444.285 1230.34 443.879H1226.17V445.108Z" stroke="#919DFF" stroke-miterlimit="10"/>
<path d="M1234.01 412.559H1226.17V417.9H1234.01V412.559Z" stroke="#919DFF" stroke-miterlimit="10"/>
<path d="M1194.58 412.559H1186.75V417.9H1194.58V412.559Z" stroke="#919DFF" stroke-miterlimit="10"/>
<path d="M1243.55 427.855H1236.03V433.926H1243.55V427.855Z" stroke="#919DFF" stroke-miterlimit="10"/>
<path d="M1145.3 435.867H1137.46V441.937H1145.3V435.867Z" stroke="#919DFF" stroke-miterlimit="10"/>
<path d="M1243.55 412.559H1236.03V417.9H1243.55V412.559Z" stroke="#919DFF" stroke-miterlimit="10"/>
<path d="M1236.03 441.937H1236.27C1240.87 440.333 1243.55 439.167 1243.55 439.167V435.867H1236.03V441.937Z" stroke="#919DFF" stroke-miterlimit="10"/>
<path d="M1145.3 427.855H1137.46V433.926H1145.3V427.855Z" stroke="#919DFF" stroke-miterlimit="10"/>
<path d="M1135.44 419.848H1127.79V425.918H1135.44V419.848Z" stroke="#919DFF" stroke-miterlimit="10"/>
<path d="M1155.16 412.559H1147.32V417.9H1155.16V412.559Z" stroke="#919DFF" stroke-miterlimit="10"/>
<path d="M1135.44 412.559H1127.79V417.9H1135.44V412.559Z" stroke="#919DFF" stroke-miterlimit="10"/>
<path d="M1145.3 412.559H1137.46V417.9H1145.3V412.559Z" stroke="#919DFF" stroke-miterlimit="10"/>
<path d="M1174.87 412.559H1167.03V417.9H1174.87V412.559Z" stroke="#919DFF" stroke-miterlimit="10"/>
<path d="M1165.01 412.559H1157.18V417.9H1165.01V412.559Z" stroke="#919DFF" stroke-miterlimit="10"/>
<path d="M1135.44 427.855H1127.79V433.926H1135.44V427.855Z" stroke="#919DFF" stroke-miterlimit="10"/>
<path d="M1157.18 448.374C1159.66 448.859 1162.28 449.306 1165.01 449.695V443.879H1157.18V448.374Z" stroke="#919DFF" stroke-miterlimit="10"/>
<path d="M1147.32 446.091C1149.74 446.74 1152.36 447.373 1155.16 447.962V443.879H1147.32V446.091Z" stroke="#919DFF" stroke-miterlimit="10"/>
<path d="M1145.3 445.534V443.879H1139.86C1141.53 444.423 1143.34 444.98 1145.3 445.534Z" stroke="#919DFF" stroke-miterlimit="10"/>
<path d="M1196.6 449.949H1203.05C1203.51 449.885 1203.98 449.825 1204.44 449.755V443.879H1196.6V449.949Z" stroke="#919DFF" stroke-miterlimit="10"/>
<path d="M1127.79 439.167C1127.79 439.167 1130.12 440.333 1134.35 441.937H1135.44V435.867H1127.79V439.167Z" stroke="#919DFF" stroke-miterlimit="10"/>
<path d="M1206.46 449.452C1209.16 449.027 1211.78 448.541 1214.3 448.018V443.879H1206.46V449.452Z" stroke="#919DFF" stroke-miterlimit="10"/>
<path d="M1194.58 435.867H1186.75V441.937H1194.58V435.867Z" stroke="#919DFF" stroke-miterlimit="10"/>
<path d="M1214.3 435.867H1206.46V441.937H1214.3V435.867Z" stroke="#919DFF" stroke-miterlimit="10"/>
<path d="M1204.44 427.855H1196.6V433.926H1204.44V427.855Z" stroke="#919DFF" stroke-miterlimit="10"/>
<path d="M1214.3 427.855H1206.46V433.926H1214.3V427.855Z" stroke="#919DFF" stroke-miterlimit="10"/>
<path d="M1204.44 419.848H1196.6V425.918H1204.44V419.848Z" stroke="#919DFF" stroke-miterlimit="10"/>
<path d="M1204.44 435.867H1196.6V441.937H1204.44V435.867Z" stroke="#919DFF" stroke-miterlimit="10"/>
<path d="M1194.58 427.855H1186.75V433.926H1194.58V427.855Z" stroke="#919DFF" stroke-miterlimit="10"/>
<path d="M1194.58 419.848H1186.75V425.918H1194.58V419.848Z" stroke="#919DFF" stroke-miterlimit="10"/>
<path d="M1214.3 419.848H1206.46V425.918H1214.3V419.848Z" stroke="#919DFF" stroke-miterlimit="10"/>
<path d="M1234.01 419.848H1226.17V425.918H1234.01V419.848Z" stroke="#919DFF" stroke-miterlimit="10"/>
<path d="M1243.55 419.848H1236.03V425.918H1243.55V419.848Z" stroke="#919DFF" stroke-miterlimit="10"/>
<path d="M1234.01 427.855H1226.17V433.926H1234.01V427.855Z" stroke="#919DFF" stroke-miterlimit="10"/>
<path d="M1234.01 435.867H1226.17V441.937H1234.01V435.867Z" stroke="#919DFF" stroke-miterlimit="10"/>
<path d="M1224.15 435.867H1216.32V441.937H1224.15V435.867Z" stroke="#919DFF" stroke-miterlimit="10"/>
<path d="M1224.15 427.855H1216.32V433.926H1224.15V427.855Z" stroke="#919DFF" stroke-miterlimit="10"/>
<path d="M1224.15 419.848H1216.32V425.918H1224.15V419.848Z" stroke="#919DFF" stroke-miterlimit="10"/>
<path d="M1184.73 427.855H1176.89V433.926H1184.73V427.855Z" stroke="#919DFF" stroke-miterlimit="10"/>
<path d="M1165.01 427.855H1157.18V433.926H1165.01V427.855Z" stroke="#919DFF" stroke-miterlimit="10"/>
<path d="M1165.01 435.867H1157.18V441.937H1165.01V435.867Z" stroke="#919DFF" stroke-miterlimit="10"/>
<path d="M1155.16 419.848H1147.32V425.918H1155.16V419.848Z" stroke="#919DFF" stroke-miterlimit="10"/>
<path d="M1165.01 419.848H1157.18V425.918H1165.01V419.848Z" stroke="#919DFF" stroke-miterlimit="10"/>
<path d="M1155.16 435.867H1147.32V441.937H1155.16V435.867Z" stroke="#919DFF" stroke-miterlimit="10"/>
<path d="M1194.58 443.879H1186.75V449.949H1194.58V443.879Z" stroke="#919DFF" stroke-miterlimit="10"/>
<path d="M1155.16 427.855H1147.32V433.926H1155.16V427.855Z" stroke="#919DFF" stroke-miterlimit="10"/>
<path d="M1174.87 443.879H1167.03V449.949H1174.87V443.879Z" stroke="#919DFF" stroke-miterlimit="10"/>
<path d="M1174.87 435.867H1167.03V441.937H1174.87V435.867Z" stroke="#919DFF" stroke-miterlimit="10"/>
<path d="M1145.3 419.848H1137.46V425.918H1145.3V419.848Z" stroke="#919DFF" stroke-miterlimit="10"/>
<path d="M1184.73 419.848H1176.89V425.918H1184.73V419.848Z" stroke="#919DFF" stroke-miterlimit="10"/>
<path d="M1184.73 435.867H1176.89V441.937H1184.73V435.867Z" stroke="#919DFF" stroke-miterlimit="10"/>
<path d="M1184.73 443.879H1176.89V449.949H1184.73V443.879Z" stroke="#919DFF" stroke-miterlimit="10"/>
<path d="M1174.87 419.848H1167.03V425.918H1174.87V419.848Z" stroke="#919DFF" stroke-miterlimit="10"/>
<path d="M1174.87 427.855H1167.03V433.926H1174.87V427.855Z" stroke="#919DFF" stroke-miterlimit="10"/>
<path d="M1263.84 516.723H1225.36V544.698H1263.84V516.723Z" stroke="#919DFF" stroke-miterlimit="10"/>
<path d="M1262.36 517.98H1226.84V523.118H1262.36V517.98Z" stroke="#919DFF" stroke-miterlimit="10"/>
<path d="M1143.16 516.723H1104.68V544.698H1143.16V516.723Z" stroke="#919DFF" stroke-miterlimit="10"/>
<path d="M1141.68 517.98H1106.16V523.118H1141.68V517.98Z" stroke="#919DFF" stroke-miterlimit="10"/>
<path d="M1092.65 500.051H1104.68V544.701H1078.16L1092.65 500.051Z" stroke="#919DFF" stroke-miterlimit="10"/>
<path d="M1095.51 503.129H1104.68V514.298H1092.73L1095.51 503.129Z" stroke="#919DFF" stroke-miterlimit="10"/>
<path d="M1104.68 509.199H1099.62V511.385H1104.68V509.199Z" stroke="#919DFF" stroke-miterlimit="10"/>
<path d="M1104.68 505.676H1099.62V507.861H1104.68V505.676Z" stroke="#919DFF" stroke-miterlimit="10"/>
<path d="M1275.88 500.051H1263.84V544.701H1290.37L1275.88 500.051Z" stroke="#919DFF" stroke-miterlimit="10"/>
<path d="M1273.02 503.129H1263.84V514.298H1275.8L1273.02 503.129Z" stroke="#919DFF" stroke-miterlimit="10"/>
<path d="M1268.9 509.199H1263.84V511.385H1268.9V509.199Z" stroke="#919DFF" stroke-miterlimit="10"/>
<path d="M1268.9 505.676H1263.84V507.861H1268.9V505.676Z" stroke="#919DFF" stroke-miterlimit="10"/>
<path d="M929.174 424.215H734.305V435.744H929.174V424.215Z" stroke="#919DFF" stroke-miterlimit="10"/>
<path d="M742.509 459.598H731.617V544.702H742.509V459.598Z" stroke="#919DFF" stroke-miterlimit="10"/>
<path d="M743.222 462.233C743.222 462.769 742.765 463.208 742.207 463.208H731.915C731.355 463.208 730.902 462.769 730.902 462.233C730.902 461.699 731.355 461.258 731.915 461.258H742.207C742.767 461.258 743.222 461.699 743.222 462.233Z" stroke="#919DFF" stroke-miterlimit="10"/>
<path d="M744.473 460.754C744.473 461.569 743.781 462.234 742.93 462.234H731.187C730.338 462.234 729.648 461.569 729.648 460.754C729.648 459.938 730.338 459.273 731.187 459.273H742.93C743.781 459.275 744.473 459.938 744.473 460.754Z" stroke="#919DFF" stroke-miterlimit="10"/>
<path d="M734.747 465.043H733.859V538.096H734.747V465.043Z" stroke="#919DFF" stroke-miterlimit="10"/>
<path d="M737.507 465.043H736.621V538.096H737.507V465.043Z" stroke="#919DFF" stroke-miterlimit="10"/>
<path d="M740.259 465.043H739.375V538.096H740.259V465.043Z" stroke="#919DFF" stroke-miterlimit="10"/>
<path d="M780.376 459.598H769.484V544.702H780.376V459.598Z" stroke="#919DFF" stroke-miterlimit="10"/>
<path d="M781.089 462.233C781.089 462.769 780.636 463.208 780.076 463.208H769.785C769.224 463.208 768.77 462.769 768.77 462.233C768.77 461.699 769.224 461.258 769.785 461.258H780.076C780.636 461.258 781.089 461.699 781.089 462.233Z" stroke="#919DFF" stroke-miterlimit="10"/>
<path d="M782.34 460.754C782.34 461.569 781.651 462.234 780.801 462.234H769.058C768.207 462.234 767.516 461.569 767.516 460.754C767.516 459.938 768.207 459.273 769.058 459.273H780.801C781.651 459.275 782.34 459.938 782.34 460.754Z" stroke="#919DFF" stroke-miterlimit="10"/>
<path d="M772.618 465.043H771.734V538.096H772.618V465.043Z" stroke="#919DFF" stroke-miterlimit="10"/>
<path d="M775.374 465.043H774.488V538.096H775.374V465.043Z" stroke="#919DFF" stroke-miterlimit="10"/>
<path d="M778.134 465.043H777.246V538.096H778.134V465.043Z" stroke="#919DFF" stroke-miterlimit="10"/>
<path d="M818.249 459.598H807.355V544.702H818.249V459.598Z" stroke="#919DFF" stroke-miterlimit="10"/>
<path d="M818.966 462.233C818.966 462.769 818.511 463.208 817.951 463.208H807.66C807.102 463.208 806.645 462.769 806.645 462.233C806.645 461.699 807.102 461.258 807.66 461.258H817.951C818.513 461.258 818.966 461.699 818.966 462.233Z" stroke="#919DFF" stroke-miterlimit="10"/>
<path d="M820.215 460.754C820.215 461.569 819.528 462.234 818.674 462.234H806.931C806.082 462.234 805.391 461.569 805.391 460.754C805.391 459.938 806.082 459.273 806.931 459.273H818.674C819.53 459.275 820.215 459.938 820.215 460.754Z" stroke="#919DFF" stroke-miterlimit="10"/>
<path d="M810.491 465.043H809.605V538.096H810.491V465.043Z" stroke="#919DFF" stroke-miterlimit="10"/>
<path d="M813.249 465.043H812.363V538.096H813.249V465.043Z" stroke="#919DFF" stroke-miterlimit="10"/>
<path d="M816.001 465.043H815.117V538.096H816.001V465.043Z" stroke="#919DFF" stroke-miterlimit="10"/>
<path d="M856.122 459.598H845.23V544.702H856.122V459.598Z" stroke="#919DFF" stroke-miterlimit="10"/>
<path d="M856.835 462.233C856.835 462.769 856.382 463.208 855.82 463.208H845.531C844.973 463.208 844.516 462.769 844.516 462.233C844.516 461.699 844.973 461.258 845.531 461.258H855.82C856.382 461.258 856.835 461.699 856.835 462.233Z" stroke="#919DFF" stroke-miterlimit="10"/>
<path d="M858.086 460.754C858.086 461.569 857.397 462.234 856.545 462.234H844.802C843.953 462.234 843.262 461.569 843.262 460.754C843.262 459.938 843.953 459.273 844.802 459.273H856.545C857.397 459.275 858.086 459.938 858.086 460.754Z" stroke="#919DFF" stroke-miterlimit="10"/>
<path d="M848.366 465.043H847.48V538.096H848.366V465.043Z" stroke="#919DFF" stroke-miterlimit="10"/>
<path d="M851.116 465.043H850.23V538.096H851.116V465.043Z" stroke="#919DFF" stroke-miterlimit="10"/>
<path d="M853.874 465.043H852.988V538.096H853.874V465.043Z" stroke="#919DFF" stroke-miterlimit="10"/>
<path d="M893.995 459.598H883.102V544.702H893.995V459.598Z" stroke="#919DFF" stroke-miterlimit="10"/>
<path d="M894.706 462.233C894.706 462.769 894.251 463.208 893.691 463.208H883.402C882.842 463.208 882.387 462.769 882.387 462.233C882.387 461.699 882.842 461.258 883.402 461.258H893.691C894.253 461.258 894.706 461.699 894.706 462.233Z" stroke="#919DFF" stroke-miterlimit="10"/>
<path d="M895.957 460.754C895.957 461.569 895.268 462.234 894.417 462.234H882.673C881.824 462.234 881.133 461.569 881.133 460.754C881.133 459.938 881.824 459.273 882.673 459.273H894.417C895.27 459.275 895.957 459.938 895.957 460.754Z" stroke="#919DFF" stroke-miterlimit="10"/>
<path d="M886.229 465.043H885.344V538.096H886.229V465.043Z" stroke="#919DFF" stroke-miterlimit="10"/>
<path d="M888.991 465.043H888.105V538.096H888.991V465.043Z" stroke="#919DFF" stroke-miterlimit="10"/>
<path d="M891.741 465.043H890.859V538.096H891.741V465.043Z" stroke="#919DFF" stroke-miterlimit="10"/>
<path d="M931.866 459.598H920.977V544.702H931.866V459.598Z" stroke="#919DFF" stroke-miterlimit="10"/>
<path d="M932.577 462.233C932.577 462.769 932.122 463.208 931.562 463.208H921.273C920.713 463.208 920.258 462.769 920.258 462.233C920.258 461.699 920.713 461.258 921.273 461.258H931.562C932.122 461.258 932.577 461.699 932.577 462.233Z" stroke="#919DFF" stroke-miterlimit="10"/>
<path d="M933.828 460.754C933.828 461.569 933.139 462.234 932.288 462.234H920.545C919.693 462.234 919.004 461.569 919.004 460.754C919.004 459.938 919.693 459.273 920.545 459.273H932.288C933.139 459.275 933.828 459.938 933.828 460.754Z" stroke="#919DFF" stroke-miterlimit="10"/>
<path d="M924.104 465.043H923.219V538.096H924.104V465.043Z" stroke="#919DFF" stroke-miterlimit="10"/>
<path d="M926.858 465.043H925.973V538.096H926.858V465.043Z" stroke="#919DFF" stroke-miterlimit="10"/>
<path d="M929.616 465.043H928.73V538.096H929.616V465.043Z" stroke="#919DFF" stroke-miterlimit="10"/>
<path d="M931.99 445.195H731.488V455.213H931.99V445.195Z" stroke="#919DFF" stroke-miterlimit="10"/>
<path d="M737.374 445.195H731.488V455.213H737.374V445.195Z" stroke="#919DFF" stroke-miterlimit="10"/>
<path d="M931.989 445.195H926.102V455.213H931.989V445.195Z" stroke="#919DFF" stroke-miterlimit="10"/>
<path d="M749.865 445.195H745.34V455.213H749.865V445.195Z" stroke="#919DFF" stroke-miterlimit="10"/>
<path d="M761.878 445.195H757.355V455.213H761.878V445.195Z" stroke="#919DFF" stroke-miterlimit="10"/>
<path d="M773.884 445.195H769.359V455.213H773.884V445.195Z" stroke="#919DFF" stroke-miterlimit="10"/>
<path d="M785.896 445.195H781.371V455.213H785.896V445.195Z" stroke="#919DFF" stroke-miterlimit="10"/>
<path d="M797.898 445.195H793.375V455.213H797.898V445.195Z" stroke="#919DFF" stroke-miterlimit="10"/>
<path d="M809.906 445.195H805.383V455.213H809.906V445.195Z" stroke="#919DFF" stroke-miterlimit="10"/>
<path d="M821.917 445.195H817.395V455.213H821.917V445.195Z" stroke="#919DFF" stroke-miterlimit="10"/>
<path d="M833.925 445.195H829.402V455.213H833.925V445.195Z" stroke="#919DFF" stroke-miterlimit="10"/>
<path d="M845.933 445.195H841.41V455.213H845.933V445.195Z" stroke="#919DFF" stroke-miterlimit="10"/>
<path d="M857.937 445.195H853.414V455.213H857.937V445.195Z" stroke="#919DFF" stroke-miterlimit="10"/>
<path d="M869.949 445.195H865.426V455.213H869.949V445.195Z" stroke="#919DFF" stroke-miterlimit="10"/>
<path d="M881.953 445.195H877.43V455.213H881.953V445.195Z" stroke="#919DFF" stroke-miterlimit="10"/>
<path d="M893.96 445.195H889.438V455.213H893.96V445.195Z" stroke="#919DFF" stroke-miterlimit="10"/>
<path d="M905.972 445.195H901.449V455.213H905.972V445.195Z" stroke="#919DFF" stroke-miterlimit="10"/>
<path d="M917.98 445.195H913.457V455.213H917.98V445.195Z" stroke="#919DFF" stroke-miterlimit="10"/>
<path d="M932.08 455.211H731.406V459.275H932.08V455.211Z" stroke="#919DFF" stroke-miterlimit="10"/>
<path d="M939.296 440.809H724.18V446.323H939.296V440.809Z" stroke="#919DFF" stroke-miterlimit="10"/>
<path d="M942.842 438.172H720.637L724.179 440.81H939.295L942.842 438.172Z" stroke="#919DFF" stroke-miterlimit="10"/>
<path d="M932.328 435.742H731.152V438.168H932.328V435.742Z" stroke="#919DFF" stroke-miterlimit="10"/>
<path d="M936.703 420.055H726.773V424.215H936.703V420.055Z" stroke="#919DFF" stroke-miterlimit="10"/>
<path d="M860.361 416.84H803.109V420.051H860.361V416.84Z" stroke="#919DFF" stroke-miterlimit="10"/>
<path d="M863.907 420.055H799.57V424.215H863.907V420.055Z" stroke="#919DFF" stroke-miterlimit="10"/>
<path d="M873.645 426.102H789.828V426.861H873.645V426.102Z" stroke="#919DFF" stroke-miterlimit="10"/>
<path d="M879.771 428.496H783.707V429.252H879.771V428.496Z" stroke="#919DFF" stroke-miterlimit="10"/>
<path d="M894.266 430.891H769.207V431.646H894.266V430.891Z" stroke="#919DFF" stroke-miterlimit="10"/>
<path d="M903.615 433.285H759.859V434.041H903.615V433.285Z" stroke="#919DFF" stroke-miterlimit="10"/>
<path d="M860.043 424.215H803.426V438.17H860.043V424.215Z" stroke="#919DFF" stroke-miterlimit="10"/>
<path d="M856.119 425.492H807.355V435.745H856.119V425.492Z" stroke="#919DFF" stroke-miterlimit="10"/>
<path d="M856.523 398.197C854.604 398.112 853.106 398.665 852.348 400.338C852.115 400.849 851.838 401.356 851.707 401.894C851.246 403.776 850.243 404.953 848.035 404.734C847.815 404.714 847.578 404.813 847.35 404.864C846.023 405.153 845.354 405.802 845.378 407.102C845.397 407.923 845.595 408.795 845.959 409.539C846.48 410.61 847.01 411.614 846.492 412.816C845.85 414.314 846.169 415.565 847.516 416.563C847.54 416.579 847.489 416.688 847.463 416.779C846.325 416.779 845.178 416.779 843.951 416.779C843.809 412.787 843.666 408.854 843.532 404.976C842.887 404.79 842.2 404.778 841.846 404.442C841.448 404.064 841.177 403.403 841.147 402.847C841.1 401.958 841.294 401.055 841.397 400.155C841.678 397.682 841.472 397.416 838.937 397.078C838.836 395.767 838.787 394.429 838.609 393.106C838.53 392.506 838.346 391.816 837.954 391.387C837.544 390.946 836.822 390.552 836.231 390.544C835.439 390.538 835.35 391.284 835.291 391.966C835.267 392.22 834.798 392.438 834.525 392.673C834.337 392.317 834.011 391.97 834.003 391.612C833.997 391.29 834.347 390.963 834.533 390.637C835.113 389.604 834.853 389.112 833.625 389.033C832.873 388.984 832.111 389.021 831.328 389.021C831.189 387.624 830.946 386.492 832.814 385.728C835.022 384.825 834.889 382.139 832.814 380.857C832.491 380.657 832.159 380.47 831.658 380.169C834.088 379.73 835.055 377.904 836.424 376.556C836.642 376.346 836.713 375.946 836.735 375.625C836.775 375.041 836.44 374.749 835.861 375.029C834.361 375.758 832.887 376.535 831.662 377.16C831.434 376.88 831.144 376.167 830.722 376.08C829.62 375.855 829.749 376.781 829.753 377.174C828.453 376.503 827.097 375.783 825.712 375.12C825.416 374.981 825.01 375.054 824.654 375.027C824.64 375.383 824.587 375.738 824.626 376.088C824.652 376.292 824.781 376.531 824.939 376.672C826.302 377.863 827.155 379.65 829.207 380.037C829.268 380.049 829.302 380.212 829.381 380.359C827.905 380.996 826.7 381.878 826.866 383.596C827.032 385.295 828.37 385.989 829.917 386.433C829.917 387.504 829.958 388.547 829.903 389.58C829.867 390.25 829.527 390.503 828.73 390.334C827.357 390.047 826.494 390.67 826.516 392.01C826.543 393.743 826.763 395.47 826.919 397.197C827.008 398.197 827.171 399.188 827.214 400.19C827.228 400.501 827.036 400.922 826.789 401.117C826.118 401.647 825.362 402.08 824.367 402.725C824.577 401.793 824.747 401.124 824.87 400.45C825.089 399.254 824.418 398.191 823.38 398.042C822.396 397.9 821.429 398.669 821.219 399.8C821.154 400.165 821.233 400.55 821.166 400.915C820.855 402.671 821.017 404.514 819.605 406.037C819.11 406.573 819.056 407.634 819.094 408.44C819.138 409.273 819.599 410.075 819.767 410.911C820.153 412.832 820.473 414.763 820.829 416.765C819.027 416.765 817.43 416.765 815.647 416.765C816.027 416.373 816.375 416.144 816.516 415.833C816.801 415.19 817.303 414.405 817.129 413.844C816.581 412.08 816.674 410.493 817.794 408.984C817.901 408.834 817.956 408.646 818.012 408.467C818.588 406.608 817.81 404.908 815.946 404.87C813.135 404.809 812.032 403.327 811.437 401.057C811.334 400.664 811.13 400.293 810.94 399.93C810.244 398.617 809.029 397.991 807.505 398.147C807.161 398.18 806.821 398.275 806.481 398.275C805.713 398.261 805.62 398.557 805.746 399.25C805.942 400.336 806.069 401.461 806.006 402.554C805.913 404.205 806.322 404.703 808.196 404.605C807.135 405.884 807.122 407.208 807.632 408.646C807.751 408.98 807.317 409.506 807.106 409.936C806.92 410.314 806.514 410.684 806.522 411.049C806.548 412.348 806.613 413.657 806.878 414.92C806.951 415.287 807.751 415.509 808.216 415.796C808.388 415.322 808.633 414.86 808.697 414.37C808.734 414.131 808.41 413.861 808.289 413.589C807.907 412.729 807.612 411.672 808.536 411.161C809.359 410.711 810.495 410.755 811.498 410.645C811.601 410.637 811.837 411.088 811.876 411.34C812.036 412.438 812.157 413.543 812.264 414.648C812.412 416.119 811.722 416.841 810.194 416.841H853.322C851.602 416.841 850.977 416.159 851.177 414.532C851.292 413.574 851.357 412.612 851.501 411.661C851.549 411.326 851.796 410.736 851.917 410.746C852.918 410.818 854.073 410.753 854.871 411.222C855.793 411.762 855.524 412.859 855.075 413.753C855.009 413.885 854.863 414.005 854.859 414.141C854.823 414.627 854.75 415.136 854.859 415.6C854.895 415.751 855.593 415.961 855.714 415.856C856.082 415.542 856.458 415.114 856.566 414.673C856.788 413.774 856.838 412.838 856.956 411.915C857.059 411.105 857.002 410.39 856.177 409.85C855.898 409.671 855.688 409.054 855.795 408.747C856.284 407.331 856.367 405.992 855.286 404.714C857.287 404.671 857.526 404.359 857.417 402.486C857.36 401.538 857.269 400.513 857.56 399.637C857.946 398.496 857.908 398.255 856.523 398.197ZM823.31 416.779C823.31 415.509 823.31 414.26 823.31 413.014C823.417 413.009 823.52 412.997 823.623 412.993C823.667 413.69 823.672 414.394 823.758 415.087C823.855 415.876 823.955 416.727 825.186 416.433C825.875 415.246 824.606 413.807 825.513 412.651C825.641 412.659 825.77 412.661 825.898 412.667C825.962 414.009 826.027 415.353 826.096 416.779C825.081 416.779 824.248 416.779 823.31 416.779ZM836.011 416.779C833.263 416.779 830.57 416.779 827.754 416.779C827.829 415.509 827.899 414.31 827.97 413.077C830.344 413.077 832.647 413.077 834.901 413.077C835.063 413.562 835.091 414.197 835.334 414.287C836.872 414.85 836.094 415.864 836.011 416.779ZM838.362 416.787C838.207 416.779 838.047 416.767 837.887 416.76C837.96 415.777 838.033 414.798 838.108 413.815C838.191 413.823 838.278 413.826 838.362 413.83C838.362 414.817 838.362 415.804 838.362 416.787Z" stroke="#919DFF" stroke-miterlimit="10"/>
<path d="M435.631 353.848H446.165L456.096 544.697H424.492L435.631 353.848Z" stroke="#919DFF" stroke-miterlimit="10"/>
<path d="M443.763 327.246H438.043L440.902 229.797L443.763 327.246Z" stroke="#919DFF" stroke-miterlimit="10"/>
<path d="M448.275 285.604C448.275 287.681 444.907 289.365 440.75 289.365C436.595 289.365 433.227 287.683 433.227 285.604C433.227 283.526 436.595 281.844 440.75 281.844C444.907 281.844 448.275 283.528 448.275 285.604Z" stroke="#919DFF" stroke-miterlimit="10"/>
<path d="M445.263 323.199H435.934V338.815H445.263V323.199Z" stroke="#919DFF" stroke-miterlimit="10"/>
<path d="M450.377 332.746H431.719V340.842H450.377V332.746Z" stroke="#919DFF" stroke-miterlimit="10"/>
<path d="M457.603 357.321L446.638 362.948H435.099L424.492 357.321V344.308L431.718 338.453H450.378L457.603 344.308V357.321Z" stroke="#919DFF" stroke-miterlimit="10"/>
<path d="M457.603 345.617H424.492V355.846H457.603V345.617Z" stroke="#919DFF" stroke-miterlimit="10"/>
<path d="M457.603 349.723H424.492V351.949H457.603V349.723Z" stroke="#919DFF" stroke-miterlimit="10"/>
<path d="M589.322 251.523H563.836V274.161H589.322V251.523Z" stroke="#919DFF" stroke-miterlimit="10"/>
<path d="M569.126 507.934H544.121V223.34L569.126 251.521V507.934Z" stroke="#919DFF" stroke-miterlimit="10"/>
<path d="M556.624 258.453H544.121V265.382H556.624V258.453Z" stroke="#919DFF" stroke-miterlimit="10"/>
<path d="M556.624 483.207H544.121V490.134H556.624V483.207Z" stroke="#919DFF" stroke-miterlimit="10"/>
<path d="M556.624 265.383H544.121V283.535H556.624V265.383Z" stroke="#919DFF" stroke-miterlimit="10"/>
<path d="M556.624 283.539H544.121V301.692H556.624V283.539Z" stroke="#919DFF" stroke-miterlimit="10"/>
<path d="M556.624 301.691H544.121V319.844H556.624V301.691Z" stroke="#919DFF" stroke-miterlimit="10"/>
<path d="M556.624 319.84H544.121V337.992H556.624V319.84Z" stroke="#919DFF" stroke-miterlimit="10"/>
<path d="M556.624 337.996H544.121V356.147H556.624V337.996Z" stroke="#919DFF" stroke-miterlimit="10"/>
<path d="M556.624 356.145H544.121V374.299H556.624V356.145Z" stroke="#919DFF" stroke-miterlimit="10"/>
<path d="M556.624 374.297H544.121V392.451H556.624V374.297Z" stroke="#919DFF" stroke-miterlimit="10"/>
<path d="M556.624 392.453H544.121V410.604H556.624V392.453Z" stroke="#919DFF" stroke-miterlimit="10"/>
<path d="M556.624 410.602H544.121V428.756H556.624V410.602Z" stroke="#919DFF" stroke-miterlimit="10"/>
<path d="M556.624 428.758H544.121V446.908H556.624V428.758Z" stroke="#919DFF" stroke-miterlimit="10"/>
<path d="M556.624 446.902H544.121V465.057H556.624V446.902Z" stroke="#919DFF" stroke-miterlimit="10"/>
<path d="M556.624 465.055H544.121V483.205H556.624V465.055Z" stroke="#919DFF" stroke-miterlimit="10"/>
<path d="M603.06 271.176H569.129V283.536H603.06V271.176Z" stroke="#919DFF" stroke-miterlimit="10"/>
<path d="M603.06 283.531H569.129V295.891H603.06V283.531Z" stroke="#919DFF" stroke-miterlimit="10"/>
<path d="M603.06 295.895H569.129V308.255H603.06V295.895Z" stroke="#919DFF" stroke-miterlimit="10"/>
<path d="M603.06 308.258H569.129V320.618H603.06V308.258Z" stroke="#919DFF" stroke-miterlimit="10"/>
<path d="M603.06 320.617H569.129V332.977H603.06V320.617Z" stroke="#919DFF" stroke-miterlimit="10"/>
<path d="M603.06 332.977H569.129V345.335H603.06V332.977Z" stroke="#919DFF" stroke-miterlimit="10"/>
<path d="M603.06 345.332H569.129V364.207H603.06V345.332Z" stroke="#919DFF" stroke-miterlimit="10"/>
<path d="M569.126 364.207V387.358L556.624 395.128V492.738H544.121V544.699H556.624H603.059V492.738V364.207H569.126Z" stroke="#919DFF" stroke-miterlimit="10"/>
<path d="M569.13 403.441H567.266V412.377H569.13V403.441Z" stroke="#919DFF" stroke-miterlimit="10"/>
<path d="M580.63 403.441H578.766V412.377H580.63V403.441Z" stroke="#919DFF" stroke-miterlimit="10"/>
<path d="M592.122 403.441H590.258V412.377H592.122V403.441Z" stroke="#919DFF" stroke-miterlimit="10"/>
<path d="M569.13 419.816H567.266V428.752H569.13V419.816Z" stroke="#919DFF" stroke-miterlimit="10"/>
<path d="M580.63 419.816H578.766V428.752H580.63V419.816Z" stroke="#919DFF" stroke-miterlimit="10"/>
<path d="M592.122 419.816H590.258V428.752H592.122V419.816Z" stroke="#919DFF" stroke-miterlimit="10"/>
<path d="M569.13 436.191H567.266V445.127H569.13V436.191Z" stroke="#919DFF" stroke-miterlimit="10"/>
<path d="M580.63 436.191H578.766V445.127H580.63V436.191Z" stroke="#919DFF" stroke-miterlimit="10"/>
<path d="M592.122 436.191H590.258V445.127H592.122V436.191Z" stroke="#919DFF" stroke-miterlimit="10"/>
<path d="M569.13 452.57H567.266V461.506H569.13V452.57Z" stroke="#919DFF" stroke-miterlimit="10"/>
<path d="M580.63 452.57H578.766V461.506H580.63V452.57Z" stroke="#919DFF" stroke-miterlimit="10"/>
<path d="M592.122 452.57H590.258V461.506H592.122V452.57Z" stroke="#919DFF" stroke-miterlimit="10"/>
<path d="M569.13 468.945H567.266V477.881H569.13V468.945Z" stroke="#919DFF" stroke-miterlimit="10"/>
<path d="M580.63 468.945H578.766V477.881H580.63V468.945Z" stroke="#919DFF" stroke-miterlimit="10"/>
<path d="M592.122 468.945H590.258V477.881H592.122V468.945Z" stroke="#919DFF" stroke-miterlimit="10"/>
<path d="M569.13 485.316H567.266V494.252H569.13V485.316Z" stroke="#919DFF" stroke-miterlimit="10"/>
<path d="M580.63 485.316H578.766V494.252H580.63V485.316Z" stroke="#919DFF" stroke-miterlimit="10"/>
<path d="M592.122 485.316H590.258V494.252H592.122V485.316Z" stroke="#919DFF" stroke-miterlimit="10"/>
<path d="M569.13 501.691H567.266V510.627H569.13V501.691Z" stroke="#919DFF" stroke-miterlimit="10"/>
<path d="M580.63 501.691H578.766V510.627H580.63V501.691Z" stroke="#919DFF" stroke-miterlimit="10"/>
<path d="M592.122 501.691H590.258V510.627H592.122V501.691Z" stroke="#919DFF" stroke-miterlimit="10"/>
<path d="M379.521 284.543H377.762V317.134H379.521V284.543Z" stroke="#919DFF" stroke-miterlimit="10"/>
<path d="M382.559 334.765H374.723L375.992 311.105H381.522L382.559 334.765Z" stroke="#919DFF" stroke-miterlimit="10"/>
<path d="M379.523 334.765H377.762L378.643 311.105L379.523 334.765Z" stroke="#919DFF" stroke-miterlimit="10"/>
<path d="M396.045 330.098H361.246V346.302H396.045V330.098Z" stroke="#919DFF" stroke-miterlimit="10"/>
<path d="M400.391 338.201L378.425 333.828L356.457 338.201V544.701H400.391V338.201Z" stroke="#919DFF" stroke-miterlimit="10"/>
<path d="M356.457 523.429L378.425 333.828L400.391 523.429H356.457Z" stroke="#919DFF" stroke-miterlimit="10"/>
<path d="M708.761 443.867H626.148V544.702H708.761V443.867Z" stroke="#919DFF" stroke-miterlimit="10"/>
<path d="M670.843 165.52H664.067C664.086 166.254 664.094 166.996 664.094 167.74C664.094 182.881 660.841 196.108 655.996 203.268V203.893H678.912V203.266C674.07 196.104 670.819 182.88 670.819 167.74C670.821 166.996 670.831 166.254 670.843 165.52Z" stroke="#919DFF" stroke-miterlimit="10"/>
<path d="M668.425 137.445H666.484V165.52H668.425V137.445Z" stroke="#919DFF" stroke-miterlimit="10"/>
<path d="M686.796 202.078H648.113V213.995H686.796V202.078Z" stroke="#919DFF" stroke-miterlimit="10"/>
<path d="M692.892 211.973H642.016V219.445H692.892V211.973Z" stroke="#919DFF" stroke-miterlimit="10"/>
<path d="M698.356 218.438H636.551V220.658H698.356V218.438Z" stroke="#919DFF" stroke-miterlimit="10"/>
<path d="M692.892 220.656H642.016V544.7H692.892V220.656Z" stroke="#919DFF" stroke-miterlimit="10"/>
<path d="M652.284 225.723H649.961V231.486H652.284V225.723Z" stroke="#919DFF" stroke-miterlimit="10"/>
<path d="M658.923 225.723H656.602V231.486H658.923V225.723Z" stroke="#919DFF" stroke-miterlimit="10"/>
<path d="M658.923 236.34H656.602V242.105H658.923V236.34Z" stroke="#919DFF" stroke-miterlimit="10"/>
<path d="M658.923 246.957H656.602V252.72H658.923V246.957Z" stroke="#919DFF" stroke-miterlimit="10"/>
<path d="M658.923 257.578H656.602V263.343H658.923V257.578Z" stroke="#919DFF" stroke-miterlimit="10"/>
<path d="M658.923 268.195H656.602V273.959H658.923V268.195Z" stroke="#919DFF" stroke-miterlimit="10"/>
<path d="M658.923 278.816H656.602V284.58H658.923V278.816Z" stroke="#919DFF" stroke-miterlimit="10"/>
<path d="M658.923 289.434H656.602V295.199H658.923V289.434Z" stroke="#919DFF" stroke-miterlimit="10"/>
<path d="M658.923 300.051H656.602V305.816H658.923V300.051Z" stroke="#919DFF" stroke-miterlimit="10"/>
<path d="M658.923 310.672H656.602V316.435H658.923V310.672Z" stroke="#919DFF" stroke-miterlimit="10"/>
<path d="M658.923 321.289H656.602V327.052H658.923V321.289Z" stroke="#919DFF" stroke-miterlimit="10"/>
<path d="M658.923 331.91H656.602V337.675H658.923V331.91Z" stroke="#919DFF" stroke-miterlimit="10"/>
<path d="M658.923 342.531H656.602V348.295H658.923V342.531Z" stroke="#919DFF" stroke-miterlimit="10"/>
<path d="M658.923 353.152H656.602V358.92H658.923V353.152Z" stroke="#919DFF" stroke-miterlimit="10"/>
<path d="M658.923 363.77H656.602V369.533H658.923V363.77Z" stroke="#919DFF" stroke-miterlimit="10"/>
<path d="M658.923 374.387H656.602V380.152H658.923V374.387Z" stroke="#919DFF" stroke-miterlimit="10"/>
<path d="M658.923 385.004H656.602V390.767H658.923V385.004Z" stroke="#919DFF" stroke-miterlimit="10"/>
<path d="M658.923 395.625H656.602V401.388H658.923V395.625Z" stroke="#919DFF" stroke-miterlimit="10"/>
<path d="M658.923 406.246H656.602V412.011H658.923V406.246Z" stroke="#919DFF" stroke-miterlimit="10"/>
<path d="M658.923 416.867H656.602V422.633H658.923V416.867Z" stroke="#919DFF" stroke-miterlimit="10"/>
<path d="M664.354 225.723H662.031V231.486H664.354V225.723Z" stroke="#919DFF" stroke-miterlimit="10"/>
<path d="M670.989 225.723H668.668V231.486H670.989V225.723Z" stroke="#919DFF" stroke-miterlimit="10"/>
<path d="M664.354 236.34H662.031V242.105H664.354V236.34Z" stroke="#919DFF" stroke-miterlimit="10"/>
<path d="M670.989 236.34H668.668V242.105H670.989V236.34Z" stroke="#919DFF" stroke-miterlimit="10"/>
<path d="M664.354 246.957H662.031V252.72H664.354V246.957Z" stroke="#919DFF" stroke-miterlimit="10"/>
<path d="M670.989 246.957H668.668V252.72H670.989V246.957Z" stroke="#919DFF" stroke-miterlimit="10"/>
<path d="M664.354 257.578H662.031V263.343H664.354V257.578Z" stroke="#919DFF" stroke-miterlimit="10"/>
<path d="M670.989 257.578H668.668V263.343H670.989V257.578Z" stroke="#919DFF" stroke-miterlimit="10"/>
<path d="M664.354 268.195H662.031V273.959H664.354V268.195Z" stroke="#919DFF" stroke-miterlimit="10"/>
<path d="M670.989 268.195H668.668V273.959H670.989V268.195Z" stroke="#919DFF" stroke-miterlimit="10"/>
<path d="M664.354 278.816H662.031V284.58H664.354V278.816Z" stroke="#919DFF" stroke-miterlimit="10"/>
<path d="M670.989 278.816H668.668V284.58H670.989V278.816Z" stroke="#919DFF" stroke-miterlimit="10"/>
<path d="M664.354 289.434H662.031V295.199H664.354V289.434Z" stroke="#919DFF" stroke-miterlimit="10"/>
<path d="M670.989 289.434H668.668V295.199H670.989V289.434Z" stroke="#919DFF" stroke-miterlimit="10"/>
<path d="M664.354 300.051H662.031V305.816H664.354V300.051Z" stroke="#919DFF" stroke-miterlimit="10"/>
<path d="M670.989 300.051H668.668V305.816H670.989V300.051Z" stroke="#919DFF" stroke-miterlimit="10"/>
<path d="M664.354 310.672H662.031V316.435H664.354V310.672Z" stroke="#919DFF" stroke-miterlimit="10"/>
<path d="M670.989 310.672H668.668V316.435H670.989V310.672Z" stroke="#919DFF" stroke-miterlimit="10"/>
<path d="M664.354 321.289H662.031V327.052H664.354V321.289Z" stroke="#919DFF" stroke-miterlimit="10"/>
<path d="M670.989 321.289H668.668V327.052H670.989V321.289Z" stroke="#919DFF" stroke-miterlimit="10"/>
<path d="M664.354 331.91H662.031V337.675H664.354V331.91Z" stroke="#919DFF" stroke-miterlimit="10"/>
<path d="M670.989 331.91H668.668V337.675H670.989V331.91Z" stroke="#919DFF" stroke-miterlimit="10"/>
<path d="M664.354 342.531H662.031V348.295H664.354V342.531Z" stroke="#919DFF" stroke-miterlimit="10"/>
<path d="M670.989 342.531H668.668V348.295H670.989V342.531Z" stroke="#919DFF" stroke-miterlimit="10"/>
<path d="M664.354 353.152H662.031V358.92H664.354V353.152Z" stroke="#919DFF" stroke-miterlimit="10"/>
<path d="M670.989 353.152H668.668V358.92H670.989V353.152Z" stroke="#919DFF" stroke-miterlimit="10"/>
<path d="M664.354 363.77H662.031V369.533H664.354V363.77Z" stroke="#919DFF" stroke-miterlimit="10"/>
<path d="M670.989 363.77H668.668V369.533H670.989V363.77Z" stroke="#919DFF" stroke-miterlimit="10"/>
<path d="M664.354 374.387H662.031V380.152H664.354V374.387Z" stroke="#919DFF" stroke-miterlimit="10"/>
<path d="M670.989 374.387H668.668V380.152H670.989V374.387Z" stroke="#919DFF" stroke-miterlimit="10"/>
<path d="M664.354 385.004H662.031V390.767H664.354V385.004Z" stroke="#919DFF" stroke-miterlimit="10"/>
<path d="M670.989 385.004H668.668V390.767H670.989V385.004Z" stroke="#919DFF" stroke-miterlimit="10"/>
<path d="M664.354 395.625H662.031V401.388H664.354V395.625Z" stroke="#919DFF" stroke-miterlimit="10"/>
<path d="M670.989 395.625H668.668V401.388H670.989V395.625Z" stroke="#919DFF" stroke-miterlimit="10"/>
<path d="M664.354 406.246H662.031V412.011H664.354V406.246Z" stroke="#919DFF" stroke-miterlimit="10"/>
<path d="M670.989 406.246H668.668V412.011H670.989V406.246Z" stroke="#919DFF" stroke-miterlimit="10"/>
<path d="M664.354 416.867H662.031V422.633H664.354V416.867Z" stroke="#919DFF" stroke-miterlimit="10"/>
<path d="M670.989 416.867H668.668V422.633H670.989V416.867Z" stroke="#919DFF" stroke-miterlimit="10"/>
<path d="M678.308 225.723H675.984V231.486H678.308V225.723Z" stroke="#919DFF" stroke-miterlimit="10"/>
<path d="M684.946 225.723H682.621V231.486H684.946V225.723Z" stroke="#919DFF" stroke-miterlimit="10"/>
<path d="M678.308 236.34H675.984V242.105H678.308V236.34Z" stroke="#919DFF" stroke-miterlimit="10"/>
<path d="M678.308 246.957H675.984V252.72H678.308V246.957Z" stroke="#919DFF" stroke-miterlimit="10"/>
<path d="M678.308 257.578H675.984V263.343H678.308V257.578Z" stroke="#919DFF" stroke-miterlimit="10"/>
<path d="M678.308 268.195H675.984V273.959H678.308V268.195Z" stroke="#919DFF" stroke-miterlimit="10"/>
<path d="M678.308 278.816H675.984V284.58H678.308V278.816Z" stroke="#919DFF" stroke-miterlimit="10"/>
<path d="M678.308 289.434H675.984V295.199H678.308V289.434Z" stroke="#919DFF" stroke-miterlimit="10"/>
<path d="M678.308 300.051H675.984V305.816H678.308V300.051Z" stroke="#919DFF" stroke-miterlimit="10"/>
<path d="M678.308 310.672H675.984V316.435H678.308V310.672Z" stroke="#919DFF" stroke-miterlimit="10"/>
<path d="M678.308 321.289H675.984V327.052H678.308V321.289Z" stroke="#919DFF" stroke-miterlimit="10"/>
<path d="M678.308 331.91H675.984V337.675H678.308V331.91Z" stroke="#919DFF" stroke-miterlimit="10"/>
<path d="M678.308 342.531H675.984V348.295H678.308V342.531Z" stroke="#919DFF" stroke-miterlimit="10"/>
<path d="M678.308 353.152H675.984V358.92H678.308V353.152Z" stroke="#919DFF" stroke-miterlimit="10"/>
<path d="M678.308 363.77H675.984V369.533H678.308V363.77Z" stroke="#919DFF" stroke-miterlimit="10"/>
<path d="M678.308 374.387H675.984V380.152H678.308V374.387Z" stroke="#919DFF" stroke-miterlimit="10"/>
<path d="M678.308 385.004H675.984V390.767H678.308V385.004Z" stroke="#919DFF" stroke-miterlimit="10"/>
<path d="M678.308 395.625H675.984V401.388H678.308V395.625Z" stroke="#919DFF" stroke-miterlimit="10"/>
<path d="M678.308 406.246H675.984V412.011H678.308V406.246Z" stroke="#919DFF" stroke-miterlimit="10"/>
<path d="M678.308 416.867H675.984V422.633H678.308V416.867Z" stroke="#919DFF" stroke-miterlimit="10"/>
<path d="M658.923 427.48H656.602V433.248H658.923V427.48Z" stroke="#919DFF" stroke-miterlimit="10"/>
<path d="M658.923 438.105H656.602V443.869H658.923V438.105Z" stroke="#919DFF" stroke-miterlimit="10"/>
<path d="M658.923 448.719H656.602V454.484H658.923V448.719Z" stroke="#919DFF" stroke-miterlimit="10"/>
<path d="M658.923 459.344H656.602V465.109H658.923V459.344Z" stroke="#919DFF" stroke-miterlimit="10"/>
<path d="M664.354 427.48H662.031V433.248H664.354V427.48Z" stroke="#919DFF" stroke-miterlimit="10"/>
<path d="M670.989 427.48H668.668V433.248H670.989V427.48Z" stroke="#919DFF" stroke-miterlimit="10"/>
<path d="M664.354 438.105H662.031V443.869H664.354V438.105Z" stroke="#919DFF" stroke-miterlimit="10"/>
<path d="M670.989 438.105H668.668V443.869H670.989V438.105Z" stroke="#919DFF" stroke-miterlimit="10"/>
<path d="M664.354 448.719H662.031V454.484H664.354V448.719Z" stroke="#919DFF" stroke-miterlimit="10"/>
<path d="M670.989 448.719H668.668V454.484H670.989V448.719Z" stroke="#919DFF" stroke-miterlimit="10"/>
<path d="M664.354 459.344H662.031V465.109H664.354V459.344Z" stroke="#919DFF" stroke-miterlimit="10"/>
<path d="M670.989 459.344H668.668V465.109H670.989V459.344Z" stroke="#919DFF" stroke-miterlimit="10"/>
<path d="M678.308 427.48H675.984V433.248H678.308V427.48Z" stroke="#919DFF" stroke-miterlimit="10"/>
<path d="M678.308 438.105H675.984V443.869H678.308V438.105Z" stroke="#919DFF" stroke-miterlimit="10"/>
<path d="M678.308 448.719H675.984V454.484H678.308V448.719Z" stroke="#919DFF" stroke-miterlimit="10"/>
<path d="M678.308 459.344H675.984V465.109H678.308V459.344Z" stroke="#919DFF" stroke-miterlimit="10"/>
<path d="M652.001 237.898H637.098V273.784H652.001V237.898Z" stroke="#919DFF" stroke-miterlimit="10"/>
<path d="M645.7 242.73H643.379V248.496H645.7V242.73Z" stroke="#919DFF" stroke-miterlimit="10"/>
<path d="M645.7 252.957H643.379V258.72H645.7V252.957Z" stroke="#919DFF" stroke-miterlimit="10"/>
<path d="M645.7 263.184H643.379V268.947H645.7V263.184Z" stroke="#919DFF" stroke-miterlimit="10"/>
<path d="M697.817 237.898H682.914V273.784H697.817V237.898Z" stroke="#919DFF" stroke-miterlimit="10"/>
<path d="M691.528 242.73H689.203V248.496H691.528V242.73Z" stroke="#919DFF" stroke-miterlimit="10"/>
<path d="M691.528 252.957H689.203V258.72H691.528V252.957Z" stroke="#919DFF" stroke-miterlimit="10"/>
<path d="M691.528 263.184H689.203V268.947H691.528V263.184Z" stroke="#919DFF" stroke-miterlimit="10"/>
<path d="M677.155 272.387V473.46H657.751V272.387H632.805V473.46V544.702H657.751H677.155H702.103V473.46V272.387H677.155Z" stroke="#919DFF" stroke-miterlimit="10"/>
<path d="M642.589 279.363H640.266V285.129H642.589V279.363Z" stroke="#919DFF" stroke-miterlimit="10"/>
<path d="M649.223 279.363H646.902V285.129H649.223V279.363Z" stroke="#919DFF" stroke-miterlimit="10"/>
<path d="M642.589 289.98H640.266V295.746H642.589V289.98Z" stroke="#919DFF" stroke-miterlimit="10"/>
<path d="M649.223 289.98H646.902V295.746H649.223V289.98Z" stroke="#919DFF" stroke-miterlimit="10"/>
<path d="M642.589 300.605H640.266V306.369H642.589V300.605Z" stroke="#919DFF" stroke-miterlimit="10"/>
<path d="M649.223 300.605H646.902V306.369H649.223V300.605Z" stroke="#919DFF" stroke-miterlimit="10"/>
<path d="M642.589 311.219H640.266V316.982H642.589V311.219Z" stroke="#919DFF" stroke-miterlimit="10"/>
<path d="M649.223 311.219H646.902V316.982H649.223V311.219Z" stroke="#919DFF" stroke-miterlimit="10"/>
<path d="M642.589 321.844H640.266V327.609H642.589V321.844Z" stroke="#919DFF" stroke-miterlimit="10"/>
<path d="M649.223 321.844H646.902V327.609H649.223V321.844Z" stroke="#919DFF" stroke-miterlimit="10"/>
<path d="M642.589 332.457H640.266V338.222H642.589V332.457Z" stroke="#919DFF" stroke-miterlimit="10"/>
<path d="M649.223 332.457H646.902V338.222H649.223V332.457Z" stroke="#919DFF" stroke-miterlimit="10"/>
<path d="M642.589 343.078H640.266V348.843H642.589V343.078Z" stroke="#919DFF" stroke-miterlimit="10"/>
<path d="M649.223 343.078H646.902V348.843H649.223V343.078Z" stroke="#919DFF" stroke-miterlimit="10"/>
<path d="M642.589 353.691H640.266V359.455H642.589V353.691Z" stroke="#919DFF" stroke-miterlimit="10"/>
<path d="M649.223 353.691H646.902V359.455H649.223V353.691Z" stroke="#919DFF" stroke-miterlimit="10"/>
<path d="M642.589 364.316H640.266V370.084H642.589V364.316Z" stroke="#919DFF" stroke-miterlimit="10"/>
<path d="M649.223 364.316H646.902V370.084H649.223V364.316Z" stroke="#919DFF" stroke-miterlimit="10"/>
<path d="M642.589 374.934H640.266V380.699H642.589V374.934Z" stroke="#919DFF" stroke-miterlimit="10"/>
<path d="M649.223 374.934H646.902V380.699H649.223V374.934Z" stroke="#919DFF" stroke-miterlimit="10"/>
<path d="M642.589 385.555H640.266V391.32H642.589V385.555Z" stroke="#919DFF" stroke-miterlimit="10"/>
<path d="M649.223 385.555H646.902V391.32H649.223V385.555Z" stroke="#919DFF" stroke-miterlimit="10"/>
<path d="M642.589 396.176H640.266V401.943H642.589V396.176Z" stroke="#919DFF" stroke-miterlimit="10"/>
<path d="M649.223 396.176H646.902V401.943H649.223V396.176Z" stroke="#919DFF" stroke-miterlimit="10"/>
<path d="M642.589 406.797H640.266V412.558H642.589V406.797Z" stroke="#919DFF" stroke-miterlimit="10"/>
<path d="M649.223 406.797H646.902V412.558H649.223V406.797Z" stroke="#919DFF" stroke-miterlimit="10"/>
<path d="M642.589 417.41H640.266V423.175H642.589V417.41Z" stroke="#919DFF" stroke-miterlimit="10"/>
<path d="M649.223 417.41H646.902V423.175H649.223V417.41Z" stroke="#919DFF" stroke-miterlimit="10"/>
<path d="M642.589 428.031H640.266V433.795H642.589V428.031Z" stroke="#919DFF" stroke-miterlimit="10"/>
<path d="M649.223 428.031H646.902V433.795H649.223V428.031Z" stroke="#919DFF" stroke-miterlimit="10"/>
<path d="M642.589 438.648H640.266V444.412H642.589V438.648Z" stroke="#919DFF" stroke-miterlimit="10"/>
<path d="M649.223 438.648H646.902V444.412H649.223V438.648Z" stroke="#919DFF" stroke-miterlimit="10"/>
<path d="M642.589 449.27H640.266V455.035H642.589V449.27Z" stroke="#919DFF" stroke-miterlimit="10"/>
<path d="M649.223 449.27H646.902V455.035H649.223V449.27Z" stroke="#919DFF" stroke-miterlimit="10"/>
<path d="M642.589 459.891H640.266V465.656H642.589V459.891Z" stroke="#919DFF" stroke-miterlimit="10"/>
<path d="M649.223 459.891H646.902V465.656H649.223V459.891Z" stroke="#919DFF" stroke-miterlimit="10"/>
<path d="M642.589 470.508H640.266V476.273H642.589V470.508Z" stroke="#919DFF" stroke-miterlimit="10"/>
<path d="M649.223 470.508H646.902V476.273H649.223V470.508Z" stroke="#919DFF" stroke-miterlimit="10"/>
<path d="M642.589 481.129H640.266V486.896H642.589V481.129Z" stroke="#919DFF" stroke-miterlimit="10"/>
<path d="M649.223 481.129H646.902V486.896H649.223V481.129Z" stroke="#919DFF" stroke-miterlimit="10"/>
<path d="M642.589 491.746H640.266V497.509H642.589V491.746Z" stroke="#919DFF" stroke-miterlimit="10"/>
<path d="M649.223 491.746H646.902V497.509H649.223V491.746Z" stroke="#919DFF" stroke-miterlimit="10"/>
<path d="M642.589 502.367H640.266V508.131H642.589V502.367Z" stroke="#919DFF" stroke-miterlimit="10"/>
<path d="M649.223 502.367H646.902V508.131H649.223V502.367Z" stroke="#919DFF" stroke-miterlimit="10"/>
<path d="M642.589 512.984H640.266V518.752H642.589V512.984Z" stroke="#919DFF" stroke-miterlimit="10"/>
<path d="M649.223 512.984H646.902V518.752H649.223V512.984Z" stroke="#919DFF" stroke-miterlimit="10"/>
<path d="M658.681 481.129H656.359V486.896H658.681V481.129Z" stroke="#919DFF" stroke-miterlimit="10"/>
<path d="M665.317 481.129H662.996V486.896H665.317V481.129Z" stroke="#919DFF" stroke-miterlimit="10"/>
<path d="M658.681 491.746H656.359V497.509H658.681V491.746Z" stroke="#919DFF" stroke-miterlimit="10"/>
<path d="M665.317 491.746H662.996V497.509H665.317V491.746Z" stroke="#919DFF" stroke-miterlimit="10"/>
<path d="M658.681 502.367H656.359V508.131H658.681V502.367Z" stroke="#919DFF" stroke-miterlimit="10"/>
<path d="M665.317 502.367H662.996V508.131H665.317V502.367Z" stroke="#919DFF" stroke-miterlimit="10"/>
<path d="M658.681 512.984H656.36V518.752H658.681V512.984Z" stroke="#919DFF" stroke-miterlimit="10"/>
<path d="M665.317 512.984H662.996V518.752H665.317V512.984Z" stroke="#919DFF" stroke-miterlimit="10"/>
<path d="M672.229 481.129H669.906V486.896H672.229V481.129Z" stroke="#919DFF" stroke-miterlimit="10"/>
<path d="M678.86 481.129H676.539V486.896H678.86V481.129Z" stroke="#919DFF" stroke-miterlimit="10"/>
<path d="M672.229 491.746H669.906V497.509H672.229V491.746Z" stroke="#919DFF" stroke-miterlimit="10"/>
<path d="M678.86 491.746H676.539V497.509H678.86V491.746Z" stroke="#919DFF" stroke-miterlimit="10"/>
<path d="M672.229 502.367H669.906V508.131H672.229V502.367Z" stroke="#919DFF" stroke-miterlimit="10"/>
<path d="M678.86 502.367H676.539V508.131H678.86V502.367Z" stroke="#919DFF" stroke-miterlimit="10"/>
<path d="M672.229 512.984H669.906V518.752H672.229V512.984Z" stroke="#919DFF" stroke-miterlimit="10"/>
<path d="M678.86 512.984H676.539V518.752H678.86V512.984Z" stroke="#919DFF" stroke-miterlimit="10"/>
<path d="M688.005 279.363H685.684V285.129H688.005V279.363Z" stroke="#919DFF" stroke-miterlimit="10"/>
<path d="M694.643 279.363H692.32V285.129H694.643V279.363Z" stroke="#919DFF" stroke-miterlimit="10"/>
<path d="M688.005 289.98H685.684V295.746H688.005V289.98Z" stroke="#919DFF" stroke-miterlimit="10"/>
<path d="M694.643 289.98H692.32V295.746H694.643V289.98Z" stroke="#919DFF" stroke-miterlimit="10"/>
<path d="M688.005 300.605H685.684V306.369H688.005V300.605Z" stroke="#919DFF" stroke-miterlimit="10"/>
<path d="M694.643 300.605H692.32V306.369H694.643V300.605Z" stroke="#919DFF" stroke-miterlimit="10"/>
<path d="M688.005 311.219H685.684V316.982H688.005V311.219Z" stroke="#919DFF" stroke-miterlimit="10"/>
<path d="M694.643 311.219H692.32V316.982H694.643V311.219Z" stroke="#919DFF" stroke-miterlimit="10"/>
<path d="M688.005 321.844H685.684V327.609H688.005V321.844Z" stroke="#919DFF" stroke-miterlimit="10"/>
<path d="M694.643 321.844H692.32V327.609H694.643V321.844Z" stroke="#919DFF" stroke-miterlimit="10"/>
<path d="M688.005 332.457H685.684V338.222H688.005V332.457Z" stroke="#919DFF" stroke-miterlimit="10"/>
<path d="M694.643 332.457H692.32V338.222H694.643V332.457Z" stroke="#919DFF" stroke-miterlimit="10"/>
<path d="M688.005 343.078H685.684V348.843H688.005V343.078Z" stroke="#919DFF" stroke-miterlimit="10"/>
<path d="M694.643 343.078H692.32V348.843H694.643V343.078Z" stroke="#919DFF" stroke-miterlimit="10"/>
<path d="M688.005 353.691H685.684V359.455H688.005V353.691Z" stroke="#919DFF" stroke-miterlimit="10"/>
<path d="M694.643 353.691H692.32V359.455H694.643V353.691Z" stroke="#919DFF" stroke-miterlimit="10"/>
<path d="M688.005 364.316H685.684V370.084H688.005V364.316Z" stroke="#919DFF" stroke-miterlimit="10"/>
<path d="M694.643 364.316H692.32V370.084H694.643V364.316Z" stroke="#919DFF" stroke-miterlimit="10"/>
<path d="M688.005 374.934H685.684V380.699H688.005V374.934Z" stroke="#919DFF" stroke-miterlimit="10"/>
<path d="M694.643 374.934H692.32V380.699H694.643V374.934Z" stroke="#919DFF" stroke-miterlimit="10"/>
<path d="M688.005 385.555H685.684V391.32H688.005V385.555Z" stroke="#919DFF" stroke-miterlimit="10"/>
<path d="M694.643 385.555H692.32V391.32H694.643V385.555Z" stroke="#919DFF" stroke-miterlimit="10"/>
<path d="M688.005 396.176H685.684V401.943H688.005V396.176Z" stroke="#919DFF" stroke-miterlimit="10"/>
<path d="M694.643 396.176H692.32V401.943H694.643V396.176Z" stroke="#919DFF" stroke-miterlimit="10"/>
<path d="M688.005 406.797H685.684V412.558H688.005V406.797Z" stroke="#919DFF" stroke-miterlimit="10"/>
<path d="M694.643 406.797H692.32V412.558H694.643V406.797Z" stroke="#919DFF" stroke-miterlimit="10"/>
<path d="M688.005 417.41H685.684V423.175H688.005V417.41Z" stroke="#919DFF" stroke-miterlimit="10"/>
<path d="M694.643 417.41H692.32V423.175H694.643V417.41Z" stroke="#919DFF" stroke-miterlimit="10"/>
<path d="M688.005 428.031H685.684V433.795H688.005V428.031Z" stroke="#919DFF" stroke-miterlimit="10"/>
<path d="M694.643 428.031H692.32V433.795H694.643V428.031Z" stroke="#919DFF" stroke-miterlimit="10"/>
<path d="M688.005 438.648H685.684V444.412H688.005V438.648Z" stroke="#919DFF" stroke-miterlimit="10"/>
<path d="M694.643 438.648H692.32V444.412H694.643V438.648Z" stroke="#919DFF" stroke-miterlimit="10"/>
<path d="M688.005 449.27H685.684V455.035H688.005V449.27Z" stroke="#919DFF" stroke-miterlimit="10"/>
<path d="M694.643 449.27H692.32V455.035H694.643V449.27Z" stroke="#919DFF" stroke-miterlimit="10"/>
<path d="M688.005 459.891H685.684V465.656H688.005V459.891Z" stroke="#919DFF" stroke-miterlimit="10"/>
<path d="M694.643 459.891H692.32V465.656H694.643V459.891Z" stroke="#919DFF" stroke-miterlimit="10"/>
<path d="M688.005 470.508H685.684V476.273H688.005V470.508Z" stroke="#919DFF" stroke-miterlimit="10"/>
<path d="M694.643 470.508H692.32V476.273H694.643V470.508Z" stroke="#919DFF" stroke-miterlimit="10"/>
<path d="M688.005 481.129H685.684V486.896H688.005V481.129Z" stroke="#919DFF" stroke-miterlimit="10"/>
<path d="M694.643 481.129H692.32V486.896H694.643V481.129Z" stroke="#919DFF" stroke-miterlimit="10"/>
<path d="M688.005 491.746H685.684V497.509H688.005V491.746Z" stroke="#919DFF" stroke-miterlimit="10"/>
<path d="M694.643 491.746H692.32V497.509H694.643V491.746Z" stroke="#919DFF" stroke-miterlimit="10"/>
<path d="M688.005 502.367H685.684V508.131H688.005V502.367Z" stroke="#919DFF" stroke-miterlimit="10"/>
<path d="M694.643 502.367H692.32V508.131H694.643V502.367Z" stroke="#919DFF" stroke-miterlimit="10"/>
<path d="M688.005 512.984H685.684V518.752H688.005V512.984Z" stroke="#919DFF" stroke-miterlimit="10"/>
<path d="M694.643 512.984H692.32V518.752H694.643V512.984Z" stroke="#919DFF" stroke-miterlimit="10"/>
<path d="M733.388 502.367H705.723V544.704H733.388V502.367Z" stroke="#919DFF" stroke-miterlimit="10"/>
<path d="M724.16 511.023H721.742V515.864H724.16V511.023Z" stroke="#919DFF" stroke-miterlimit="10"/>
<path d="M713.396 482.199H688.996V544.705H713.396V482.199Z" stroke="#919DFF" stroke-miterlimit="10"/>
<path d="M699.425 490.223H696.68V495.294H699.425V490.223Z" stroke="#919DFF" stroke-miterlimit="10"/>
<path d="M705.711 490.223H702.965V495.294H705.711V490.223Z" stroke="#919DFF" stroke-miterlimit="10"/>
<path d="M699.425 501.102H696.68V506.166H699.425V501.102Z" stroke="#919DFF" stroke-miterlimit="10"/>
<path d="M705.711 501.102H702.965V506.166H705.711V501.102Z" stroke="#919DFF" stroke-miterlimit="10"/>
<path d="M699.425 511.973H696.68V517.041H699.425V511.973Z" stroke="#919DFF" stroke-miterlimit="10"/>
<path d="M705.711 511.973H702.965V517.041H705.711V511.973Z" stroke="#919DFF" stroke-miterlimit="10"/>
<path d="M629.189 502.367H601.523V544.704H629.189V502.367Z" stroke="#919DFF" stroke-miterlimit="10"/>
<path d="M613.164 511.023H610.746V515.864H613.164V511.023Z" stroke="#919DFF" stroke-miterlimit="10"/>
<path d="M645.314 482.199H620.918V544.705H645.314V482.199Z" stroke="#919DFF" stroke-miterlimit="10"/>
<path d="M631.351 490.223H628.605V495.294H631.351V490.223Z" stroke="#919DFF" stroke-miterlimit="10"/>
<path d="M637.633 490.223H634.883V495.294H637.633V490.223Z" stroke="#919DFF" stroke-miterlimit="10"/>
<path d="M631.351 501.102H628.605V506.166H631.351V501.102Z" stroke="#919DFF" stroke-miterlimit="10"/>
<path d="M637.633 501.102H634.883V506.166H637.633V501.102Z" stroke="#919DFF" stroke-miterlimit="10"/>
<path d="M631.351 511.973H628.605V517.041H631.351V511.973Z" stroke="#919DFF" stroke-miterlimit="10"/>
<path d="M637.633 511.973H634.883V517.041H637.633V511.973Z" stroke="#919DFF" stroke-miterlimit="10"/>
<path d="M219.891 464.598H-84.4727V471.424H219.891V464.598Z" stroke="#919DFF" stroke-miterlimit="10"/>
<path d="M219.891 457.777H-84.4727V459.728H219.891V457.777Z" stroke="#919DFF" stroke-miterlimit="10"/>
<path d="M54.5449 392.215H22.3242V515.299H54.5449V392.215Z" stroke="#919DFF" stroke-miterlimit="10"/>
<path d="M25.4944 378.801H19.9141V515.301H25.4944V378.801Z" stroke="#919DFF" stroke-miterlimit="10"/>
<path d="M56.9584 378.801H52.8984V515.301H56.9584V378.801Z" stroke="#919DFF" stroke-miterlimit="10"/>
<path d="M31.8359 457.774V407.075C31.8359 403.572 34.7899 400.734 38.4333 400.734C42.0768 400.734 45.0307 403.572 45.0307 407.075V457.774H31.8359Z" stroke="#919DFF" stroke-miterlimit="10"/>
<path d="M40.6216 471.426H36.2422V515.301H40.6216V471.426Z" stroke="#919DFF" stroke-miterlimit="10"/>
<path d="M56.4809 512.977H19.4401L9.77344 523.82V534.666H67.0918V523.82L56.4809 512.977Z" stroke="#919DFF" stroke-miterlimit="10"/>
<path d="M111.988 392.215H79.7656V515.299H111.988V392.215Z" stroke="#919DFF" stroke-miterlimit="10"/>
<path d="M82.9359 378.801H77.3555V515.301H82.9359V378.801Z" stroke="#919DFF" stroke-miterlimit="10"/>
<path d="M114.4 378.801H110.34V515.301H114.4V378.801Z" stroke="#919DFF" stroke-miterlimit="10"/>
<path d="M89.2812 457.774V407.075C89.2812 403.572 92.2352 400.734 95.8787 400.734C99.5221 400.734 102.476 403.572 102.476 407.075V457.774H89.2812Z" stroke="#919DFF" stroke-miterlimit="10"/>
<path d="M98.0669 471.426H93.6875V515.301H98.0669V471.426Z" stroke="#919DFF" stroke-miterlimit="10"/>
<path d="M113.924 512.977H76.8833L67.2188 523.82V534.666H124.535V523.82L113.924 512.977Z" stroke="#919DFF" stroke-miterlimit="10"/>
<path d="M357.809 481.457H327.656V544.706H357.809V481.457Z" stroke="#919DFF" stroke-miterlimit="10"/>
<path d="M335.231 486.387H333.086V491.534H335.231V486.387Z" stroke="#919DFF" stroke-miterlimit="10"/>
<path d="M340.946 486.387H338.801V491.534H340.946V486.387Z" stroke="#919DFF" stroke-miterlimit="10"/>
<path d="M346.665 486.387H344.52V491.534H346.665V486.387Z" stroke="#919DFF" stroke-miterlimit="10"/>
<path d="M352.384 486.387H350.238V491.534H352.384V486.387Z" stroke="#919DFF" stroke-miterlimit="10"/>
<path d="M335.231 496H333.086V501.148H335.231V496Z" stroke="#919DFF" stroke-miterlimit="10"/>
<path d="M340.946 496H338.801V501.148H340.946V496Z" stroke="#919DFF" stroke-miterlimit="10"/>
<path d="M346.665 496H344.52V501.148H346.665V496Z" stroke="#919DFF" stroke-miterlimit="10"/>
<path d="M352.384 496H350.238V501.148H352.384V496Z" stroke="#919DFF" stroke-miterlimit="10"/>
<path d="M335.231 505.617H333.086V510.765H335.231V505.617Z" stroke="#919DFF" stroke-miterlimit="10"/>
<path d="M340.946 505.617H338.801V510.765H340.946V505.617Z" stroke="#919DFF" stroke-miterlimit="10"/>
<path d="M346.665 505.617H344.52V510.765H346.665V505.617Z" stroke="#919DFF" stroke-miterlimit="10"/>
<path d="M352.384 505.617H350.238V510.765H352.384V505.617Z" stroke="#919DFF" stroke-miterlimit="10"/>
<path d="M335.231 515.234H333.086V520.382H335.231V515.234Z" stroke="#919DFF" stroke-miterlimit="10"/>
<path d="M340.946 515.234H338.801V520.382H340.946V515.234Z" stroke="#919DFF" stroke-miterlimit="10"/>
<path d="M346.665 515.234H344.52V520.382H346.665V515.234Z" stroke="#919DFF" stroke-miterlimit="10"/>
<path d="M352.384 515.234H350.238V520.382H352.384V515.234Z" stroke="#919DFF" stroke-miterlimit="10"/>
<path d="M433.562 453.453H398.887V544.705H433.562V453.453Z" stroke="#919DFF" stroke-miterlimit="10"/>
<path d="M410.256 464.93H408.648V470.769H410.256V464.93Z" stroke="#919DFF" stroke-miterlimit="10"/>
<path d="M414.768 464.93H413.16V470.769H414.768V464.93Z" stroke="#919DFF" stroke-miterlimit="10"/>
<path d="M419.283 464.93H417.676V470.769H419.283V464.93Z" stroke="#919DFF" stroke-miterlimit="10"/>
<path d="M423.799 464.93H422.191V470.769H423.799V464.93Z" stroke="#919DFF" stroke-miterlimit="10"/>
<path d="M410.256 474.199H408.648V480.034H410.256V474.199Z" stroke="#919DFF" stroke-miterlimit="10"/>
<path d="M414.767 474.199H413.16V480.034H414.767V474.199Z" stroke="#919DFF" stroke-miterlimit="10"/>
<path d="M419.283 474.199H417.676V480.034H419.283V474.199Z" stroke="#919DFF" stroke-miterlimit="10"/>
<path d="M423.799 474.199H422.191V480.034H423.799V474.199Z" stroke="#919DFF" stroke-miterlimit="10"/>
<path d="M410.256 483.469H408.648V489.308H410.256V483.469Z" stroke="#919DFF" stroke-miterlimit="10"/>
<path d="M414.767 483.469H413.16V489.308H414.767V483.469Z" stroke="#919DFF" stroke-miterlimit="10"/>
<path d="M419.283 483.469H417.676V489.308H419.283V483.469Z" stroke="#919DFF" stroke-miterlimit="10"/>
<path d="M423.799 483.469H422.191V489.308H423.799V483.469Z" stroke="#919DFF" stroke-miterlimit="10"/>
<path d="M410.256 492.742H408.648V498.577H410.256V492.742Z" stroke="#919DFF" stroke-miterlimit="10"/>
<path d="M414.768 492.742H413.16V498.577H414.768V492.742Z" stroke="#919DFF" stroke-miterlimit="10"/>
<path d="M419.283 492.742H417.676V498.577H419.283V492.742Z" stroke="#919DFF" stroke-miterlimit="10"/>
<path d="M423.799 492.742H422.191V498.577H423.799V492.742Z" stroke="#919DFF" stroke-miterlimit="10"/>
<path d="M410.256 502.008H408.648V507.847H410.256V502.008Z" stroke="#919DFF" stroke-miterlimit="10"/>
<path d="M414.768 502.008H413.16V507.847H414.768V502.008Z" stroke="#919DFF" stroke-miterlimit="10"/>
<path d="M419.283 502.008H417.676V507.847H419.283V502.008Z" stroke="#919DFF" stroke-miterlimit="10"/>
<path d="M423.799 502.008H422.191V507.847H423.799V502.008Z" stroke="#919DFF" stroke-miterlimit="10"/>
<path d="M410.256 511.281H408.648V517.116H410.256V511.281Z" stroke="#919DFF" stroke-miterlimit="10"/>
<path d="M414.768 511.281H413.16V517.116H414.768V511.281Z" stroke="#919DFF" stroke-miterlimit="10"/>
<path d="M419.283 511.281H417.676V517.116H419.283V511.281Z" stroke="#919DFF" stroke-miterlimit="10"/>
<path d="M423.799 511.281H422.191V517.116H423.799V511.281Z" stroke="#919DFF" stroke-miterlimit="10"/>
<path d="M410.256 520.551H408.648V526.39H410.256V520.551Z" stroke="#919DFF" stroke-miterlimit="10"/>
<path d="M414.768 520.551H413.16V526.39H414.768V520.551Z" stroke="#919DFF" stroke-miterlimit="10"/>
<path d="M419.283 520.551H417.676V526.39H419.283V520.551Z" stroke="#919DFF" stroke-miterlimit="10"/>
<path d="M423.799 520.551H422.191V526.39H423.799V520.551Z" stroke="#919DFF" stroke-miterlimit="10"/>
<path d="M509.366 251.459V268.145H504.136V232.965H502.559V268.145V269.352V283.221H504.136V269.352H509.366V289.052H510.414V251.459H509.366Z" stroke="#919DFF" stroke-miterlimit="10"/>
<path d="M539.46 530.924H497V274.516L547.042 315.794L539.46 530.924Z" stroke="#919DFF" stroke-miterlimit="10"/>
<path d="M537.568 405.821L538.8 360.582L505.984 383.614L537.568 405.821Z" stroke="#919DFF" stroke-miterlimit="10"/>
<path d="M508.012 338.555L538.959 354.627L539.925 319.043L508.012 338.555Z" stroke="#919DFF" stroke-miterlimit="10"/>
<path d="M502.559 287.629V337.289L537.62 315.851L502.559 287.629Z" stroke="#919DFF" stroke-miterlimit="10"/>
<path d="M502.559 466.34H535.92L535.942 465.555L502.559 435.613V466.34Z" stroke="#919DFF" stroke-miterlimit="10"/>
<path d="M504.109 340.941L502.559 341.889V381.201L536.185 357.6L504.109 340.941Z" stroke="#919DFF" stroke-miterlimit="10"/>
<path d="M502.559 386.02V429.52L534.733 408.642L502.559 386.02Z" stroke="#919DFF" stroke-miterlimit="10"/>
<path d="M536.083 460.368L537.409 411.594L505.094 432.571L536.083 460.368Z" stroke="#919DFF" stroke-miterlimit="10"/>
<path d="M461.231 530.924H496.998V351.191L453.184 378.04L461.231 530.924Z" stroke="#919DFF" stroke-miterlimit="10"/>
<path d="M491.816 494.758H466.098L479.06 507.225L491.816 494.758Z" stroke="#919DFF" stroke-miterlimit="10"/>
<path d="M463.109 497.387V522.816L476.225 509.997L463.109 497.387Z" stroke="#919DFF" stroke-miterlimit="10"/>
<path d="M495.026 522.583V497.164L481.918 509.977L495.026 522.583Z" stroke="#919DFF" stroke-miterlimit="10"/>
<path d="M465.848 525.683H492.534L479.083 512.75L465.848 525.683Z" stroke="#919DFF" stroke-miterlimit="10"/>
<path d="M461.719 432.093L495.023 450.307V403.089L494.265 402.637L461.719 432.093Z" stroke="#919DFF" stroke-miterlimit="10"/>
<path d="M459.887 377.673L495.023 398.524V357.941L459.887 377.673Z" stroke="#919DFF" stroke-miterlimit="10"/>
<path d="M456.992 380.516L459.014 429.206L490.709 400.523L456.992 380.516Z" stroke="#919DFF" stroke-miterlimit="10"/>
<path d="M495.026 489.093V459.004L464.328 489.093H495.026Z" stroke="#919DFF" stroke-miterlimit="10"/>
<path d="M459.262 435.219L461.389 486.421L494.155 454.306L459.262 435.219Z" stroke="#919DFF" stroke-miterlimit="10"/>
<path d="M503.293 499.633V523.492L516.409 511.466L503.293 499.633Z" stroke="#919DFF" stroke-miterlimit="10"/>
<path d="M535.209 523.274V499.422L522.102 511.444L535.209 523.274Z" stroke="#919DFF" stroke-miterlimit="10"/>
<path d="M506.027 526.184H532.714L519.263 514.043L506.027 526.184Z" stroke="#919DFF" stroke-miterlimit="10"/>
<path d="M531.996 468.375H506.277L519.24 480.073L531.996 468.375Z" stroke="#919DFF" stroke-miterlimit="10"/>
<path d="M503.293 470.84V494.699L516.409 482.673L503.293 470.84Z" stroke="#919DFF" stroke-miterlimit="10"/>
<path d="M522.102 482.653L535.209 494.479V470.629L522.102 482.653Z" stroke="#919DFF" stroke-miterlimit="10"/>
<path d="M519.263 485.246L506.027 497.383L519.238 508.855L532.714 497.383L519.263 485.246Z" stroke="#919DFF" stroke-miterlimit="10"/>
<path d="M201.852 469.051H152.207V544.701H201.852V469.051Z" stroke="#919DFF" stroke-miterlimit="10"/>
<path d="M201.852 472.98H152.207V477.446H201.852V472.98Z" stroke="#919DFF" stroke-miterlimit="10"/>
<path d="M201.852 482.59H152.207V487.052H201.852V482.59Z" stroke="#919DFF" stroke-miterlimit="10"/>
<path d="M201.852 492.195H152.207V496.661H201.852V492.195Z" stroke="#919DFF" stroke-miterlimit="10"/>
<path d="M201.852 501.805H152.207V506.267H201.852V501.805Z" stroke="#919DFF" stroke-miterlimit="10"/>
<path d="M201.852 511.414H152.207V515.88H201.852V511.414Z" stroke="#919DFF" stroke-miterlimit="10"/>
<path d="M201.852 521.027H152.207V525.489H201.852V521.027Z" stroke="#919DFF" stroke-miterlimit="10"/>
<path d="M887.269 183.008C887.269 177.789 882.865 173.558 877.432 173.558C875.463 173.558 873.639 174.127 872.101 175.083C870.997 171.516 868.259 168.628 864.719 167.22C862.933 154.617 851.714 144.895 838.107 144.895C825.031 144.895 814.145 153.865 811.727 165.747C804.469 166.213 798.727 172.004 798.727 179.096C798.727 181.689 799.507 184.102 800.833 186.153H886.668C887.034 185.164 887.269 184.117 887.269 183.008Z" stroke="#919DFF" stroke-miterlimit="10"/>
<path d="M862.605 183.412C862.605 180.222 859.914 177.637 856.594 177.637C856.111 177.637 855.646 177.706 855.197 177.809C855.217 177.512 855.243 177.217 855.243 176.916C855.243 169.024 848.583 162.625 840.368 162.625C832.153 162.625 825.493 169.024 825.493 176.916C825.493 177.6 825.56 178.268 825.657 178.926C824.286 179.985 823.391 181.59 823.391 183.412C823.391 184.41 823.678 185.335 824.143 186.154H861.853C862.318 185.335 862.605 184.41 862.605 183.412Z" stroke="#919DFF" stroke-miterlimit="10"/>
<path d="M97.5586 202.192C97.5586 196.972 101.962 192.741 107.395 192.741C109.364 192.741 111.188 193.311 112.727 194.266C113.831 190.7 116.566 187.811 120.109 186.403C121.894 173.8 133.113 164.078 146.721 164.078C159.796 164.078 170.682 173.049 173.1 184.931C180.359 185.397 186.101 191.187 186.101 198.28C186.101 200.873 185.32 203.285 183.994 205.337H98.1591C97.7951 204.348 97.5586 203.301 97.5586 202.192Z" stroke="#919DFF" stroke-miterlimit="10"/>
<path d="M122.223 202.595C122.223 199.406 124.914 196.82 128.234 196.82C128.717 196.82 129.182 196.89 129.631 196.993C129.611 196.696 129.584 196.401 129.584 196.099C129.584 188.205 136.244 181.809 144.459 181.809C152.674 181.809 159.334 188.207 159.334 196.099C159.334 196.783 159.268 197.451 159.171 198.11C160.541 199.169 161.437 200.773 161.437 202.595C161.437 203.594 161.148 204.518 160.685 205.338H122.975C122.51 204.518 122.223 203.594 122.223 202.595Z" stroke="#919DFF" stroke-miterlimit="10"/>
<path d="M978.488 532.076C978.488 536.284 974.934 539.699 970.552 539.699H970.514C966.131 539.699 962.578 536.284 962.578 532.076V521.927C962.578 517.716 966.131 514.301 970.514 514.301H970.552C974.934 514.301 978.488 517.716 978.488 521.927V532.076Z" stroke="#919DFF" stroke-miterlimit="10"/>
<path d="M149.785 532.076C149.785 536.284 146.231 539.699 141.849 539.699H141.811C137.427 539.699 133.875 536.284 133.875 532.076V521.927C133.875 517.716 137.427 514.301 141.811 514.301H141.849C146.231 514.301 149.785 517.716 149.785 521.927V532.076Z" stroke="#919DFF" stroke-miterlimit="10"/>
<path d="M206.41 532.076C206.41 536.284 202.856 539.699 198.474 539.699H198.436C194.052 539.699 190.5 536.284 190.5 532.076V521.927C190.5 517.716 194.052 514.301 198.436 514.301H198.474C202.856 514.301 206.41 517.716 206.41 521.927V532.076Z" stroke="#919DFF" stroke-miterlimit="10"/>
<path d="M218.676 532.076C218.676 536.284 215.121 539.699 210.74 539.699H210.701C206.318 539.699 202.766 536.284 202.766 532.076V521.927C202.766 517.716 206.318 514.301 210.701 514.301H210.74C215.121 514.301 218.676 517.716 218.676 521.927V532.076Z" stroke="#919DFF" stroke-miterlimit="10"/>
<path d="M458.336 532.076C458.336 536.284 454.782 539.699 450.4 539.699H450.362C445.978 539.699 442.426 536.284 442.426 532.076V521.927C442.426 517.716 445.978 514.301 450.362 514.301H450.4C454.782 514.301 458.336 517.716 458.336 521.927V532.076Z" stroke="#919DFF" stroke-miterlimit="10"/>
<path d="M881.598 532.076C881.598 536.284 878.043 539.699 873.662 539.699H873.623C869.24 539.699 865.688 536.284 865.688 532.076V521.927C865.688 517.716 869.24 514.301 873.623 514.301H873.662C878.043 514.301 881.598 517.716 881.598 521.927V532.076Z" stroke="#919DFF" stroke-miterlimit="10"/>
<path d="M611.016 532.076C611.016 536.284 607.461 539.699 603.08 539.699H603.041C598.658 539.699 595.105 536.284 595.105 532.076V521.927C595.105 517.716 598.658 514.301 603.041 514.301H603.08C607.461 514.301 611.016 517.716 611.016 521.927V532.076Z" stroke="#919DFF" stroke-miterlimit="10"/>
<path d="M896.053 532.076C896.053 536.284 892.498 539.699 888.117 539.699H888.08C883.697 539.699 880.145 536.284 880.145 532.076V521.927C880.145 517.716 883.697 514.301 888.08 514.301H888.117C892.498 514.301 896.053 517.716 896.053 521.927V532.076Z" stroke="#919DFF" stroke-miterlimit="10"/>
<path d="M8.38473 532.076C8.38473 536.284 4.83027 539.699 0.448846 539.699H0.412457C-3.97098 539.699 -7.52344 536.284 -7.52344 532.076V521.927C-7.52344 517.716 -3.97098 514.301 0.412457 514.301H0.448846C4.83027 514.301 8.38473 517.716 8.38473 521.927V532.076Z" stroke="#919DFF" stroke-miterlimit="10"/>
</g>
</svg>
