<svg width="501" height="336" viewBox="0 0 501 336" fill="none" xmlns="http://www.w3.org/2000/svg">
<path d="M25.5951 335.163H470.372C482.57 332.01 516.264 301.914 491.822 238.679C470.372 183.185 416.746 174.355 419.901 137.779C423.055 101.203 431.888 82.7549 407.283 55.7982C382.679 28.8415 289.307 -16.7215 213.6 51.3839C180.16 81.4662 124.644 34.9877 88.6838 69.6718C64.0791 93.4031 97.5861 122.013 47.0443 161.743C-26.0232 219.178 3.30364 296.485 25.5951 335.163Z" fill="#EAF3FA" stroke="#EAF3FA"/>
<path d="M295.216 164.17C293.846 160.954 292.971 157.154 294.169 153.731C295.245 150.658 297.755 148.51 300.013 146.337C305.808 140.765 310.899 133.258 311.061 124.915C311.315 111.847 299.566 100.819 302.458 88.0226C303.154 84.9398 304.664 82.1418 305.926 79.2656C308.283 73.8926 309.832 67.845 308.863 62.1155C307.894 56.386 302.462 50.8912 297.225 50.3554C292.171 48.8845 285.073 51.9356 282.022 56.8813C278.971 61.8269 278.134 68.0133 278.3 73.8786C278.39 77.0182 278.737 80.1786 278.224 83.2969C276.097 96.243 261.065 102.049 256.391 114.254C253.407 122.048 255.305 130.917 258.582 138.259C259.859 141.119 261.378 144.054 261.22 147.307C261.045 150.928 258.807 154.121 256.329 156.587C253.852 159.053 251.013 161.107 248.902 163.963C245.704 168.292 244.516 174.147 245.081 179.568C245.645 184.989 247.832 190.004 250.698 194.329C254.578 200.183 280.458 205.229 286.253 201.261C290.534 198.33 294.444 194.505 297.004 189.693C299.564 184.881 300.663 179.01 299.325 173.795C298.445 170.356 296.586 167.386 295.216 164.17Z" fill="#D9E7FF"/>
<path d="M296.048 61.3694C294.85 66.7358 293.515 72.0571 292.17 77.374L291.152 81.3588L290.111 85.3369C289.424 87.9909 288.702 90.6354 287.951 93.2724L285.632 101.169L284.491 105.123C284.125 106.445 283.773 107.771 283.429 109.098C282.066 114.412 280.935 119.783 279.938 125.178L277 141.359C276.748 142.705 276.526 144.056 276.294 145.405C276.064 146.755 275.827 148.104 275.618 149.456C275.411 150.809 275.175 152.156 274.951 153.506L274.31 157.56C273.44 162.961 272.659 168.372 271.99 173.799C271.315 179.227 270.837 184.674 270.679 190.162C270.678 190.219 270.631 190.265 270.574 190.263C270.522 190.263 270.479 190.221 270.474 190.17C269.945 184.686 270.043 179.15 270.374 173.653C270.717 168.151 271.361 162.677 272.138 157.227C272.936 151.78 274 146.381 275.097 140.994C276.17 135.602 277.469 130.258 278.836 124.936L279.849 120.943C280.202 119.615 280.538 118.284 280.863 116.951C281.528 114.287 282.158 111.616 282.78 108.942C283.39 106.266 283.958 103.579 284.521 100.889C285.102 98.2041 285.677 95.5168 286.293 92.8399C286.925 90.1674 287.606 87.506 288.35 84.8623C289.079 82.2149 289.836 79.5749 290.633 76.946C292.228 71.6903 293.899 66.4546 295.852 61.3089C295.872 61.2557 295.932 61.2284 295.985 61.2491C296.032 61.2683 296.059 61.32 296.048 61.3694Z" fill="#9AAFFF"/>
<path d="M338.767 173.946C338.335 170.122 338.609 165.839 340.95 162.607C343.053 159.704 346.377 158.228 349.443 156.648C357.31 152.596 365.044 146.282 367.842 137.532C372.226 123.829 363.306 108.497 370.386 95.9106C372.091 92.8787 374.565 90.4032 376.802 87.7662C380.981 82.8412 384.519 76.9508 385.3 70.6021C386.083 64.2533 382.083 56.7481 376.729 54.5332C371.86 51.3906 363.413 52.3729 358.638 56.6293C353.862 60.8849 351.032 67.1465 349.36 73.3853C348.466 76.7249 347.837 80.1672 346.314 83.2951C339.994 96.2796 322.311 97.6693 313.537 109.072C307.935 116.352 307.144 126.305 308.288 135.08C308.733 138.5 309.411 142.073 308.221 145.454C306.896 149.219 303.529 151.882 300.14 153.703C296.75 155.524 293.109 156.796 289.983 159.144C285.246 162.703 282.15 168.505 281.038 174.4C279.927 180.296 280.654 186.273 282.315 191.738C284.564 199.134 310.272 212.606 317.633 210.246C323.072 208.503 328.4 205.699 332.616 201.43C336.832 197.162 339.84 191.314 340.071 185.393C340.224 181.488 339.199 177.769 338.767 173.946Z" fill="#9AAFFF"/>
<path d="M372.021 65.7748C369.068 71.0578 365.984 76.25 362.891 81.4348L360.561 85.3169L358.211 89.185C356.651 91.7675 355.056 94.3293 353.434 96.8748L348.501 104.473L346.052 108.285C345.248 109.563 344.461 110.851 343.679 112.143C340.569 117.319 337.684 122.627 334.934 128.004L326.74 144.146C326.051 145.486 325.391 146.842 324.721 148.191C324.053 149.541 323.378 150.889 322.733 152.251C322.089 153.612 321.415 154.959 320.753 156.312L318.801 160.386C316.182 165.808 313.655 171.27 311.24 176.783C308.818 182.295 306.598 187.891 304.704 193.629C304.685 193.689 304.621 193.722 304.561 193.703C304.506 193.685 304.474 193.628 304.484 193.573C305.654 187.622 307.501 181.813 309.581 176.119C311.676 170.425 314.08 164.854 316.614 159.35C319.171 153.855 321.994 148.496 324.848 143.16C327.678 137.81 330.73 132.583 333.848 127.401L336.174 123.507C336.965 122.218 337.738 120.921 338.501 119.616C340.041 117.016 341.547 114.398 343.045 111.773C344.531 109.143 345.976 106.487 347.417 103.828C348.875 101.179 350.327 98.5258 351.821 95.8961C353.33 93.2761 354.885 90.684 356.503 88.1304C358.105 85.5671 359.736 83.0216 361.404 80.4997C364.741 75.458 368.152 70.4629 371.833 65.6501C371.871 65.5999 371.942 65.591 371.992 65.6287C372.037 65.6634 372.049 65.7261 372.021 65.7748Z" fill="white"/>
<path d="M413.566 329.773H96.4473C94.9099 329.773 93.6641 331.02 93.6641 332.557C93.6641 334.094 94.9099 335.341 96.4473 335.341H413.566C415.104 335.341 416.35 334.094 416.35 332.557C416.35 331.02 415.104 329.773 413.566 329.773Z" fill="#9AAFFF"/>
<path d="M360.085 71.692C371.448 69.8832 379.204 59.268 377.407 47.9822C375.611 36.6965 364.943 29.0138 353.579 30.8226C342.216 32.6314 334.46 43.2466 336.257 54.5323C338.053 65.8181 348.721 73.5007 360.085 71.692Z" fill="#7BD1C0"/>
<path opacity="0.9" d="M344.048 50.5411C346.104 54.1214 351.549 57.8279 351.549 57.8279C351.549 57.8279 356.869 61.7115 360.951 62.4591C365.033 63.2068 370.783 59.2375 370.482 57.4603C370.181 55.6831 363.225 52.7774 362.274 52.9383C361.322 53.0992 360.044 55.4941 358.679 55.0646C357.314 54.6343 354.948 53.077 354.948 53.077C354.948 53.077 352.687 51.3736 351.828 50.2355C350.969 49.0974 352.826 47.1106 352.665 46.1652C352.505 45.2197 347.45 39.6585 345.661 39.9611C343.871 40.2637 341.992 46.9608 344.048 50.5411Z" fill="white"/>
<path d="M114.623 96.1821C126.842 94.2359 135.181 82.82 133.248 70.684C131.315 58.548 119.842 50.2876 107.623 52.2339C95.4038 54.1801 87.065 65.596 88.998 77.7319C90.9309 89.8679 102.404 98.1283 114.623 96.1821Z" fill="#85AFD6"/>
<path d="M123.936 69.3532H115.969V61.3867H106.27V69.3532H98.3027V79.0527H106.27V87.0192H115.969V79.0527H123.936V69.3532Z" fill="white"/>
<path d="M285.139 276.512H230.19V323.918H285.139V276.512Z" fill="#9AAFFF"/>
<path d="M370.794 113.82H144.535C138.585 113.82 133.761 118.644 133.761 124.594V276.511C133.761 282.461 138.585 287.285 144.535 287.285H370.795C376.745 287.285 381.569 282.461 381.569 276.511V124.594C381.569 118.644 376.745 113.82 370.794 113.82Z" fill="#5092CF"/>
<path d="M133.761 261.43V276.514C133.761 282.464 138.585 287.288 144.535 287.288H370.795C376.745 287.288 381.569 282.464 381.569 276.514V261.43H133.761Z" fill="white"/>
<path d="M372.948 121.363H142.379V252.809H372.948V121.363Z" fill="#8561A6"/>
<path d="M340.285 121.363H175.045V252.809H340.285V121.363Z" fill="#826799"/>
<path d="M318.538 321.766H196.789C194.111 321.766 191.94 323.936 191.94 326.614C191.94 329.292 194.111 331.462 196.789 331.462H318.538C321.215 331.462 323.386 329.292 323.386 326.614C323.386 323.936 321.215 321.766 318.538 321.766Z" fill="white"/>
<path d="M268.853 158.135C269.018 150.83 269.488 143.789 269.488 143.789L244.575 145.543C244.575 145.543 244.751 152.429 244.62 159.617C244.49 166.787 235.468 172.328 235.468 172.328C240.38 179.771 256.194 180.803 256.194 180.803C256.194 180.803 272.414 178.23 277.897 170.073C277.897 170.073 268.687 165.421 268.853 158.135Z" fill="#E6AFAA"/>
<path opacity="0.5" d="M268.851 158.135C269.017 150.83 269.487 143.789 269.487 143.789L244.574 145.543C244.574 145.543 244.749 152.429 244.619 159.617C244.566 162.496 243.073 165.118 241.309 167.221C255.196 167.466 263.722 163.132 268.856 158.426C268.855 158.329 268.849 158.233 268.851 158.135Z" fill="#EAB9B3"/>
<path d="M299.004 252.807L301.347 171.374L275.923 166.078L256.224 179.336L237.502 168.222L213.824 175.885L212.863 252.807H299.004Z" fill="#9AAFFF"/>
<path d="M258.964 186.548L261.948 182.677L256.223 179.336L250.393 183.203L253.192 186.797L246.576 241.371L254.801 249.024L263.433 241.244L258.964 186.548Z" fill="#D14C53"/>
<path d="M302.932 252.807L305.325 171.732L275.921 166.078C271.095 196.25 255.045 237.051 255.045 237.051C255.045 237.051 240.933 197.351 237.5 168.221L210.267 176.597L209.366 252.807H302.932Z" fill="white"/>
<path d="M223.234 209.327L251.477 252.809H252.4L234.607 169.113L220.893 197.102L227.421 201.771L223.234 209.327Z" fill="#ECEBED"/>
<path d="M257.983 252.808L289.453 207.41L285.235 199.811L292.552 194.439L278.943 166.66L257.054 252.808H257.983Z" fill="#ECEBED"/>
<path d="M237.5 168.223L240.956 163.812L256.222 179.337L245.542 189.114L237.5 168.223Z" fill="#6585EA"/>
<path d="M275.922 166.078L272.483 161.965L256.223 179.336L266.668 188.23L275.922 166.078Z" fill="#6585EA"/>
<path d="M232.676 201.753L225.963 208.345L251.63 252.807H257.829L286.529 206.554L279.604 200.167C279.604 200.167 288.239 195.754 288.973 195.04C289.581 194.447 281.671 173.735 278.944 166.659L275.923 166.078C271.096 196.25 255.046 237.051 255.046 237.051C255.046 237.051 240.935 197.351 237.501 168.221L234.609 169.111C231.762 176.264 223.615 196.902 224.151 197.428C224.799 198.065 232.676 201.753 232.676 201.753Z" fill="white"/>
<path d="M209.366 252.804L210.268 176.594C210.268 176.594 208.987 178.043 202.903 194.899C197.731 209.225 191.948 243.633 190.459 252.803H209.366V252.804Z" fill="white"/>
<path d="M324.867 252.81C323.523 242.819 318.293 205.672 312.93 190.605C306.713 173.137 305.324 171.734 305.324 171.734L302.932 252.81H324.867Z" fill="white"/>
<path d="M229.421 252.81C210.391 230.364 210.216 182.657 210.261 177.129L209.366 252.81H229.421Z" fill="#ECEBED"/>
<path d="M313.163 252.81C312.086 232.064 309.368 187.287 305.326 171.734L302.934 252.81H313.163Z" fill="#ECEBED"/>
<path d="M271.568 146.195C271.568 146.195 276.831 141.526 277.917 130.943C279.003 120.36 269.895 105.997 260.323 103.159C250.751 100.321 240.842 103.127 237.109 104.942C233.376 106.758 229.316 111.135 229.19 117.018C229.065 122.901 232.95 130.967 233.199 134.379C233.448 137.792 234.079 148.03 247.064 150.619C260.048 153.208 266.797 150.214 271.568 146.195Z" fill="#212B54"/>
<path d="M271.347 144.41C271.347 144.41 274.344 148.461 261.168 158.052C247.991 167.642 241.465 161.074 238.746 156.958C236.027 152.842 231.75 141.713 232.118 135.557C232.486 129.401 232.692 125.955 232.914 122.261C233.134 118.567 236.634 109.633 245.837 104.5C255.04 99.367 269.86 111.867 271.999 117.432C274.137 122.996 273.028 131.353 273.028 131.353C273.028 131.353 277.192 125.557 280.054 131.412C282.917 137.267 271.347 144.41 271.347 144.41Z" fill="#EAB9B3"/>
<path opacity="0.5" d="M244.813 133.734C244.813 133.734 240.751 143.28 241.36 144.092C241.97 144.905 245.828 145.413 245.828 145.413C245.828 145.413 243.594 144.803 244.102 140.133C244.61 135.461 244.813 133.734 244.813 133.734Z" fill="#EAB9B3"/>
<path d="M243.305 150.687L253.865 148.961C253.865 148.961 251.327 154.749 247.976 154.038C244.625 153.327 243.305 150.687 243.305 150.687Z" fill="#D14C53"/>
<path d="M246.433 151.576C247.693 151.441 251.277 150.861 253.175 150.278C253.617 149.525 253.864 148.961 253.864 148.961L244.372 150.512C244.654 150.971 245.288 151.698 246.433 151.576Z" fill="white"/>
<path d="M253.14 134.647C254.174 134.647 255.012 133.809 255.012 132.775C255.012 131.741 254.174 130.902 253.14 130.902C252.106 130.902 251.268 131.741 251.268 132.775C251.268 133.809 252.106 134.647 253.14 134.647Z" fill="#2A356B"/>
<path d="M236.206 134.647C237.241 134.647 238.079 133.809 238.079 132.775C238.079 131.741 237.241 130.902 236.206 130.902C235.172 130.902 234.334 131.741 234.334 132.775C234.334 133.809 235.172 134.647 236.206 134.647Z" fill="#2A356B"/>
<path d="M253.646 125.53C250.126 125.634 247.308 128.423 247.092 131.872C245.756 131.292 244.585 131.641 243.925 131.964C243.507 128.534 240.529 125.917 237.009 126.021C233.278 126.131 230.332 129.257 230.442 132.988C230.552 136.72 233.677 139.666 237.409 139.556C241.069 139.448 243.966 136.436 243.972 132.799C244.372 132.538 245.618 131.893 247.097 132.718C247.322 136.343 250.39 139.172 254.046 139.065C257.777 138.955 260.723 135.829 260.613 132.097C260.502 128.367 257.377 125.42 253.646 125.53ZM237.387 138.799C234.074 138.897 231.298 136.281 231.2 132.967C231.103 129.653 233.719 126.877 237.032 126.78C240.346 126.682 243.121 129.299 243.219 132.612C243.316 135.926 240.7 138.701 237.387 138.799ZM254.023 138.307C250.709 138.406 247.934 135.789 247.837 132.475C247.739 129.162 250.355 126.386 253.668 126.288C256.982 126.19 259.757 128.807 259.855 132.12C259.953 135.434 257.336 138.21 254.023 138.307Z" fill="white"/>
<path opacity="0.43" d="M237.031 126.784C233.718 126.881 231.102 129.657 231.2 132.971C231.298 136.285 234.073 138.901 237.386 138.803C240.699 138.705 243.316 135.93 243.218 132.616C243.12 129.303 240.344 126.686 237.031 126.784Z" fill="white"/>
<g opacity="0.43">
<path d="M236.538 126.82C235.671 126.917 234.86 127.196 234.146 127.62L241.076 137.385C241.589 136.952 242.027 136.436 242.371 135.857C240.68 133.206 238.342 129.597 236.538 126.82Z" fill="white"/>
<path d="M238.123 138.728C238.742 138.633 239.327 138.443 239.867 138.175L232.742 128.777C232.239 129.337 231.84 129.988 231.573 130.704L238.123 138.728Z" fill="white"/>
</g>
<path opacity="0.43" d="M259.853 132.124C259.755 128.81 256.98 126.194 253.667 126.292C250.354 126.39 247.738 129.165 247.836 132.479C247.934 135.793 250.709 138.409 254.022 138.311C257.335 138.213 259.952 135.438 259.853 132.124Z" fill="white"/>
<g opacity="0.43">
<path d="M253.141 126.336C252.251 126.44 251.424 126.74 250.697 127.188L257.633 136.96C258.174 136.518 258.637 135.987 258.998 135.385C257.084 132.404 254.718 128.76 253.141 126.336Z" fill="white"/>
<path d="M254.503 138.277C255.161 138.204 255.787 138.03 256.362 137.764L249.273 128.414C248.765 129.01 248.372 129.705 248.127 130.466L254.503 138.277Z" fill="white"/>
</g>
<path d="M272.914 131.42C272.847 131.624 272.575 131.78 272.416 131.894C272.206 132.043 272.059 132.031 271.807 132.031C271.328 132.031 270.85 132.031 270.371 132.031C269.307 132.031 268.243 132.031 267.18 132.031C265.306 132.031 263.432 132.031 261.558 132.031C261.49 132.031 260.228 132.031 260.228 132.031C260.228 132.029 260.228 131.255 260.228 131.255C261.179 131.255 262.13 131.255 263.082 131.255C265.047 131.255 267.012 131.255 268.979 131.255C269.804 131.255 270.63 131.255 271.456 131.255C271.814 131.255 272.172 131.255 272.53 131.255C272.681 131.255 272.969 131.193 272.923 131.391C272.92 131.401 272.917 131.411 272.914 131.42Z" fill="white"/>
<path d="M234.315 109.981C234.315 109.981 234.669 115.439 243.324 118.449C251.979 121.459 259.428 121.904 259.428 121.904C259.428 121.904 259.438 125.529 263.578 128.269C267.719 131.009 267.138 140.715 269.278 139.03C271.417 137.346 271.955 132.372 273.621 130.894C275.525 129.205 277.919 128.424 280.057 131.41C280.057 131.41 288.599 115.159 274.928 105.16C263.788 97.0124 260.012 94.7414 247.954 95.6057C237.106 96.3843 234.315 109.981 234.315 109.981Z" fill="#2A356B"/>
<path d="M248.626 123.644C249.005 123.232 249.436 122.96 249.883 122.747C250.329 122.525 250.795 122.378 251.271 122.288C252.228 122.072 253.206 122.381 254.146 122.593C255.093 122.812 256.018 123.15 256.864 123.625C257.692 124.143 258.437 124.774 258.981 125.534L258.824 125.691C258.055 125.207 257.271 124.846 256.44 124.647C255.606 124.458 254.767 124.37 253.925 124.35C253.073 124.338 252.239 124.621 251.395 124.499C250.54 124.404 249.673 124.261 248.68 123.86L248.626 123.644Z" fill="#2A356B"/>
<path d="M241.888 123.784C240.9 124.199 240.035 124.354 239.182 124.461C238.339 124.595 237.502 124.323 236.65 124.347C235.809 124.379 234.971 124.478 234.14 124.678C233.312 124.889 232.532 125.261 231.77 125.754L231.611 125.6C232.145 124.833 232.88 124.192 233.701 123.662C234.541 123.176 235.461 122.824 236.405 122.593C237.342 122.367 238.315 122.045 239.275 122.248C239.752 122.331 240.221 122.471 240.669 122.688C241.119 122.894 241.553 123.16 241.938 123.568L241.888 123.784Z" fill="#2A356B"/>
<path opacity="0.5" d="M269.278 139.037C271.418 137.353 271.956 132.379 273.622 130.901C275.525 129.212 277.919 128.43 280.058 131.416C280.058 131.416 280.835 129.932 281.545 127.591C279.58 126.081 278.231 123.226 276.862 122.187C274.781 120.608 273.24 124.318 268.089 123.344C262.939 122.369 269.489 109.78 269.489 109.78C269.489 109.78 268.641 111.256 263.435 114.094C251.404 117.71 240.111 110.239 235.422 106.484C234.623 108.499 234.315 109.986 234.315 109.986C234.315 109.986 234.669 115.444 243.324 118.453C251.979 121.463 259.428 121.908 259.428 121.908C259.428 121.908 259.438 125.533 263.578 128.273C267.72 131.014 267.139 140.721 269.278 139.037Z" fill="#2A356B"/>
<path d="M400.604 99.582H337.246C335.104 99.582 333.367 101.319 333.367 103.461V197.088C333.367 199.231 335.104 200.967 337.246 200.967H400.604C402.747 200.967 404.484 199.231 404.484 197.088V103.461C404.484 101.319 402.747 99.582 400.604 99.582Z" fill="white"/>
<path d="M397.672 143.684H340.628V145.911H397.672V143.684Z" fill="#C5D6FA"/>
<path d="M397.672 151.086H340.628V153.313H397.672V151.086Z" fill="#C5D6FA"/>
<path d="M397.672 158.48H340.628V160.708H397.672V158.48Z" fill="#C5D6FA"/>
<path d="M397.672 165.879H340.628V168.106H397.672V165.879Z" fill="#C5D6FA"/>
<path d="M397.675 114.094H376.401V116.321H397.675V114.094Z" fill="#C5D6FA"/>
<path d="M397.675 121.492H376.401V123.72H397.675V121.492Z" fill="#C5D6FA"/>
<path d="M397.675 128.891H376.401V131.118H397.675V128.891Z" fill="#C5D6FA"/>
<path d="M397.675 136.285H376.401V138.513H397.675V136.285Z" fill="#C5D6FA"/>
<path d="M397.672 173.277H340.628V175.505H397.672V173.277Z" fill="#C5D6FA"/>
<path d="M397.672 180.676H340.628V182.903H397.672V180.676Z" fill="#C5D6FA"/>
<path d="M369.15 188.074H340.628V190.302H369.15V188.074Z" fill="#C5D6FA"/>
<path d="M372.412 108.168H340.628V138.515H372.412V108.168Z" fill="#C5D6FA"/>
<path d="M279.146 43.6326C290.378 41.8448 298.044 31.3523 296.268 20.1969C294.492 9.04161 283.948 1.44772 272.716 3.23554C261.484 5.02335 253.818 15.5158 255.594 26.6712C257.37 37.8265 267.914 45.4204 279.146 43.6326Z" fill="#ECAC25"/>
<path d="M275.554 14.1367C268.349 14.1367 262.508 17.886 262.508 22.5114C262.508 24.9233 264.106 27.091 266.648 28.6195L264.44 34.7512L269.321 29.8698C271.173 30.517 273.296 30.8861 275.553 30.8861C282.758 30.8861 288.599 27.1368 288.599 22.5114C288.599 17.886 282.758 14.1367 275.554 14.1367Z" fill="white"/>
<path d="M361.565 306.12C361.565 306.12 355.096 302.886 362.284 291.024C369.473 279.163 382.053 271.615 384.569 260.113C384.569 260.113 385.647 270.537 380.615 282.757C375.583 294.978 363.722 298.932 361.565 306.12Z" fill="#7BD1C0"/>
<path d="M352.519 306.12C352.519 306.12 358.988 302.886 351.8 291.024C344.611 279.163 332.031 271.615 329.515 260.113C329.515 260.113 328.437 270.537 333.469 282.757C338.501 294.978 350.362 298.932 352.519 306.12Z" fill="#7BD1C0"/>
<path d="M354.202 306.577C354.202 306.577 361.31 303.646 356.961 287.375C352.611 271.104 341.967 259.318 342.133 244.336C342.133 244.336 338.679 257.312 340.824 273.652C342.969 289.992 353.731 297.108 354.202 306.577Z" fill="#6AB5AA"/>
<path d="M360.184 306.577C360.184 306.577 353.076 303.646 357.426 287.375C361.775 271.104 372.419 259.318 372.253 244.336C372.253 244.336 375.707 257.312 373.562 273.652C371.418 289.992 360.656 297.108 360.184 306.577Z" fill="#6AB5AA"/>
<path d="M356.63 305.713C356.63 305.713 352.619 295.018 351.579 279.42C350.54 263.822 353.214 248.671 353.808 240.203C354.402 231.735 354.402 229.656 354.402 229.656C354.402 229.656 357.372 238.866 359.75 250.453C362.126 262.04 364.652 274.072 363.76 286.253C362.869 298.435 356.63 305.713 356.63 305.713Z" fill="#7BD1C0"/>
<path d="M370.492 303.738H343.151C343.151 303.738 342.782 312.605 344.26 321.842C345.738 331.079 349.432 331.817 349.432 331.817H356.822H364.211C364.211 331.817 367.906 331.079 369.383 321.842C370.862 312.605 370.492 303.738 370.492 303.738Z" fill="#243355"/>
<path opacity="0.5" d="M360.554 328.295H353.164C353.164 328.295 349.47 327.556 347.992 318.319C347.089 312.672 346.876 307.167 346.847 303.738H343.151C343.151 303.738 342.782 312.605 344.26 321.842C345.737 331.079 349.432 331.817 349.432 331.817H356.821H364.211C364.211 331.817 365.94 331.47 367.506 328.295H360.554Z" fill="#243355"/>
<path d="M393.685 316.515C393.685 316.515 389.832 314.589 394.113 307.527C398.394 300.464 405.884 295.969 407.382 289.121C407.382 289.121 408.025 295.327 405.028 302.605C402.032 309.882 394.969 312.235 393.685 316.515Z" fill="#7BD1C0"/>
<path d="M388.296 316.515C388.296 316.515 392.149 314.589 387.868 307.527C383.588 300.464 376.097 295.969 374.599 289.121C374.599 289.121 373.957 295.327 376.953 302.605C379.95 309.881 387.012 312.235 388.296 316.515Z" fill="#7BD1C0"/>
<path d="M389.301 316.787C389.301 316.787 393.534 315.042 390.944 305.354C388.354 295.666 382.016 288.647 382.115 279.727C382.115 279.727 380.058 287.453 381.335 297.183C382.612 306.913 389.021 311.15 389.301 316.787Z" fill="#6AB5AA"/>
<path d="M392.863 316.787C392.863 316.787 388.63 315.042 391.22 305.354C393.81 295.666 400.147 288.647 400.049 279.727C400.049 279.727 402.106 287.453 400.829 297.183C399.552 306.913 393.143 311.15 392.863 316.787Z" fill="#6AB5AA"/>
<path d="M390.746 316.272C390.746 316.272 388.357 309.903 387.738 300.616C387.119 291.328 388.711 282.306 389.065 277.264C389.419 272.223 389.419 270.984 389.419 270.984C389.419 270.984 391.188 276.468 392.603 283.368C394.019 290.267 395.522 297.432 394.992 304.685C394.46 311.938 390.746 316.272 390.746 316.272Z" fill="#7BD1C0"/>
<path d="M399 315.098H382.72C382.72 315.098 382.5 320.378 383.38 325.878C384.259 331.378 386.459 331.817 386.459 331.817H390.859H395.259C395.259 331.817 397.459 331.378 398.339 325.878C399.22 320.378 399 315.098 399 315.098Z" fill="#243355"/>
<path opacity="0.5" d="M393.083 329.312H388.684C388.684 329.312 386.484 328.872 385.604 323.372C385.1 320.223 384.957 317.152 384.927 315.098H382.722C382.722 315.098 382.502 320.378 383.382 325.878C384.261 331.378 386.461 331.817 386.461 331.817H390.861H395.261C395.261 331.817 396.431 331.573 397.406 329.312H393.083Z" fill="#243355"/>
<path d="M111.5 306.094C111.5 306.094 108.251 290.028 96.7334 290.02C85.2161 290.011 87.3358 301.88 95.4581 300.817C103.58 299.754 108.911 307.198 108.911 307.198L111.5 306.094Z" fill="#6AB5AA"/>
<path d="M111.115 306.491C111.115 306.491 111.634 298.735 120.307 293.925C128.98 289.116 138.584 292.72 137.706 299.064C136.829 305.409 127.428 299.151 121.407 301.416C115.386 303.681 113.321 308.239 113.321 308.239L111.115 306.491Z" fill="#6AB5AA"/>
<path d="M111.996 306.148C111.996 306.148 111.888 293.072 118.29 282.151C124.693 271.229 137.691 274.599 137.04 281.678C136.391 288.759 124.404 286.08 121.263 292.836C118.122 299.592 116.115 307.535 116.115 307.535L111.996 306.148Z" fill="#7BD1C0"/>
<path d="M113.933 306.178C113.933 306.178 117.492 286.736 104.768 279.337C92.0429 271.938 89.949 283.122 94.9397 287.331C99.9304 291.54 105.548 292.822 107.638 298.781C109.727 304.74 110.04 307.562 110.04 307.562L113.933 306.178Z" fill="#7BD1C0"/>
<path d="M109.885 294.944C110.246 283.337 101.925 280.7 109.024 269.086C114.643 259.892 119.916 269.35 119.652 280.242C119.388 291.134 113.643 306.625 113.643 306.625C113.643 306.625 110.62 307.429 110.749 306.475C110.878 305.521 109.743 299.521 109.885 294.944Z" fill="#6AB5AA"/>
<path d="M125.55 303.738H98.2101C98.2101 303.738 97.8403 312.605 99.3186 321.842C100.796 331.079 104.491 331.817 104.491 331.817H111.88H119.27C119.27 331.817 122.964 331.079 124.442 321.842C125.92 312.605 125.55 303.738 125.55 303.738Z" fill="#243355"/>
<path opacity="0.5" d="M117.126 326.853H109.736C109.736 326.853 106.042 326.114 104.564 316.877C103.779 311.968 103.515 307.163 103.44 303.738H98.211C98.211 303.738 97.8413 312.605 99.3196 321.842C100.797 331.079 104.492 331.817 104.492 331.817H111.881H119.271C119.271 331.817 121.496 331.369 123.183 326.853H117.126Z" fill="#243355"/>
<path d="M120.1 199.832H87.8727C86.0933 199.832 84.6504 198.389 84.6504 196.61V151.883C84.6504 150.103 86.0933 148.66 87.8727 148.66H120.1C121.879 148.66 123.322 150.103 123.322 151.883V196.61C123.322 198.389 121.879 199.832 120.1 199.832Z" fill="#9AAFFF"/>
<path d="M92.8031 155.496H88.752V159.547H92.8031V155.496Z" fill="white"/>
<path d="M119.221 155.496H95.9727V159.547H119.221V155.496Z" fill="white"/>
<path d="M92.8031 166.043H88.752V170.093H92.8031V166.043Z" fill="white"/>
<path d="M119.221 166.043H95.9727V170.093H119.221V166.043Z" fill="white"/>
<path d="M92.8031 176.594H88.752V180.645H92.8031V176.594Z" fill="white"/>
<path d="M119.221 176.594H95.9727V180.645H119.221V176.594Z" fill="white"/>
<path d="M92.8031 187.137H88.752V191.188H92.8031V187.137Z" fill="white"/>
<path d="M119.221 187.137H95.9727V191.188H119.221V187.137Z" fill="white"/>
<path d="M166.065 43.8906H237.24C241.539 43.8906 245.025 47.3757 245.025 51.6756V82.8147C245.025 87.1139 241.54 90.5997 237.24 90.5997H172.606L166.064 104.501V90.5997C161.765 90.5997 158.279 87.1146 158.279 82.8147V51.6756C158.281 47.3757 161.766 43.8906 166.065 43.8906Z" fill="white"/>
<path d="M201.652 78.9227C204.261 78.9227 206.377 76.8072 206.377 74.1977C206.377 71.5881 204.261 69.4727 201.652 69.4727C199.042 69.4727 196.927 71.5881 196.927 74.1977C196.927 76.8072 199.042 78.9227 201.652 78.9227Z" fill="#C2D6FF"/>
<path d="M230.714 74.1977C230.714 76.8074 228.598 78.9227 225.989 78.9227C223.379 78.9227 221.264 76.8074 221.264 74.1977C221.264 71.5879 223.379 69.4727 225.989 69.4727C228.598 69.4727 230.714 71.5879 230.714 74.1977Z" fill="#C2D6FF"/>
<path d="M177.315 78.9227C179.924 78.9227 182.04 76.8072 182.04 74.1977C182.04 71.5881 179.924 69.4727 177.315 69.4727C174.705 69.4727 172.59 71.5881 172.59 74.1977C172.59 76.8072 174.705 78.9227 177.315 78.9227Z" fill="#C2D6FF"/>
<path d="M170.065 151.285C170.065 151.285 176.934 159.902 178.433 160.027C179.932 160.152 196.417 147.351 197.166 146.227C197.915 145.103 200.538 137.672 201.412 138.671C202.286 139.67 200.538 142.792 201.287 143.167C202.036 143.542 205.408 141.668 206.532 140.545C207.657 139.421 211.029 134.987 210.466 138.921C209.904 142.855 206.907 146.039 202.224 148.288C197.54 150.536 184.801 169.644 178.245 168.707C171.689 167.771 164.599 156.688 164.599 156.688L170.065 151.285Z" fill="#EAB9B3"/>
<path d="M209.263 142.359C206.892 144.183 204.163 145.624 201.594 146.956C197.07 149.301 184.168 164.215 180.147 165.722C176.126 167.23 171.099 162.203 170.093 159.523C169.398 157.669 170.786 154.855 171.708 153.294C170.738 152.13 170.065 151.287 170.065 151.287L164.599 156.689C164.599 156.689 171.688 167.772 178.245 168.709C184.802 169.645 197.541 150.537 202.224 148.289C205.456 146.737 207.883 144.74 209.263 142.359Z" fill="#ECEBED"/>
<path d="M159.459 136.281C159.459 136.281 161.708 136.201 164.762 140.219C167.816 144.237 171.191 151.388 171.191 151.388L165.084 159.021C165.084 159.021 157.37 149.701 156.245 143.593C155.119 137.487 159.459 136.281 159.459 136.281Z" fill="#6AB5AA"/>
<path d="M175.449 245.061C175.449 245.061 175.449 252.181 174.093 259.301C172.737 266.421 167.312 282.453 165.617 291.947C163.921 301.44 161.887 320.924 163.243 323.298C164.6 325.671 175.449 328.723 173.415 330.079C171.381 331.435 156.463 328.723 156.463 328.723C156.463 328.723 154.429 291.947 156.124 282.453C157.819 272.96 158.836 265.742 158.836 257.605C158.836 249.468 158.836 244.043 158.836 244.043L175.449 245.061Z" fill="#EAB9B3"/>
<path d="M158.836 257.605C158.836 265.742 157.819 272.96 156.124 282.453C154.429 291.946 156.463 328.722 156.463 328.722C156.463 328.722 158.1 329.019 160.36 329.368C160.131 325.004 158.841 315.355 158.451 309.304C157.943 301.439 158.197 287.67 160.734 277.014C163.272 266.358 162.257 263.984 164.541 256.625C166.222 251.207 172.165 250.742 175.183 250.874C175.449 247.465 175.45 245.06 175.45 245.06L158.836 244.043C158.836 244.043 158.836 249.467 158.836 257.605Z" fill="#DBA9A7"/>
<path d="M156.463 244.383C156.463 244.383 156.463 260.658 153.751 267.778C151.039 274.898 145.521 283.66 142.47 296.206C139.419 308.751 134.93 320.856 138.66 323.568C142.389 326.281 151.717 329.741 148.327 330.418C144.936 331.096 131.375 330.757 130.697 328.723C130.018 326.689 132.392 286.184 137.478 270.587C142.564 254.991 140.19 244.722 140.19 244.722L156.463 244.383Z" fill="#EAB9B3"/>
<path d="M137.476 270.587C132.39 286.184 130.017 326.689 130.694 328.723C130.967 329.539 133.314 330.082 136.245 330.396C135.416 329.014 134.711 327.622 134.347 326.305C132.317 318.947 134.347 296.805 138.914 283.866C143.481 270.925 144.242 264.492 147.033 257.388C149.143 252.019 154.004 251.287 156.254 251.25C156.462 247.325 156.463 244.383 156.463 244.383L140.188 244.722C140.188 244.722 142.562 254.991 137.476 270.587Z" fill="#DBA9A7"/>
<path d="M141.36 191.957L168.668 192.649C168.668 192.649 173.58 199.137 175.504 217.891C177.428 236.647 178.39 249.528 178.39 249.528H131.742C131.742 249.528 135.59 246.642 135.59 233.658C135.589 220.674 130.781 213.117 141.36 191.957Z" fill="#1D2B43"/>
<path d="M144.829 232.627C144.395 222.419 141.137 215.774 146.35 203.177C150.59 192.931 164.463 192.539 169.169 193.577C168.856 192.954 168.668 192.649 168.668 192.649L141.36 191.957C130.781 213.117 135.59 220.674 135.59 233.658C135.59 246.643 131.742 249.528 131.742 249.528H141.682C143.302 244.833 145.071 238.296 144.829 232.627Z" fill="#192536"/>
<path d="M165.956 110.104C165.956 110.104 169.689 111.52 169.818 116.283C169.947 121.046 166.343 122.977 166.343 128.512C166.343 134.048 168.403 136.623 168.274 141.257C168.145 145.891 166.471 150.912 162.223 151.942C157.975 152.971 147.161 146.921 143.814 132.76C140.467 118.599 147.289 109.717 152.825 107.4C158.361 105.084 165.956 110.104 165.956 110.104Z" fill="#212B54"/>
<path d="M141.361 191.958C141.361 191.958 143.579 183.496 139.51 174.002C135.441 164.509 133.068 146.2 137.476 140.775C141.883 135.351 152.734 134.334 157.819 135.351C162.905 136.368 170.363 150.269 169.008 156.033C167.652 161.797 163.922 164.848 164.6 171.291C165.278 177.732 168.669 192.651 168.669 192.651L141.361 191.958Z" fill="#7BD1C0"/>
<path d="M168.669 192.652C168.669 192.652 168.534 192.06 168.316 191.071C165.694 191.367 160.925 191.566 156.749 189.915C150.612 187.489 150.184 184.492 152.468 179.496C154.751 174.501 152.325 173.502 148.757 170.077C145.189 166.651 142.477 158.373 140.907 148.097C139.337 137.821 146.188 138.392 146.188 138.392C146.342 137.468 146.365 136.646 146.289 135.906C142.787 136.776 139.471 138.321 137.476 140.777C133.068 146.201 135.442 164.51 139.51 174.004C143.579 183.497 141.361 191.96 141.361 191.96L168.669 192.652Z" fill="#6AB5AA"/>
<path d="M148.828 125.355C148.828 125.355 148.495 129.914 148.421 136.124C148.421 136.124 157.698 146.611 159.715 145.199C161.731 143.787 156.286 137.737 156.891 135.317C157.496 132.897 158.1 129.67 158.1 129.67L148.828 125.355Z" fill="#EAB9B3"/>
<path d="M157.359 137.68C156.966 136.752 156.74 135.921 156.891 135.317C157.496 132.897 158.101 129.67 158.101 129.67L148.828 125.355C148.828 125.355 148.505 129.779 148.425 135.842C150.677 136.96 153.753 137.941 157.359 137.68Z" fill="#ECEBED"/>
<path d="M148.515 125.129C148.515 125.129 147.687 128.959 152.967 133.308C158.248 137.656 161.321 133.49 162.563 131.834C163.806 130.177 165.934 126.46 165.934 123.872C165.934 121.283 166.457 118.974 166.457 117.421C166.457 115.868 165.179 112.423 160.733 111.255C156.455 110.131 150.483 113.74 149.447 116.017C148.412 118.295 148.412 119.849 148.412 119.849C148.412 119.849 146.859 117.571 145.512 119.952C144.166 122.333 148.515 125.129 148.515 125.129Z" fill="#EAB9B3"/>
<path d="M161.492 123.859C161.492 123.859 163.138 127.728 162.891 128.058C162.644 128.387 161.08 128.593 161.08 128.593C161.08 128.593 161.986 128.346 161.78 126.453C161.574 124.559 161.492 123.859 161.492 123.859Z" fill="#ECEBED"/>
<path d="M160.597 129.835L156.846 129.023C156.846 129.023 157.982 131.094 159.172 130.759C160.363 130.424 160.597 129.835 160.597 129.835Z" fill="#D14C53"/>
<path d="M159.486 130.254C159.892 130.311 160.118 129.97 160.218 129.753L156.846 129.023C156.846 129.023 157.028 129.353 157.321 129.728C158.024 129.971 159.085 130.197 159.486 130.254Z" fill="white"/>
<path d="M164.879 123.552C164.879 123.979 164.533 124.326 164.105 124.326C163.678 124.326 163.331 123.979 163.331 123.552C163.331 123.123 163.678 122.777 164.105 122.777C164.533 122.777 164.879 123.123 164.879 123.552Z" fill="#212B54"/>
<path d="M158.574 122.067C158.574 122.495 158.227 122.841 157.8 122.841C157.372 122.841 157.025 122.495 157.025 122.067C157.025 121.64 157.372 121.293 157.8 121.293C158.227 121.292 158.574 121.639 158.574 122.067Z" fill="#212B54"/>
<path d="M163.346 120.199C163.346 120.199 165.012 119.173 166.149 120.367C167.287 121.561 166.949 122.341 166.949 122.341C166.949 122.341 166.186 120.908 164.822 120.932C163.46 120.956 163.269 120.894 163.346 120.199Z" fill="#212B54"/>
<path d="M159.968 119.723C159.968 119.723 158.61 117.844 156.898 118.292C155.185 118.738 155.223 119.64 155.223 119.64C155.223 119.64 156.635 118.765 158.083 119.557C159.531 120.348 159.762 120.399 159.968 119.723Z" fill="#212B54"/>
<path d="M160.838 117.907C162.97 117.302 164.812 116.955 166.392 116.751C166.083 115.035 164.618 112.275 160.733 111.255C156.455 110.131 150.483 113.74 149.447 116.017C148.412 118.295 148.412 119.849 148.412 119.849C148.412 119.849 146.859 117.571 145.512 119.952C144.166 122.334 148.515 125.129 148.515 125.129C148.515 125.129 148.117 127.007 149.682 129.623C149.694 129.609 149.709 129.597 149.72 129.583C149.72 129.583 152.61 120.243 160.838 117.907Z" fill="#ECEBED"/>
<path d="M167.551 109.296C167.551 109.296 168.599 114.456 161.171 116.345C153.742 118.234 150.963 123.843 149.83 129.132C148.697 134.42 154.611 136.136 155.722 142.696C156.695 148.435 154.457 156.638 152.568 156.261C150.679 155.883 152.316 151.351 148.413 145.81C144.51 140.27 141.236 138.13 138.592 139.766C135.948 141.403 135.193 149.083 135.193 149.083C135.193 149.083 133.556 145.306 134.312 138.633C135.067 131.959 139.253 125.754 139.379 121.347C139.505 116.94 139.585 109.246 146.384 104.336C153.183 99.4258 156.472 104.008 161.256 104.511C166.04 105.016 167.677 107.03 167.551 109.296Z" fill="#2A356B"/>
<path d="M146.384 104.336C139.585 109.246 139.505 116.94 139.379 121.347C139.253 125.754 135.067 131.959 134.311 138.632C133.556 145.305 135.193 149.083 135.193 149.083C135.193 149.083 135.948 141.402 138.592 139.765C141.236 138.128 144.51 140.269 148.413 145.809C148.956 146.58 149.383 147.328 149.736 148.051C149.548 146.507 149.146 144.916 148.451 143.36C145.227 136.144 140.16 137.372 139.546 135.376C138.932 133.381 143.999 132.306 144.613 126.625C145.227 120.944 141.849 115.11 149.68 110.965C157.51 106.82 160.734 109.737 162.884 107.434C163.693 106.566 163.457 105.611 162.848 104.758C162.361 104.656 161.833 104.572 161.256 104.512C156.472 104.008 153.183 99.4257 146.384 104.336Z" fill="#212B54"/>
<path d="M168.237 140.796C168.237 140.796 170.045 140.556 172.358 137.548C174.672 134.541 175.554 130.706 176.48 134.176C177.405 137.647 174.177 142.951 171.863 145.033C169.549 147.115 168.946 146.608 166.863 152.16C164.781 157.713 158.214 176.728 152.661 176.496C147.109 176.265 141.557 163.54 141.557 163.54L149.423 159.144L151.968 165.391C151.968 165.391 165.24 146.04 165.365 143.792C165.489 141.543 166.489 134.925 167.613 135.299C168.737 135.675 168.237 140.796 168.237 140.796Z" fill="#EAB9B3"/>
<path d="M171.864 145.035C173.892 143.209 176.623 138.907 176.641 135.535C174.843 140.26 171.467 142.966 168.921 144.946C165.904 147.292 157.024 173.599 152.835 173.264C148.646 172.929 146.635 169.409 146.3 166.226C146.054 163.881 148.711 161.813 150.131 160.884L149.423 159.147L141.557 163.543C141.557 163.543 147.109 176.267 152.661 176.498C158.214 176.73 164.781 157.715 166.863 152.163C168.946 146.61 169.551 147.117 171.864 145.035Z" fill="#ECEBED"/>
<path d="M140.252 140.377C139.61 140.457 136.717 140.859 136.154 145.921C135.592 150.983 140.895 164.242 140.895 164.242L150.377 159.581C150.377 159.581 145.797 145.037 143.949 142.546C142.101 140.056 140.252 140.377 140.252 140.377Z" fill="#7BD1C0"/>
<path d="M130.65 325.164C130.65 325.164 137.465 329.231 140.212 328.242C142.96 327.253 142.081 325.494 142.081 325.494C142.081 325.494 152.852 329.121 151.863 330.77C150.874 332.418 132.299 332.857 130.321 330.989C128.342 329.121 130.65 325.164 130.65 325.164Z" fill="#1D2B43"/>
<path d="M156.274 325.152C156.274 325.152 164.064 328.903 166.482 328.463C168.9 328.023 168.021 326.485 168.021 326.485C168.021 326.485 175.495 328.463 175.714 330.771C175.934 333.079 155.591 332.418 155.229 330.897C154.746 328.868 156.274 325.152 156.274 325.152Z" fill="#1D2B43"/>
<path d="M304.394 252.809H279.751C278.272 252.809 277.072 254.008 277.072 255.488V264.048C277.072 264.707 277.607 265.243 278.266 265.243H305.88C306.54 265.243 307.074 264.708 307.074 264.048V255.488C307.073 254.009 305.874 252.809 304.394 252.809Z" fill="#7BD1C0"/>
<path opacity="0.5" d="M289.65 262.082C285.004 262.082 281.238 258.316 281.238 253.67V252.809H279.751C278.272 252.809 277.072 254.008 277.072 255.488V264.048C277.072 264.707 277.607 265.243 278.266 265.243H305.88C306.54 265.243 307.074 264.708 307.074 264.048V262.082H289.65Z" fill="#7BD1C0"/>
<path d="M308.547 270.406H305.477V265.246H278.672V270.406H275.602C269.116 270.406 263.859 275.663 263.859 282.148V326.718C263.859 329.805 266.362 332.307 269.449 332.307H314.7C317.787 332.307 320.289 329.804 320.289 326.718V282.148C320.289 275.663 315.032 270.406 308.547 270.406Z" fill="#FF78C3"/>
<path d="M320.29 285.441H263.859V316.282H320.29V285.441Z" fill="white"/>
<path opacity="0.5" d="M320.288 326.716V326.293C278.96 319.399 271.861 285.597 270.715 271.469C266.669 273.323 263.857 277.405 263.857 282.146V326.716C263.857 329.803 266.36 332.305 269.447 332.305H314.698C317.786 332.305 320.288 329.802 320.288 326.716Z" fill="#FF78C3"/>
<path d="M121 120.096L117.27 119.262C116.369 119.06 115.665 118.356 115.462 117.454L114.628 113.724C114.572 113.472 114.213 113.472 114.157 113.724L113.322 117.454C113.121 118.355 112.416 119.059 111.515 119.262L107.784 120.096C107.533 120.152 107.533 120.511 107.784 120.567L111.515 121.402C112.416 121.603 113.12 122.307 113.322 123.209L114.157 126.939C114.213 127.191 114.572 127.191 114.628 126.939L115.462 123.209C115.664 122.308 116.368 121.604 117.27 121.402L121 120.567C121.251 120.511 121.251 120.152 121 120.096Z" fill="white"/>
<path d="M332.783 81.4518L327.48 80.265C326.198 79.9779 325.198 78.9771 324.91 77.6958L323.724 72.3929C323.644 72.0357 323.135 72.0357 323.054 72.3929L321.868 77.6958C321.58 78.9771 320.58 79.9779 319.298 80.265L313.995 81.4518C313.638 81.5315 313.638 82.0407 313.995 82.1212L319.298 83.308C320.58 83.5951 321.58 84.5959 321.868 85.8771L323.054 91.18C323.134 91.5372 323.643 91.5372 323.724 91.18L324.91 85.8771C325.198 84.5959 326.198 83.5951 327.48 83.308L332.783 82.1212C333.14 82.0407 333.14 81.5315 332.783 81.4518Z" fill="white"/>
<path d="M402.422 229.416L398.692 228.581C397.791 228.38 397.087 227.676 396.885 226.774L396.051 223.044C395.995 222.793 395.636 222.793 395.58 223.044L394.745 226.774C394.544 227.676 393.84 228.38 392.938 228.581L389.208 229.416C388.957 229.472 388.957 229.831 389.208 229.887L392.938 230.721C393.84 230.923 394.544 231.627 394.745 232.529L395.58 236.259C395.636 236.511 395.995 236.511 396.051 236.259L396.885 232.529C397.087 231.628 397.791 230.924 398.692 230.721L402.422 229.887C402.674 229.831 402.674 229.472 402.422 229.416Z" fill="white"/>
<path d="M125.828 232.37L122.098 231.535C121.197 231.333 120.493 230.629 120.291 229.727L119.456 225.997C119.4 225.746 119.041 225.746 118.985 225.997L118.15 229.727C117.949 230.629 117.245 231.333 116.343 231.535L112.613 232.37C112.361 232.426 112.361 232.784 112.613 232.841L116.343 233.675C117.244 233.877 117.948 234.581 118.15 235.483L118.985 239.213C119.041 239.465 119.4 239.465 119.456 239.213L120.291 235.483C120.492 234.582 121.196 233.878 122.098 233.675L125.828 232.841C126.079 232.784 126.079 232.426 125.828 232.37Z" fill="white"/>
<path d="M226.052 333.433C235.225 333.433 242.662 325.997 242.662 316.824C242.662 307.651 235.225 300.215 226.052 300.215C216.88 300.215 209.443 307.651 209.443 316.824C209.443 325.997 216.88 333.433 226.052 333.433Z" fill="#7BD1C0"/>
<path d="M237.798 305.079C231.312 298.593 220.796 298.593 214.31 305.079L237.798 328.568C244.284 322.082 244.284 311.565 237.798 305.079Z" fill="#ECAC25"/>
<path d="M218.202 323.121C213.207 318.126 212.063 310.742 214.762 304.648C214.61 304.79 214.457 304.931 214.31 305.079C207.824 311.565 207.824 322.081 214.31 328.567C220.796 335.053 231.312 335.053 237.798 328.567C239.289 327.076 240.433 325.371 241.238 323.552C234.724 329.6 224.54 329.459 218.202 323.121Z" fill="#E5E5E6"/>
<path d="M196.023 333.433C205.196 333.433 212.632 325.997 212.632 316.824C212.632 307.651 205.196 300.215 196.023 300.215C186.85 300.215 179.414 307.651 179.414 316.824C179.414 325.997 186.85 333.433 196.023 333.433Z" fill="#ECAC25"/>
<path d="M207.768 305.079C201.282 298.593 190.765 298.593 184.279 305.079L207.768 328.568C214.254 322.082 214.254 311.565 207.768 305.079Z" fill="white"/>
<path d="M188.173 323.121C183.178 318.126 182.034 310.742 184.733 304.648C184.581 304.79 184.428 304.931 184.28 305.079C177.794 311.565 177.794 322.081 184.28 328.567C190.766 335.053 201.282 335.053 207.768 328.567C209.259 327.076 210.403 325.371 211.208 323.552C204.694 329.6 194.51 329.459 188.173 323.121Z" fill="#E5E5E6"/>
</svg>
