<svg width="24" height="24" viewBox="0 0 24 24" fill="none" xmlns="http://www.w3.org/2000/svg">
<path d="M14.6846 11.5133L6.38281 10.0508V20.8575C6.38291 20.9749 6.40613 21.0912 6.45115 21.1996C6.49617 21.308 6.5621 21.4065 6.64519 21.4895C6.72827 21.5724 6.82688 21.6382 6.93539 21.683C7.04389 21.7279 7.16016 21.7509 7.27756 21.7508H21.6026C21.7201 21.7511 21.8365 21.7282 21.9452 21.6834C22.0539 21.6387 22.1527 21.573 22.2359 21.49C22.3192 21.407 22.3852 21.3085 22.4303 21.1999C22.4754 21.0914 22.4987 20.9751 22.4988 20.8575V16.8758L14.6846 11.5133Z" fill="#185C37"/>
<path d="M14.6846 2.25H7.27756C7.16016 2.2499 7.04389 2.27293 6.93539 2.31776C6.82688 2.3626 6.72827 2.42837 6.64519 2.51132C6.5621 2.59426 6.49617 2.69276 6.45115 2.80119C6.40613 2.90962 6.38291 3.02585 6.38281 3.14325V7.125L14.6846 12L19.0803 13.4625L22.4988 12V7.125L14.6846 2.25Z" fill="#21A366"/>
<path d="M6.38281 7.125H14.6846V12H6.38281V7.125Z" fill="#107C41"/>
<path opacity="0.1" d="M12.3243 6.15039H6.38281V18.3379H12.3243C12.5611 18.3367 12.7878 18.2423 12.9554 18.0751C13.1231 17.9079 13.218 17.6814 13.2198 17.4446V7.04364C13.218 6.80689 13.1231 6.58038 12.9554 6.41318C12.7878 6.24598 12.5611 6.15157 12.3243 6.15039Z" fill="black"/>
<path opacity="0.2" d="M11.8361 6.63672H6.38281V18.8242H11.8361C12.0728 18.823 12.2996 18.7286 12.4672 18.5614C12.6348 18.3942 12.7298 18.1677 12.7316 17.931V7.52997C12.7298 7.29322 12.6348 7.06671 12.4672 6.89951C12.2996 6.73231 12.0728 6.6379 11.8361 6.63672Z" fill="black"/>
<path opacity="0.2" d="M11.8361 6.63672H6.38281V17.8492H11.8361C12.0728 17.848 12.2996 17.7536 12.4672 17.5864C12.6348 17.4192 12.7298 17.1927 12.7316 16.956V7.52997C12.7298 7.29322 12.6348 7.06671 12.4672 6.89951C12.2996 6.73231 12.0728 6.6379 11.8361 6.63672Z" fill="black"/>
<path opacity="0.2" d="M11.3478 6.63672H6.38281V17.8492H11.3478C11.5846 17.848 11.8113 17.7536 11.9789 17.5864C12.1466 17.4192 12.2415 17.1927 12.2433 16.956V7.52997C12.2415 7.29322 12.1466 7.06671 11.9789 6.89951C11.8113 6.73231 11.5846 6.6379 11.3478 6.63672Z" fill="black"/>
<path d="M2.3955 6.63672H11.349C11.5862 6.63652 11.8137 6.73049 11.9816 6.89799C12.1496 7.06549 12.2441 7.2928 12.2445 7.52997V16.4685C12.2441 16.7056 12.1496 16.933 11.9816 17.1004C11.8137 17.2679 11.5862 17.3619 11.349 17.3617H2.3955C2.27804 17.3619 2.16168 17.339 2.05309 17.2942C1.9445 17.2494 1.84581 17.1836 1.76264 17.1007C1.67948 17.0177 1.61348 16.9192 1.56841 16.8107C1.52334 16.7022 1.5001 16.5859 1.5 16.4685V7.52997C1.5001 7.41251 1.52334 7.29621 1.56841 7.18773C1.61348 7.07926 1.67948 6.98073 1.76264 6.89777C1.84581 6.81481 1.9445 6.74906 2.05309 6.70427C2.16168 6.65948 2.27804 6.63652 2.3955 6.63672Z" fill="url(#paint0_linear_956_14695)"/>
<path d="M4.27344 14.9052L6.15669 11.9922L4.43169 9.0957H5.81694L6.75819 10.9505C6.84519 11.126 6.90819 11.2565 6.93669 11.3435H6.94944C7.01094 11.2025 7.07619 11.0667 7.14444 10.934L8.15094 9.0987H9.42594L7.65669 11.9787L9.47094 14.9075H8.11419L7.02669 12.8742C6.97619 12.7868 6.93329 12.6952 6.89844 12.6005H6.88044C6.84873 12.6928 6.80645 12.7811 6.75444 12.8637L5.63469 14.9052H4.27344Z" fill="white"/>
<path d="M21.6062 2.25H14.6875V7.125H22.5017V3.14325C22.5017 3.02579 22.4784 2.90949 22.4333 2.80102C22.3883 2.69254 22.3223 2.59401 22.2391 2.51105C22.1559 2.4281 22.0572 2.36234 21.9487 2.31755C21.8401 2.27276 21.7237 2.2498 21.6062 2.25Z" fill="#33C481"/>
<path d="M14.6875 12H22.5017V16.875H14.6875V12Z" fill="#107C41"/>
<defs>
<linearGradient id="paint0_linear_956_14695" x1="3.3705" y1="5.93472" x2="10.374" y2="18.0637" gradientUnits="userSpaceOnUse">
<stop stop-color="#18884F"/>
<stop offset="0.5" stop-color="#117E43"/>
<stop offset="1" stop-color="#0B6631"/>
</linearGradient>
</defs>
</svg>
