<svg width="20" height="20" viewBox="0 0 20 20" fill="none" xmlns="http://www.w3.org/2000/svg">
<path d="M18.3333 10H13.3333L11.6666 12.5H8.33329L6.66663 10H1.66663" stroke="#282828" stroke-width="1.5" stroke-linecap="round" stroke-linejoin="round"/>
<path d="M4.54163 4.25833L1.66663 9.99999V15C1.66663 15.442 1.84222 15.8659 2.15478 16.1785C2.46734 16.4911 2.89127 16.6667 3.33329 16.6667H16.6666C17.1087 16.6667 17.5326 16.4911 17.8451 16.1785C18.1577 15.8659 18.3333 15.442 18.3333 15V9.99999L15.4583 4.25833C15.3203 3.98065 15.1076 3.74697 14.8441 3.58356C14.5806 3.42015 14.2767 3.33349 13.9666 3.33333H6.03329C5.72322 3.33349 5.41935 3.42015 5.15583 3.58356C4.89231 3.74697 4.67961 3.98065 4.54163 4.25833V4.25833Z" stroke="#282828" stroke-width="1.5" stroke-linecap="round" stroke-linejoin="round"/>
</svg>
