<svg width="20" height="22" viewBox="0 0 20 22" fill="none" xmlns="http://www.w3.org/2000/svg">
<path d="M18 21V18C18 15.172 18 13.757 17.121 12.879C16.243 12 14.828 12 12 12L10 14L8 12C5.172 12 3.757 12 2.879 12.879C2 13.757 2 15.172 2 18V21M14 12V17.5" stroke="#282828" stroke-width="1.5" stroke-linecap="round" stroke-linejoin="round"/>
<path d="M6.5 12V16M6.5 16C7.03043 16 7.53914 16.2107 7.91421 16.5858C8.28929 16.9609 8.5 17.4696 8.5 18V19M6.5 16C5.96957 16 5.46086 16.2107 5.08579 16.5858C4.71071 16.9609 4.5 17.4696 4.5 18V19M13.5 5.5V4.5C13.5 4.04037 13.4095 3.58525 13.2336 3.16061C13.0577 2.73597 12.7999 2.35013 12.4749 2.02513C12.1499 1.70012 11.764 1.44231 11.3394 1.26642C10.9148 1.09053 10.4596 1 10 1C9.54037 1 9.08525 1.09053 8.66061 1.26642C8.23597 1.44231 7.85013 1.70012 7.52513 2.02513C7.20012 2.35013 6.94231 2.73597 6.76642 3.16061C6.59053 3.58525 6.5 4.04037 6.5 4.5V5.5C6.5 5.95963 6.59053 6.41475 6.76642 6.83939C6.94231 7.26403 7.20012 7.64987 7.52513 7.97487C7.85013 8.29988 8.23597 8.55769 8.66061 8.73358C9.08525 8.90947 9.54037 9 10 9C10.4596 9 10.9148 8.90947 11.3394 8.73358C11.764 8.55769 12.1499 8.29988 12.4749 7.97487C12.7999 7.64987 13.0577 7.26403 13.2336 6.83939C13.4095 6.41475 13.5 5.95963 13.5 5.5Z" stroke="#282828" stroke-width="1.5" stroke-linecap="round" stroke-linejoin="round"/>
<path d="M14.75 18.25C14.75 18.4489 14.671 18.6397 14.5303 18.7803C14.3897 18.921 14.1989 19 14 19C13.8011 19 13.6103 18.921 13.4697 18.7803C13.329 18.6397 13.25 18.4489 13.25 18.25C13.25 18.0511 13.329 17.8603 13.4697 17.7197C13.6103 17.579 13.8011 17.5 14 17.5C14.1989 17.5 14.3897 17.579 14.5303 17.7197C14.671 17.8603 14.75 18.0511 14.75 18.25Z" stroke="#282828" stroke-width="1.5"/>
</svg>
