<svg width="16" height="17" viewBox="0 0 16 17" fill="none" xmlns="http://www.w3.org/2000/svg">
<path d="M7.92931 0.75C4.67103 0.75 1.96703 3.374 1.73503 6.76029C1.62303 8.37171 1.97046 10.0449 2.94417 11.3774C4.10303 12.9637 5.2836 14.0517 7.12931 15.3317C7.38487 15.5107 7.68931 15.6067 8.00131 15.6067C8.31332 15.6067 8.61776 15.5107 8.87331 15.3317C10.719 14.0517 11.8996 12.9637 13.0585 11.3774C14.0322 10.0449 14.3785 8.37171 14.2687 6.76029C14.0356 3.374 11.3316 0.75 8.07332 0.75H7.92931Z" fill="#DEFFFA" stroke="#3CC9B2" stroke-width="1.5"/>
<path d="M6.28516 9.97489V4.83203M9.71373 4.83203V9.97489M6.28516 7.1886C7.424 7.05315 8.57488 7.05315 9.71373 7.1886" stroke="#3CC9B2" stroke-width="1.5" stroke-linecap="round" stroke-linejoin="round"/>
</svg>
