<svg width="48" height="47" viewBox="0 0 48 47" fill="none" xmlns="http://www.w3.org/2000/svg">
<g clip-path="url(#clip0_699_20064)">
<path d="M39.6184 16.1177L39.6021 15.4249V2.32377L36.0221 5.94582C33.0924 2.31751 28.6352 0 23.6428 0C18.4472 0 13.8315 2.50891 10.9121 6.39274L16.7799 12.3917C17.3569 11.3172 18.1736 10.3953 19.1587 9.69344C20.1832 8.88458 21.6347 8.2233 23.6426 8.2233C23.8852 8.2233 24.0724 8.25176 24.21 8.30601C26.6977 8.50462 28.8544 9.89376 30.1237 11.9098L25.9684 16.1139L39.6161 16.1165" fill="#1C3AA9"/>
<path d="M23.5505 0L22.8655 0.0184005H9.91639L13.4963 3.64026C9.90983 6.60084 7.61914 11.1118 7.61914 16.1628C7.61914 21.4174 10.099 26.0888 13.9379 29.0409L19.8674 23.1044C18.806 22.5231 17.8929 21.6998 17.2006 20.6996C16.4013 19.6631 15.7475 18.1947 15.7475 16.1632C15.7475 15.9177 15.7756 15.7284 15.8292 15.5892C16.0255 13.0723 17.3986 10.8904 19.3913 9.60619L23.5448 13.8083L23.5475 0.000758783" fill="#4285F4"/>
<path d="M7.61914 16.1641L7.63545 16.8568V29.9576L11.2154 26.3357C14.1453 29.964 18.6025 32.2815 23.5949 32.2815C28.7886 32.2815 33.406 29.7726 36.3239 25.8888L30.4561 19.8899C29.8815 20.9637 29.0677 21.8874 28.0791 22.5879C27.0546 23.3968 25.6032 24.0581 23.5953 24.0581C23.3526 24.0581 23.1655 24.0296 23.0279 23.9753C20.5401 23.7767 18.3835 22.3876 17.1141 20.3715L21.2676 16.1694C16.0064 16.1883 10.0634 16.2026 7.61989 16.1667" fill="#ABABAB"/>
<path d="M10.3149 38.5417C9.92588 38.5417 9.57694 38.6165 9.26831 38.7656C8.96201 38.9096 8.69318 39.124 8.48325 39.3917C8.27194 39.663 8.10919 39.9925 7.99519 40.3793C7.88269 40.7629 7.82906 41.1921 7.82906 41.6692V43.0388C7.82906 43.5174 7.88437 43.9484 7.99519 44.332C8.10919 44.7155 8.27025 45.043 8.47819 45.3146C8.68612 45.5862 8.93756 45.7949 9.23306 45.9406C9.52856 46.0863 9.86044 46.1595 10.2294 46.1595C10.6086 46.1595 10.9406 46.1035 11.2258 45.9914C11.5146 45.8776 11.7559 45.7183 11.9505 45.5077C12.1451 45.2939 12.2944 45.0359 12.4005 44.7338C12.5079 44.4318 12.5715 44.0888 12.5917 43.7056H11.6588C11.6353 44.001 11.595 44.2557 11.538 44.4644C11.481 44.6731 11.3974 44.8428 11.2864 44.9766C11.1789 45.109 11.0381 45.2074 10.8637 45.2719C10.6927 45.333 10.4813 45.3635 10.23 45.3635C9.96188 45.3635 9.7335 45.3042 9.54562 45.1852C9.35775 45.0631 9.20512 44.8969 9.08775 44.6863C8.97375 44.4777 8.88975 44.2299 8.83612 43.9465C8.78587 43.6648 8.76056 43.3611 8.76056 43.0352V41.6556C8.76056 41.306 8.79056 40.9886 8.85113 40.7033C8.91488 40.4182 9.0105 40.1756 9.138 39.9752C9.2655 39.7749 9.42675 39.6205 9.621 39.512C9.81563 39.3982 10.047 39.3439 10.3155 39.3439C10.5405 39.3439 10.7331 39.3781 10.8941 39.4458C11.0554 39.5103 11.1893 39.6122 11.2967 39.7493C11.4041 39.8851 11.4842 40.0581 11.5432 40.2685C11.6023 40.4789 11.637 40.73 11.6589 41.022H12.5899C12.5711 40.6236 12.5111 40.267 12.4037 39.9597C12.2962 39.6524 12.1468 39.3912 11.9537 39.1808C11.7606 38.9704 11.5294 38.8109 11.2543 38.7022C10.9824 38.5935 10.6689 38.5391 10.3131 38.5391L10.3149 38.5417ZM33.0399 38.5417C32.6509 38.5417 32.3019 38.6165 31.9933 38.7656C31.687 38.9096 31.4182 39.124 31.2083 39.3917C30.9969 39.663 30.8342 39.9925 30.7202 40.3793C30.6077 40.7629 30.5541 41.1921 30.5541 41.6692V43.0388C30.5541 43.5174 30.6094 43.9484 30.7202 44.332C30.8342 44.7155 30.9953 45.043 31.2032 45.3146C31.4111 45.5862 31.6626 45.7949 31.9581 45.9406C32.2536 46.0863 32.5854 46.1595 32.9544 46.1595C33.3336 46.1595 33.6656 46.1035 33.9508 45.9914C34.2396 45.8776 34.4809 45.7183 34.6755 45.5077C34.8701 45.2939 35.0194 45.0359 35.1255 44.7338C35.2329 44.4318 35.2965 44.0888 35.3168 43.7056H34.3858C34.3624 44.001 34.3221 44.2557 34.2651 44.4644C34.2081 44.6731 34.1244 44.8428 34.0134 44.9766C33.906 45.109 33.7652 45.2074 33.5908 45.2719C33.4198 45.333 33.2083 45.3635 32.9571 45.3635C32.6889 45.3635 32.4606 45.3042 32.2727 45.1852C32.0848 45.0631 31.9322 44.8969 31.8148 44.6863C31.7008 44.4777 31.6168 44.2299 31.5632 43.9465C31.5129 43.6648 31.4876 43.3611 31.4876 43.0352V41.6556C31.4876 41.306 31.5176 40.9886 31.5782 40.7033C31.6419 40.4182 31.7376 40.1756 31.8651 39.9752C31.9926 39.7749 32.1538 39.6205 32.3481 39.512C32.5427 39.3982 32.7741 39.3439 33.0426 39.3439C33.2676 39.3439 33.4601 39.3781 33.6212 39.4458C33.7824 39.5103 33.9163 39.6122 34.0238 39.7493C34.1312 39.8851 34.2112 40.0581 34.2703 40.2685C34.3294 40.4789 34.3641 40.73 34.386 41.022H35.3169C35.2982 40.6236 35.2382 40.267 35.1307 39.9597C35.0233 39.6524 34.8739 39.3912 34.6808 39.1808C34.4876 38.9704 34.2564 38.8109 33.9814 38.7022C33.7095 38.5935 33.396 38.5391 33.0401 38.5391L33.0399 38.5417ZM15.6212 38.6436L13.2591 46.0559H14.205L14.7737 44.1214H17.2494L17.8281 46.0559H18.774L16.4089 38.6436H15.6212ZM19.7724 38.6436V46.0559H20.6912V43.1542H22.1049C22.4574 43.1542 22.7693 43.1048 23.0409 43.0066C23.3128 42.9047 23.5408 42.7588 23.7253 42.5688C23.9132 42.3787 24.054 42.1446 24.1479 41.8661C24.2454 41.5844 24.2938 41.2654 24.2938 40.9091C24.2938 40.5798 24.2451 40.2778 24.1479 40.0029C24.0542 39.7247 23.9149 39.4855 23.7304 39.2851C23.5459 39.0816 23.3179 38.9238 23.0409 38.8117C22.7691 38.6978 22.4572 38.6436 22.1049 38.6436H19.7724ZM25.0007 38.6436V39.4479H26.9229V46.0559H27.8417V39.4479H29.7692V38.6436H25.0007ZM36.5593 38.6436V46.0559H37.4781V42.6297H40.425V46.0559H41.3509V38.6436H40.425V41.8305H37.4762V38.6436H36.5593ZM44.8468 38.6436L42.4867 46.0559H43.4327L44.0014 44.1214H46.4771L47.0558 46.0559H48L45.6349 38.6436H44.8468ZM20.6931 39.4479H22.1068C22.3318 39.4479 22.5227 39.4887 22.6806 39.5701C22.8349 39.646 22.9693 39.7576 23.073 39.896C23.1771 40.0318 23.2524 40.1896 23.2995 40.3694C23.3497 40.5458 23.3751 40.7293 23.3751 40.9196C23.3751 41.1282 23.3499 41.3236 23.2995 41.5C23.2526 41.673 23.1771 41.8225 23.073 41.9553C22.9723 42.0809 22.8414 42.1791 22.6806 42.2506C22.5231 42.322 22.3318 42.3576 22.1068 42.3576H20.6931V39.4479ZM16.0134 39.9468L17.0147 43.3169H15.015L16.0134 39.9468ZM45.2391 39.9468L46.2403 43.3169H44.2406L45.2391 39.9468ZM1.89375 40.4457C1.66219 40.4457 1.4625 40.5051 1.29488 40.624C1.13044 40.7428 0.994875 40.904 0.882375 41.1077L0.867375 40.5477H0V46.0561H0.890625V42.1156C0.974437 41.8813 1.0935 41.6982 1.24781 41.5607C1.40531 41.4249 1.605 41.3572 1.84669 41.3572L2.05294 41.3674C2.11885 41.3716 2.18443 41.3801 2.24925 41.3928L2.24419 40.5172C2.23069 40.5104 2.20894 40.5035 2.17856 40.4969C2.14911 40.486 2.11882 40.4775 2.088 40.4715C2.05425 40.4647 2.01919 40.4595 1.98225 40.4563C1.9485 40.4495 1.9185 40.4461 1.89169 40.4461L1.89375 40.4457ZM4.88775 40.4457C4.63159 40.4453 4.37749 40.4919 4.13775 40.5832C3.894 40.6748 3.68156 40.826 3.49369 41.0385C3.30919 41.2472 3.15994 41.5171 3.04369 41.853C2.92969 42.1856 2.87269 42.5929 2.87269 43.08V43.7011C2.87269 44.1218 2.92144 44.4868 3.01856 44.7956C3.11569 45.1044 3.25481 45.3609 3.43613 45.5644C3.62063 45.7648 3.84375 45.914 4.1055 46.0125C4.36725 46.1109 4.6605 46.1601 4.98619 46.1601C5.22094 46.1601 5.43056 46.1364 5.61525 46.0888C5.80312 46.0413 5.96925 45.9801 6.11344 45.9055C6.25781 45.8274 6.38156 45.7391 6.48581 45.6407C6.59006 45.5422 6.67894 45.4404 6.75244 45.3372L6.28931 44.767C6.21544 44.8586 6.13669 44.9434 6.05306 45.0215C5.96925 45.0963 5.87681 45.1625 5.77631 45.2201C5.67091 45.2753 5.55954 45.318 5.44444 45.3472C5.32388 45.3795 5.18756 45.3931 5.03681 45.3931C4.62431 45.3931 4.30556 45.259 4.08581 44.991C3.86775 44.7229 3.75881 44.2935 3.75881 43.7011V43.574H6.79631V43.0496C6.79631 42.6289 6.76106 42.2571 6.69056 41.9346C6.62006 41.6121 6.50775 41.3409 6.35344 41.1201C6.2033 40.9029 5.9982 40.7306 5.75963 40.6212C5.51813 40.5058 5.22619 40.4482 4.884 40.4482L4.88775 40.4457ZM4.88775 41.2196C5.08238 41.2196 5.24344 41.2553 5.37075 41.3266C5.49687 41.3966 5.60137 41.5005 5.67262 41.6269C5.74987 41.7559 5.80519 41.9103 5.83875 42.0902C5.87569 42.2666 5.89913 42.462 5.90925 42.6756V42.7977H3.76387C3.77737 42.4889 3.81412 42.2324 3.87637 42.0289C3.93862 41.8253 4.01569 41.6641 4.11263 41.5452C4.21331 41.423 4.329 41.3365 4.45987 41.2906C4.59075 41.2447 4.73325 41.2193 4.88737 41.2193L4.88775 41.2196Z" fill="#A6A6A6"/>
</g>
<defs>
<clipPath id="clip0_699_20064">
<rect width="48" height="46.2857" fill="white"/>
</clipPath>
</defs>
</svg>
