<svg width="16" height="24" viewBox="0 0 16 24" fill="none" xmlns="http://www.w3.org/2000/svg">
<path d="M7.51943 0.046875L8.48525 3.48039L6.48464 9.38017L3.44922 0.046875H7.51943Z" fill="#CD3414"/>
<path d="M6.90625 0.046875L8.11118 4.57212L8.26722 4.1119L7.18484 0.046875H6.90625Z" fill="#FFCE45"/>
<path d="M4.82812 10.8351V8.83445C4.82812 8.56775 5.04434 8.35156 5.31102 8.35156H10.761C11.0277 8.35156 11.2439 8.56777 11.2439 8.83445V10.9041H10.1401V9.86927C10.1401 9.60256 9.92389 9.38635 9.65721 9.38635H6.48383C6.21712 9.38635 6.00091 9.60256 6.00091 9.86927V10.5591L4.82812 10.8351Z" fill="#FCAB28"/>
<path d="M6.74489 8.61163L6.8884 8.18845L4.24571 0.046875H3.96484L6.74489 8.61163Z" fill="#FFCE45"/>
<path d="M12 19.4531C14.2091 17.244 14.2091 13.6623 12 11.4531C9.79086 9.24399 6.20914 9.24399 4 11.4531C1.79086 13.6623 1.79086 17.244 4 19.4531C6.20914 21.6623 9.79086 21.6623 12 19.4531Z" fill="#FCAB28"/>
<path d="M2.34375 15.4538C2.34375 15.7616 2.36871 16.0636 2.41602 16.3581C3.23732 16.8227 4.18615 17.0882 5.1971 17.0882C8.32132 17.0882 10.854 14.5555 10.854 11.4313C10.854 11.1234 10.8291 10.8215 10.7817 10.527C9.96044 10.0624 9.01161 9.79688 8.00069 9.79688C4.87644 9.79688 2.34375 12.3295 2.34375 15.4538Z" fill="#FFCE45"/>
<path d="M6.48438 9.38165H10.0027L14.0039 0H9.58878L6.48438 9.38165Z" fill="#FE5629"/>
<path d="M8.00189 19.5506C5.74139 19.5506 3.90234 17.7115 3.90234 15.4511C3.90234 13.1906 5.74139 11.3516 8.00189 11.3516C10.2624 11.3516 12.1014 13.1906 12.1014 15.4511C12.1014 17.7115 10.2624 19.5506 8.00189 19.5506ZM8.00189 11.4895C5.81747 11.4895 4.0403 13.2667 4.0403 15.451C4.0403 17.6354 5.81747 19.4126 8.00189 19.4126C10.1863 19.4126 11.9634 17.6354 11.9634 15.451C11.9634 13.2667 10.1863 11.4895 8.00189 11.4895Z" fill="#FCAB28"/>
<path d="M3.62349 13.1766C3.62349 13.1766 3.17506 12.2453 4.14088 11.7969C4.14088 11.7969 4.20988 12.7627 3.62349 13.1766Z" fill="#FFE266"/>
<path d="M3.6571 13.5577C3.6571 13.5577 3.58812 12.8678 4.69189 12.6953C4.69189 12.6953 4.51944 13.3507 3.6571 13.5577Z" fill="#FFE266"/>
<path d="M4.42363 12.1717C4.42363 12.1717 4.17864 11.1675 5.21656 10.9297C5.21656 10.9297 5.08327 11.8887 4.42363 12.1717Z" fill="#FFE266"/>
<path d="M4.37891 12.5462C4.37891 12.5462 4.45485 11.8571 5.57036 11.9179C5.57036 11.9179 5.26544 12.5231 4.37891 12.5462Z" fill="#FFE266"/>
<path d="M5.35975 11.3583C5.35975 11.3583 5.30947 10.3259 6.37367 10.2891C6.37367 10.2891 6.06105 11.2055 5.35975 11.3583Z" fill="#FFE266"/>
<path d="M5.24609 11.722C5.24609 11.722 5.45124 11.0597 6.53504 11.3308C6.53504 11.3308 6.12094 11.8672 5.24609 11.722Z" fill="#FFE266"/>
<path d="M6.41016 10.7466C6.41016 10.7466 6.66834 9.7457 7.69557 10.0261C7.69557 10.0261 7.12521 10.8086 6.41016 10.7466Z" fill="#FFE266"/>
<path d="M6.19531 11.0562C6.19531 11.0562 6.58762 10.4846 7.54229 11.0648C7.54229 11.0648 6.98772 11.4544 6.19531 11.0562Z" fill="#FFE266"/>
<path d="M7.63281 10.495C7.63281 10.495 8.18186 9.61923 9.07603 10.1974C9.07603 10.1974 8.29558 10.7706 7.63281 10.495Z" fill="#FFE266"/>
<path d="M7.32812 10.7328C7.32812 10.7328 7.87508 10.3067 8.6093 11.1488C8.6093 11.1488 7.96284 11.3521 7.32812 10.7328Z" fill="#FFE266"/>
<path d="M8.90625 10.6054C8.90625 10.6054 9.682 9.92232 10.3744 10.7313C10.3744 10.7313 9.46304 11.0584 8.90625 10.6054Z" fill="#FFE266"/>
<path d="M8.55078 10.7388C8.55078 10.7388 9.19645 10.4862 9.66037 11.5025C9.66037 11.5025 8.98277 11.5133 8.55078 10.7388Z" fill="#FFE266"/>
<path d="M10.0938 11.1059C10.0938 11.1059 10.9946 10.599 11.5037 11.5342C11.5037 11.5342 10.5442 11.6647 10.0938 11.1059Z" fill="#FFE266"/>
<path d="M9.71875 11.1674C9.71875 11.1674 10.4028 11.0545 10.6453 12.1451C10.6453 12.1451 9.98027 12.0147 9.71875 11.1674Z" fill="#FFE266"/>
<path d="M11.1211 11.7846C11.1211 11.7846 12.1017 11.4576 12.4243 12.4724C12.4243 12.4724 11.4575 12.4186 11.1211 11.7846Z" fill="#FFE266"/>
<path d="M10.7383 11.7734C10.7383 11.7734 11.4313 11.7923 11.4628 12.909C11.4628 12.909 10.8345 12.655 10.7383 11.7734Z" fill="#FFE266"/>
<path d="M12 12.6407C12 12.6407 13.0334 12.6191 13.0406 13.684C13.0406 13.684 12.1333 13.3459 12 12.6407Z" fill="#FFE266"/>
<path d="M11.6392 12.5078C11.6392 12.5078 12.2955 12.7313 11.9944 13.8071C11.9944 13.8071 11.4697 13.3783 11.6392 12.5078Z" fill="#FFE266"/>
<path d="M12.5654 13.7422C12.5654 13.7422 13.5569 14.0345 13.2414 15.0515C13.2414 15.0515 12.4789 14.4547 12.5654 13.7422Z" fill="#FFE266"/>
<path d="M12.2629 13.5156C12.2629 13.5156 12.8207 13.9273 12.208 14.8615C12.208 14.8615 11.8378 14.2939 12.2629 13.5156Z" fill="#FFE266"/>
<path d="M12.9061 14.9219C12.9061 14.9219 13.7831 15.4689 13.2069 16.3644C13.2069 16.3644 12.632 15.5853 12.9061 14.9219Z" fill="#FFE266"/>
<path d="M12.6722 14.625C12.6722 14.625 13.0995 15.171 12.2591 15.9071C12.2591 15.9071 12.0543 15.2611 12.6722 14.625Z" fill="#FFE266"/>
<path d="M12.7678 16.2031C12.7678 16.2031 13.512 16.9205 12.7622 17.6767C12.7622 17.6767 12.3619 16.795 12.7678 16.2031Z" fill="#FFE266"/>
<path d="M12.6018 15.8594C12.6018 15.8594 12.9063 16.4823 11.9312 17.0276C11.9312 17.0276 11.8652 16.3531 12.6018 15.8594Z" fill="#FFE266"/>
<path d="M12.4049 17.3906C12.4049 17.3906 12.9996 18.2361 12.1201 18.8364C12.1201 18.8364 11.8941 17.8949 12.4049 17.3906Z" fill="#FFE266"/>
<path d="M12.3095 17.0234C12.3095 17.0234 12.4904 17.6927 11.4297 18.0434C11.4297 18.0434 11.4926 17.3686 12.3095 17.0234Z" fill="#FFE266"/>
<path d="M11.8452 18.4688C11.8452 18.4688 12.1625 19.4525 11.1445 19.765C11.1445 19.765 11.2079 18.7988 11.8452 18.4688Z" fill="#FFE266"/>
<path d="M11.8615 18.0859C11.8615 18.0859 11.8357 18.7788 10.7188 18.7991C10.7188 18.7991 10.979 18.1734 11.8615 18.0859Z" fill="#FFE266"/>
<path d="M10.947 19.3359C10.947 19.3359 10.9515 20.3696 9.88672 20.3593C9.88672 20.3593 10.2396 19.4576 10.947 19.3359Z" fill="#FFE266"/>
<path d="M11.0784 18.977C11.0784 18.977 10.8442 19.6295 9.77344 19.3108C9.77344 19.3108 10.2109 18.7932 11.0784 18.977Z" fill="#FFE266"/>
<path d="M10.0477 20.0017C10.0477 20.0017 9.81536 21.0089 8.78125 20.755C8.78125 20.755 9.33125 19.9582 10.0477 20.0017Z" fill="#FFE266"/>
<path d="M10.2569 19.6848C10.2569 19.6848 9.87945 20.2663 8.91016 19.7108C8.91016 19.7108 9.4545 19.3071 10.2569 19.6848Z" fill="#FFE266"/>
<path d="M8.78991 20.2925C8.78991 20.2925 8.3533 21.2294 7.39453 20.7661C7.39453 20.7661 8.0982 20.1009 8.78991 20.2925Z" fill="#FFE266"/>
<path d="M9.06101 20.0238C9.06101 20.0238 8.57089 20.5141 7.73828 19.7693C7.73828 19.7693 8.35462 19.4876 9.06101 20.0238Z" fill="#FFE266"/>
<path d="M7.5575 20.338C7.5575 20.338 6.95125 21.1752 6.09766 20.5386C6.09766 20.5386 6.91461 20.0189 7.5575 20.338Z" fill="#FFE266"/>
<path d="M7.87554 20.1269C7.87554 20.1269 7.30138 20.5155 6.625 19.6264C6.625 19.6264 7.28358 19.4666 7.87554 20.1269Z" fill="#FFE266"/>
<path d="M6.34818 20.1581C6.34818 20.1581 5.5209 20.7778 4.89453 19.9167C4.89453 19.9167 5.82887 19.6626 6.34818 20.1581Z" fill="#FFE266"/>
<path d="M6.71379 20.0442C6.71379 20.0442 6.05022 20.2451 5.66797 19.1953C5.66797 19.1953 6.34429 19.238 6.71379 20.0442Z" fill="#FFE266"/>
<path d="M5.24209 19.5919C5.24209 19.5919 4.26603 19.9322 3.92969 18.9219C3.92969 18.9219 4.89711 18.9625 5.24209 19.5919Z" fill="#FFE266"/>
<path d="M5.62653 19.6022C5.62653 19.6022 4.93328 19.5928 4.88672 18.4766C4.88672 18.4766 5.51839 18.722 5.62653 19.6022Z" fill="#FFE266"/>
<path d="M4.37094 18.8718C4.37094 18.8718 3.34177 18.9678 3.25781 17.9062C3.25781 17.9062 4.18718 18.178 4.37094 18.8718Z" fill="#FFE266"/>
<path d="M4.73935 18.9735C4.73935 18.9735 4.06864 18.7979 4.29143 17.7031C4.29143 17.7031 4.8457 18.0931 4.73935 18.9735Z" fill="#FFE266"/>
<path d="M3.70563 17.7696C3.70563 17.7696 2.67899 17.6496 2.81755 16.5938C2.81755 16.5938 3.67011 17.0528 3.70563 17.7696Z" fill="#FFE266"/>
<path d="M4.04612 17.9451C4.04612 17.9451 3.42657 17.6339 3.87209 16.6094C3.87209 16.6094 4.33316 17.106 4.04612 17.9451Z" fill="#FFE266"/>
<path d="M3.27766 16.6119C3.27766 16.6119 2.29239 16.2994 2.62848 15.2891C2.62848 15.2891 3.37863 15.9013 3.27766 16.6119Z" fill="#FFE266"/>
<path d="M3.57697 16.8523C3.57697 16.8523 3.02763 16.4293 3.65919 15.5078C3.65919 15.5078 4.01784 16.0828 3.57697 16.8523Z" fill="#FFE266"/>
<path d="M3.06803 15.409C3.06803 15.409 2.21971 14.8184 2.84038 13.9531C2.84038 13.9531 3.37521 14.7603 3.06803 15.409Z" fill="#FFE266"/>
<path d="M3.28212 15.7284C3.28212 15.7284 2.88292 15.1615 3.75939 14.4688C3.75939 14.4688 3.93135 15.1243 3.28212 15.7284Z" fill="#FFE266"/>
<path d="M3.2589 14.183C3.2589 14.183 2.62919 13.3633 3.48261 12.7266C3.48261 12.7266 3.74804 13.6577 3.2589 14.183Z" fill="#FFE266"/>
<path d="M3.3725 14.5483C3.3725 14.5483 3.16363 13.8872 4.20867 13.4922C4.20867 13.4922 4.17413 14.169 3.3725 14.5483Z" fill="#FFE266"/>
<path d="M6.87109 9.38165H7.15352L10.5176 0H10.2353L6.87109 9.38165Z" fill="#FFCE45"/>
<path d="M9.30078 9.38165H9.58619L13.5139 0H13.2285L9.30078 9.38165Z" fill="#FFCE45"/>
</svg>
