<svg width="24" height="24" viewBox="0 0 24 24" fill="none" xmlns="http://www.w3.org/2000/svg">
<g opacity="0.65">
<path d="M20.1562 1.5C20.6227 1.5 21 1.87734 21 2.34375C21 2.81016 20.6227 3.1875 20.1562 3.1875H18V8.32031L13.4932 12L18 15.6797V20.8125H20.1562C20.6227 20.8125 21 21.1898 21 21.6562C21 22.1227 20.6227 22.5 20.1562 22.5H3.84375C3.37734 22.5 3 22.1227 3 21.6562C3 21.1898 3.37734 20.8125 3.84375 20.8125H6V15.6797L10.5068 12L6 8.32031V3.1875H3.84375C3.37734 3.1875 3 2.81016 3 2.34375C3 1.87734 3.37734 1.5 3.84375 1.5H20.1562ZM7.6875 16.6172V20.8125H16.3125V16.6172L12 13.123L7.6875 16.6172ZM7.6875 7.38281L11.9414 10.8281L12 10.7812L12.0586 10.8281L16.3125 7.38281V3.1875H7.6875V7.38281Z" fill="#FF3F3F"/>
</g>
</svg>
