<svg width="23" height="26" viewBox="0 0 23 26" fill="none" xmlns="http://www.w3.org/2000/svg">
<path d="M22.2623 4.634L22.2144 4.64325V1.80796C22.1981 1.82118 22.1796 1.83546 22.1596 1.85042C22.1531 1.85527 22.1456 1.86058 22.1387 1.86562C22.1245 1.87606 22.1099 1.88665 22.094 1.89782C22.0847 1.90432 22.0747 1.91116 22.0649 1.91791C22.0497 1.92837 22.0341 1.93902 22.0176 1.95005C22.0064 1.95759 21.9946 1.96533 21.9828 1.97315C21.9659 1.98426 21.9483 1.99566 21.9302 2.0073C21.9174 2.01551 21.9045 2.02375 21.8912 2.03221C21.8721 2.04432 21.852 2.0568 21.8317 2.0694C21.8179 2.07798 21.8043 2.08647 21.7899 2.09528C21.7674 2.10902 21.7438 2.12327 21.72 2.13754C21.7063 2.14581 21.6931 2.15384 21.6789 2.16229C21.6424 2.184 21.6046 2.20624 21.5653 2.22906C21.5544 2.23536 21.5429 2.2419 21.5318 2.24829C21.4995 2.26696 21.4666 2.2858 21.4325 2.30515C21.4141 2.31558 21.3947 2.32634 21.3758 2.33695C21.3491 2.35191 21.3224 2.36688 21.2947 2.38219C21.2733 2.39408 21.2511 2.40623 21.229 2.41832C21.2022 2.43302 21.1752 2.44779 21.1475 2.46278C21.1244 2.4753 21.1009 2.48795 21.0772 2.50066C21.0491 2.51576 21.0205 2.53101 20.9915 2.54638C20.967 2.55943 20.9423 2.57249 20.9172 2.58571C20.8875 2.6013 20.8572 2.61709 20.8268 2.63291C20.8013 2.64619 20.7759 2.65941 20.7499 2.67285C20.7169 2.68983 20.6831 2.70708 20.6493 2.7243C20.6245 2.73693 20.6003 2.74939 20.5751 2.76213C20.5191 2.79045 20.462 2.81909 20.4038 2.848C20.4023 2.84873 20.4009 2.84944 20.3994 2.85019L20.4649 0.981788C20.448 1.00516 20.4303 1.02849 20.4122 1.05178C20.4066 1.05895 20.4008 1.06611 20.3951 1.07328C20.382 1.08985 20.3685 1.10642 20.3547 1.12295C20.3482 1.13074 20.3417 1.13856 20.3351 1.14633C20.3201 1.1639 20.3047 1.18145 20.289 1.19899C20.2837 1.20492 20.2786 1.21084 20.2732 1.21676C20.2525 1.23958 20.231 1.26237 20.209 1.28517C20.2027 1.29169 20.1961 1.2982 20.1897 1.3047C20.1732 1.32142 20.1565 1.33813 20.1394 1.35484C20.1306 1.36339 20.1217 1.37193 20.1127 1.38049C20.0967 1.39583 20.0802 1.41117 20.0635 1.42654C20.0544 1.43488 20.0455 1.44322 20.0362 1.45158C20.0137 1.47189 19.9906 1.49221 19.967 1.51259C19.9591 1.51938 19.951 1.52619 19.943 1.53298C19.9212 1.55146 19.899 1.56998 19.8762 1.58855C19.8647 1.59796 19.8528 1.6074 19.841 1.61684C19.8234 1.63092 19.8055 1.64503 19.7873 1.65916C19.7744 1.66924 19.7613 1.67933 19.748 1.68946C19.7289 1.70401 19.7093 1.71862 19.6896 1.73322C19.6772 1.74241 19.6651 1.75157 19.6525 1.76078C19.6222 1.78278 19.5913 1.80487 19.5596 1.82704C19.5449 1.83731 19.5297 1.84767 19.5147 1.85798C19.4951 1.8715 19.4753 1.88502 19.4551 1.8986C19.438 1.91017 19.4205 1.92178 19.4029 1.9334C19.3838 1.94603 19.3643 1.95873 19.3447 1.97144C19.3265 1.98323 19.3083 1.99502 19.2897 2.00686C19.267 2.02131 19.2436 2.03588 19.2203 2.05043C19.1894 2.06967 19.1579 2.08902 19.1259 2.10845C19.1048 2.12129 19.0837 2.13411 19.0621 2.14702C19.04 2.1602 19.0174 2.17346 18.9947 2.18673C18.9748 2.19841 18.9547 2.21015 18.9344 2.22192C18.9108 2.23555 18.8871 2.24922 18.8629 2.26296C18.8426 2.2745 18.8219 2.28613 18.8012 2.29774C18.7557 2.32329 18.7091 2.34905 18.6616 2.37499C18.6417 2.38586 18.6222 2.39667 18.6019 2.40763C18.5742 2.42257 18.5457 2.43769 18.5173 2.45278C18.4966 2.46383 18.4759 2.47486 18.4548 2.48597C18.4256 2.5013 18.3961 2.51673 18.3663 2.53221C18.3453 2.54312 18.3239 2.55413 18.3025 2.56513C18.2716 2.58102 18.2407 2.5969 18.2091 2.61294C18.1915 2.62184 18.1734 2.63087 18.1556 2.63981C18.092 2.67184 18.0268 2.70422 17.9602 2.73694C17.9405 2.74663 17.921 2.75627 17.901 2.76601C17.8656 2.78325 17.8295 2.80066 17.7933 2.81811C17.7714 2.82867 17.7493 2.83928 17.7271 2.84993C17.69 2.86765 17.6527 2.88545 17.6147 2.90339C17.5945 2.91296 17.5738 2.92263 17.5533 2.93226C17.4605 2.97588 17.3656 3.02003 17.2675 3.06498V0.362095C17.2675 0.362095 17.2664 0.363746 17.2652 0.365543C17.2645 0.36658 17.2636 0.367968 17.2624 0.369619C17.2612 0.371386 17.2598 0.373563 17.2581 0.376032C17.2563 0.378618 17.2543 0.381496 17.252 0.384827C17.2502 0.387383 17.2481 0.390334 17.246 0.393329C17.2431 0.397536 17.24 0.401861 17.2364 0.406915C17.2344 0.409822 17.2319 0.413226 17.2296 0.416426C17.2252 0.42262 17.2207 0.428843 17.2155 0.43606C17.2147 0.437214 17.2137 0.438602 17.2128 0.43977C17.1927 0.467483 17.1667 0.502443 17.1351 0.543815C17.1338 0.545539 17.1326 0.547175 17.1312 0.548913C17.121 0.562237 17.1101 0.576305 17.0987 0.590914C17.097 0.593164 17.0952 0.595413 17.0934 0.597692C17.0814 0.613075 17.0688 0.629043 17.0555 0.64577C17.0549 0.646544 17.0543 0.647362 17.0536 0.648137C16.8744 0.873128 16.5788 1.21693 16.156 1.62738C16.0025 1.77641 15.8327 1.93398 15.6449 2.09823C15.6422 2.10061 15.6395 2.10297 15.6367 2.10537C15.5978 2.13937 15.5581 2.17359 15.5177 2.20811C15.5133 2.21187 15.5089 2.21561 15.5045 2.21936C15.333 2.36536 15.1483 2.5157 14.9497 2.66883C14.9496 2.66891 14.9496 2.66898 14.9495 2.66905V0C14.9495 0 13.906 1.80796 12.9958 2.93041C11.8827 4.30319 11.6048 5.64733 11.5358 6.19432C11.4937 6.45769 11.4853 6.62255 11.4843 6.64649C11.4841 6.64915 11.4841 6.65061 11.4841 6.65061C11.4841 6.65061 11.4841 6.64871 11.484 6.64576C11.484 6.64569 11.484 6.6457 11.484 6.64563C11.4834 6.62766 11.4807 6.55755 11.4697 6.44512L11.4841 6.45124C11.4841 6.45124 11.4492 4.80596 10.1139 3.0735C10.0773 3.02573 10.0398 2.978 10.0012 2.93041C9.09105 1.80796 8.04764 0 8.04764 0V2.66905C8.04755 2.66898 8.04747 2.66891 8.04736 2.66883C7.84876 2.5157 7.66407 2.36536 7.49264 2.21936C7.48824 2.21561 7.4838 2.21185 7.47942 2.20811C7.43898 2.17361 7.3993 2.13937 7.36038 2.10537C7.35765 2.10297 7.35495 2.10061 7.35223 2.09823C7.16445 1.93398 6.99462 1.77639 6.8411 1.62738C6.4183 1.21693 6.12269 0.873128 5.94348 0.648137C5.94287 0.647362 5.94223 0.646544 5.9416 0.64577C5.92829 0.629043 5.91568 0.613075 5.90368 0.597692C5.90189 0.595413 5.90014 0.593149 5.89837 0.590914C5.88699 0.576305 5.87606 0.562222 5.86587 0.548913C5.86452 0.54716 5.8633 0.545539 5.86198 0.543815C5.83035 0.502443 5.80439 0.467483 5.78429 0.43977C5.78344 0.438602 5.78242 0.437214 5.78159 0.43606C5.77636 0.428843 5.77189 0.422634 5.76748 0.416426C5.76518 0.413226 5.76276 0.409822 5.76068 0.406915C5.7571 0.401861 5.75404 0.397536 5.7511 0.393329C5.74901 0.390349 5.74694 0.387383 5.74515 0.384827C5.74285 0.38151 5.74083 0.378618 5.73906 0.376032C5.73737 0.373578 5.73588 0.371401 5.73468 0.369619C5.73355 0.367968 5.7326 0.366595 5.73189 0.365543C5.73069 0.363746 5.72958 0.362095 5.72958 0.362095V3.083C5.72952 3.08297 5.72946 3.08294 5.72941 3.08292C5.71478 3.07625 5.70073 3.0697 5.68622 3.06305C5.63405 3.03914 5.5825 3.01539 5.53185 2.99185C5.50739 2.9805 5.48339 2.96925 5.45929 2.95797C5.41812 2.93872 5.37739 2.91958 5.33723 2.90057C5.31348 2.88934 5.28974 2.87811 5.26633 2.86694C5.22299 2.8463 5.18042 2.82582 5.13824 2.80546C5.12036 2.79682 5.10207 2.78807 5.0844 2.77948C5.02695 2.75156 4.97064 2.72391 4.91536 2.6965C4.8979 2.68784 4.88098 2.67931 4.86373 2.67069C4.82443 2.65108 4.78554 2.63154 4.74735 2.61217C4.72673 2.60171 4.70636 2.59131 4.68606 2.5809C4.65085 2.56289 4.61617 2.54498 4.58189 2.52717C4.56305 2.51737 4.54404 2.50752 4.52546 2.49778C4.4812 2.47457 4.43772 2.45151 4.39505 2.42862C4.38631 2.42395 4.3774 2.41921 4.36874 2.41455C4.32228 2.38951 4.27692 2.36471 4.2323 2.34005C4.2158 2.33093 4.19971 2.32187 4.18345 2.3128C4.15236 2.29543 4.12164 2.27815 4.09146 2.26095C4.07456 2.25133 4.05774 2.24171 4.04112 2.23215C4.01018 2.21432 3.97983 2.1966 3.94984 2.17894C3.93633 2.17099 3.92254 2.16297 3.90921 2.15507C3.86759 2.13032 3.82682 2.10572 3.78706 2.08128C3.7767 2.07493 3.76679 2.06863 3.75657 2.06229C3.72641 2.0436 3.69667 2.02498 3.66757 2.00645C3.65354 1.99751 3.63977 1.98862 3.62598 1.97973C3.60056 1.96333 3.57555 1.947 3.55095 1.93071C3.53784 1.92203 3.52467 1.91335 3.51178 1.9047C3.48253 1.8851 3.45396 1.86557 3.42587 1.84611C3.41913 1.84145 3.4121 1.83673 3.40543 1.83207C3.37142 1.80831 3.3384 1.78471 3.30606 1.76114C3.29574 1.75363 3.28578 1.74615 3.27564 1.73866C3.25307 1.722 3.23084 1.70537 3.2091 1.6888C3.198 1.68033 3.18698 1.67188 3.17608 1.66342C3.15473 1.64687 3.13382 1.63036 3.11325 1.61388C3.10405 1.60652 3.09467 1.59913 3.08563 1.59177C3.05704 1.56851 3.02906 1.5453 3.00199 1.52216C2.99772 1.5185 2.99371 1.51488 2.98947 1.51123C2.96646 1.49139 2.94396 1.47159 2.92205 1.45181C2.91343 1.44404 2.90505 1.43628 2.89659 1.42853C2.87903 1.4124 2.86179 1.39629 2.84493 1.38019C2.83665 1.37227 2.82835 1.36435 2.82021 1.35646C2.8016 1.33835 2.78347 1.32023 2.76572 1.30213C2.76058 1.2969 2.75523 1.29167 2.75016 1.28643C2.7278 1.26333 2.70616 1.24023 2.68512 1.21714C2.67957 1.21103 2.67428 1.20491 2.66882 1.19882C2.65323 1.1814 2.63795 1.16399 2.62308 1.14656C2.61645 1.13878 2.60992 1.13097 2.60343 1.12319C2.5896 1.10658 2.5761 1.08998 2.56289 1.07336C2.55722 1.06621 2.55144 1.05907 2.54589 1.05191C2.52773 1.02855 2.50999 1.00518 2.49303 0.98173L2.55851 2.85013C2.55703 2.8494 2.55562 2.84867 2.55414 2.84794C2.49594 2.81903 2.43885 2.79039 2.38281 2.76207C2.35762 2.74933 2.33337 2.73685 2.30864 2.72425C2.27485 2.70702 2.241 2.68977 2.20806 2.67279C2.18198 2.65935 2.15663 2.64613 2.13111 2.63285C2.1007 2.61702 2.07038 2.60122 2.04076 2.58565C2.01561 2.57244 1.99097 2.55937 1.9664 2.54632C1.93744 2.53096 1.90884 2.5157 1.8807 2.5006C1.85702 2.48789 1.83351 2.47524 1.81042 2.46272C1.78275 2.44773 1.75571 2.43296 1.7289 2.41826C1.70683 2.40617 1.68465 2.39403 1.66316 2.38213C1.63551 2.36682 1.60879 2.35185 1.58211 2.33689C1.56319 2.32629 1.54384 2.31552 1.52543 2.30509C1.49127 2.28576 1.45843 2.2669 1.42604 2.24823C1.41499 2.24185 1.40346 2.2353 1.39262 2.22901C1.35332 2.20619 1.31547 2.18394 1.27898 2.16223C1.26479 2.15378 1.25161 2.14575 1.23785 2.13748C1.2141 2.12321 1.19045 2.10896 1.16801 2.09522C1.15362 2.08641 1.14003 2.07793 1.1262 2.06934C1.10589 2.05674 1.08585 2.04426 1.06672 2.03215C1.05336 2.02369 1.04047 2.01545 1.0277 2.00724C1.00959 1.9956 0.992044 1.9842 0.975127 1.97309C0.963265 1.96529 0.951534 1.95754 0.940256 1.94999C0.923777 1.93896 0.908175 1.92831 0.892996 1.91785C0.883208 1.9111 0.873186 1.90428 0.863939 1.89776C0.84803 1.88659 0.833465 1.876 0.819192 1.86557C0.812311 1.86053 0.804802 1.85521 0.798302 1.85036C0.778317 1.83541 0.759821 1.82114 0.743533 1.8079V4.64639L0.679707 4.63394C0.329956 4.55878 0 4.82536 0 5.18311V22.6097C0 22.6351 0.00220625 22.66 0.00552246 22.6846V22.9989C0.00552246 23.2637 0.190354 23.4925 0.449179 23.5481L10.0013 25.3986C10.0013 25.3986 11.4009 25.9672 12.9463 25.3986V25.3811L22.4983 23.5306C22.5469 23.5202 22.5928 23.5037 22.6354 23.482C22.678 23.4603 22.7173 23.4334 22.7525 23.4022C22.8698 23.2984 22.942 23.1469 22.942 22.9815V5.18315C22.942 4.82541 22.6121 4.55883 22.2623 4.634Z" fill="#E4F0F9"/>
<path d="M11.4831 6.64563C11.4826 6.62766 11.4799 6.55755 11.4689 6.44512C11.4155 5.90174 11.1653 4.36701 10.0004 2.93041C9.09021 1.80796 8.0468 0 8.0468 0V2.66905C8.04671 2.66898 8.04662 2.66891 8.04652 2.66883C7.84787 2.51567 7.66326 2.36541 7.49179 2.21936C7.48739 2.21561 7.48295 2.21185 7.47857 2.20811C7.43813 2.17361 7.39846 2.13936 7.35954 2.10537C7.35681 2.10297 7.3541 2.10061 7.35139 2.09823C6.64617 1.4814 6.18662 0.95466 5.94264 0.648137C5.94203 0.647362 5.94138 0.646544 5.94075 0.64577C5.92745 0.629043 5.91484 0.613075 5.90283 0.597692C5.90105 0.595413 5.89929 0.593149 5.89753 0.590914C5.88615 0.576305 5.87522 0.562222 5.86502 0.548913C5.86368 0.54716 5.86245 0.545539 5.86114 0.543815C5.82951 0.502443 5.80355 0.467484 5.78345 0.439771C5.7826 0.438602 5.78158 0.437214 5.78074 0.43606C5.77551 0.428843 5.77104 0.422634 5.76663 0.416426C5.76434 0.413226 5.76191 0.409822 5.75984 0.406915C5.75626 0.401861 5.75319 0.397536 5.75026 0.393329C5.74817 0.390349 5.74609 0.387383 5.74431 0.384827C5.742 0.38151 5.73999 0.378618 5.73822 0.376032C5.73652 0.373578 5.73503 0.371401 5.73383 0.369619C5.73271 0.367968 5.73176 0.366595 5.73104 0.365543C5.72985 0.363746 5.72874 0.362095 5.72874 0.362095V3.08299C5.72868 3.08297 5.72862 3.08294 5.72856 3.08292C5.71394 3.07625 5.69988 3.0697 5.68538 3.06305C5.63321 3.03914 5.58165 3.01539 5.53101 2.99185C5.50655 2.9805 5.48255 2.96925 5.45844 2.95797C5.41728 2.93872 5.37655 2.91958 5.33639 2.90057C5.31263 2.88934 5.28889 2.87811 5.26549 2.86694C5.22215 2.8463 5.17957 2.82582 5.1374 2.80546C5.11952 2.79682 5.10123 2.78807 5.08355 2.77948C5.02611 2.75156 4.96979 2.72391 4.91451 2.6965C4.89705 2.68784 4.88014 2.67931 4.86288 2.67069C4.82359 2.65108 4.7847 2.63154 4.74651 2.61217C4.72588 2.60171 4.70552 2.5913 4.68521 2.5809C4.65 2.56289 4.61532 2.54498 4.58105 2.52717C4.5622 2.51737 4.5432 2.50752 4.52462 2.49778C4.48035 2.47457 4.43688 2.45151 4.3942 2.42862C4.38547 2.42395 4.37655 2.41921 4.36789 2.41455C4.32144 2.38951 4.27608 2.36471 4.23146 2.34005C4.21495 2.33093 4.19887 2.32187 4.18261 2.3128C4.15152 2.29543 4.1208 2.27815 4.09062 2.26095C4.07371 2.25133 4.0569 2.24171 4.04027 2.23215C4.00933 2.21432 3.97899 2.1966 3.949 2.17894C3.93548 2.17099 3.92169 2.16297 3.90837 2.15507C3.86675 2.13032 3.82598 2.10572 3.78621 2.08128C3.77585 2.07493 3.76595 2.06863 3.75572 2.06229C3.72557 2.0436 3.69583 2.02498 3.66673 2.00645C3.6527 1.99751 3.63892 1.98862 3.62513 1.97973C3.59971 1.96333 3.5747 1.947 3.5501 1.93071C3.537 1.92203 3.52382 1.91335 3.51094 1.9047C3.48169 1.8851 3.45311 1.86557 3.42502 1.84611C3.41829 1.84145 3.41126 1.83673 3.40458 1.83207C3.37057 1.80831 3.33756 1.78471 3.30521 1.76114C3.2949 1.75363 3.28494 1.74615 3.2748 1.73866C3.25223 1.722 3.22999 1.70536 3.20826 1.6888C3.19715 1.68033 3.18614 1.67188 3.17524 1.66342C3.15388 1.64687 3.13298 1.63036 3.11241 1.61388C3.1032 1.60652 3.09382 1.59913 3.08478 1.59177C3.05619 1.56851 3.02822 1.5453 3.00115 1.52216C2.99688 1.5185 2.99286 1.51488 2.98863 1.51123C2.96562 1.49139 2.94312 1.47159 2.92121 1.45181C2.91259 1.44404 2.9042 1.43628 2.89574 1.42853C2.87818 1.4124 2.86094 1.39629 2.84409 1.38019C2.8358 1.37227 2.8275 1.36435 2.81937 1.35646C2.80076 1.33835 2.78263 1.32023 2.76488 1.30213C2.75973 1.2969 2.75439 1.29166 2.74932 1.28643C2.72695 1.26333 2.70532 1.24023 2.68428 1.21714C2.67873 1.21103 2.67344 1.20491 2.66798 1.19882C2.65239 1.1814 2.63711 1.16399 2.62224 1.14656C2.6156 1.13877 2.60907 1.13097 2.60259 1.12319C2.58875 1.10658 2.57525 1.08998 2.56205 1.07336C2.55638 1.06621 2.55059 1.05907 2.54504 1.05191C2.52688 1.02855 2.50915 1.00518 2.49219 0.98173L2.55766 2.85013C3.74434 3.43929 5.37351 4.14025 7.13053 4.68239C10.249 5.64461 11.4729 6.65057 11.4729 6.65057C11.4729 6.65057 11.4729 6.64963 11.4729 6.64817L11.4833 6.65057C11.4833 6.65057 11.4833 6.64867 11.4832 6.64571C11.4832 6.64569 11.4831 6.6457 11.4831 6.64563Z" fill="#C3D1DD"/>
<path d="M20.4124 1.05175C20.4069 1.05892 20.4011 1.06608 20.3954 1.07325C20.3822 1.08982 20.3688 1.10639 20.355 1.12292C20.3485 1.13071 20.342 1.13853 20.3353 1.1463C20.3204 1.16387 20.305 1.18142 20.2893 1.19896C20.2839 1.20489 20.2789 1.21081 20.2735 1.21673C20.2527 1.23955 20.2313 1.26234 20.2092 1.28514C20.203 1.29166 20.1963 1.29817 20.1899 1.30467C20.1735 1.32139 20.1568 1.3381 20.1396 1.35481C20.1309 1.36336 20.1219 1.3719 20.113 1.38046C20.0969 1.3958 20.0805 1.41114 20.0638 1.42651C20.0547 1.43485 20.0457 1.44319 20.0365 1.45155C20.014 1.47186 19.9909 1.49218 19.9672 1.51256C19.9594 1.51935 19.9513 1.52616 19.9433 1.53295C19.9215 1.55143 19.8993 1.56996 19.8765 1.58852C19.865 1.59793 19.8531 1.60737 19.8413 1.61681C19.8237 1.63089 19.8058 1.645 19.7876 1.65913C19.7746 1.66921 19.7616 1.6793 19.7483 1.68943C19.7292 1.70398 19.7096 1.71859 19.6899 1.73319C19.6775 1.74238 19.6654 1.75154 19.6527 1.76075C19.6225 1.78275 19.5915 1.80484 19.5599 1.82701C19.5452 1.83728 19.5299 1.84764 19.515 1.85795C19.4953 1.87147 19.4756 1.885 19.4554 1.89857C19.4382 1.91014 19.4208 1.92175 19.4032 1.93337C19.384 1.946 19.3645 1.9587 19.3449 1.97141C19.3267 1.9832 19.3086 1.99499 19.29 2.00683C19.2673 2.02128 19.2439 2.03585 19.2206 2.0504C19.1897 2.06964 19.1582 2.08899 19.1262 2.10842C19.105 2.12126 19.084 2.13408 19.0623 2.14699C19.0402 2.16017 19.0176 2.17343 18.995 2.1867C18.9751 2.19838 18.955 2.21012 18.9346 2.22189C18.9111 2.23552 18.8873 2.24919 18.8632 2.26293C18.8429 2.27447 18.8221 2.2861 18.8014 2.29771C18.7559 2.32326 18.7094 2.34902 18.6619 2.37496C18.642 2.38583 18.6224 2.39664 18.6021 2.4076C18.5745 2.42254 18.5459 2.43766 18.5176 2.45275C18.4968 2.4638 18.4761 2.47483 18.455 2.48595C18.4259 2.50127 18.3964 2.5167 18.3666 2.53218C18.3455 2.5431 18.3242 2.5541 18.3028 2.5651C18.2719 2.58099 18.241 2.59687 18.2093 2.61291C18.1918 2.62181 18.1737 2.63084 18.1559 2.63978C18.0923 2.67181 18.0271 2.70419 17.9605 2.73691C17.9407 2.7466 17.9212 2.75624 17.9012 2.76598C17.8659 2.78322 17.8298 2.80063 17.7936 2.81808C17.7716 2.82864 17.7496 2.83925 17.7273 2.8499C17.6903 2.86762 17.6529 2.88542 17.615 2.90336C17.5948 2.91293 17.5741 2.9226 17.5536 2.93223C17.4608 2.97585 17.3659 3.02 17.2678 3.06495V0.362095C17.2678 0.362095 17.2667 0.363746 17.2655 0.365543C17.2648 0.36658 17.2638 0.367968 17.2627 0.369619C17.2615 0.371386 17.26 0.373563 17.2583 0.376032C17.2566 0.378618 17.2545 0.381496 17.2522 0.384826C17.2504 0.387383 17.2484 0.390334 17.2463 0.393329C17.2433 0.397536 17.2403 0.401861 17.2367 0.406915C17.2346 0.409822 17.2322 0.413226 17.2299 0.416426C17.2255 0.42262 17.221 0.428843 17.2158 0.43606C17.2149 0.437214 17.2139 0.438602 17.2131 0.43977C17.193 0.467483 17.167 0.502443 17.1354 0.543815C17.1341 0.545539 17.1328 0.547175 17.1315 0.548913C17.1213 0.562237 17.1104 0.576305 17.099 0.590914C17.0972 0.593164 17.0955 0.595413 17.0937 0.597692C17.0817 0.613075 17.0691 0.629043 17.0558 0.64577C17.0552 0.646544 17.0545 0.647362 17.0539 0.648137C16.8099 0.95466 16.3504 1.4814 15.6451 2.09823C15.6424 2.10061 15.6397 2.10297 15.637 2.10537C15.598 2.13937 15.5584 2.17359 15.5179 2.20811C15.5136 2.21187 15.5091 2.21561 15.5047 2.21936C15.3333 2.36539 15.1486 2.51566 14.95 2.66883C14.9499 2.66891 14.9498 2.66898 14.9497 2.66905V0C14.9497 0 13.9063 1.80796 12.9961 2.93041C11.978 4.18589 11.6445 5.51597 11.5361 6.19432C11.4939 6.45768 11.4855 6.62255 11.4845 6.64649C11.4844 6.64915 11.4844 6.65061 11.4844 6.65061C11.4844 6.65061 12.7083 5.64464 15.8268 4.68243C17.5838 4.1403 19.213 3.43933 20.3996 2.85017L20.4651 0.981774C20.4482 1.00513 20.4305 1.02846 20.4124 1.05175Z" fill="#C3D1DD"/>
<path d="M11.4849 6.64563C11.4843 6.62766 11.4816 6.55755 11.4706 6.44512C11.4172 5.90175 11.1671 4.36701 10.0021 2.93041C9.09194 1.80796 8.04853 0 8.04853 0V2.66905C8.04844 2.66898 8.04836 2.66891 8.04825 2.66883C7.8496 2.51567 7.66499 2.36541 7.49353 2.21936C7.48913 2.21561 7.48469 2.21185 7.4803 2.20811C7.43987 2.17361 7.40019 2.13937 7.36127 2.10537C7.35854 2.10297 7.35584 2.10061 7.35312 2.09823C6.64791 1.4814 6.18835 0.95466 5.94437 0.648137C5.94376 0.647363 5.94312 0.646544 5.94249 0.64577C5.92918 0.629043 5.91657 0.613075 5.90456 0.597692C5.90278 0.595413 5.90103 0.593149 5.89926 0.590914C5.88788 0.576305 5.87695 0.562222 5.86676 0.548913C5.86541 0.54716 5.86418 0.545539 5.86287 0.543815C5.83124 0.502443 5.80528 0.467484 5.78518 0.439771C5.78433 0.438602 5.78331 0.437214 5.78248 0.43606C5.77725 0.428843 5.77278 0.422634 5.76836 0.416426C5.76607 0.413226 5.76365 0.409822 5.76157 0.406915C5.75799 0.401861 5.75492 0.397536 5.75199 0.393329C5.7499 0.390349 5.74782 0.387383 5.74604 0.384827C5.74373 0.38151 5.74172 0.378618 5.73995 0.376032C5.73826 0.373578 5.73677 0.371401 5.73557 0.369619C5.73444 0.367968 5.73349 0.366595 5.73278 0.365543C5.73158 0.363746 5.73047 0.362095 5.73047 0.362095V3.08299C6.2487 3.31972 6.84068 3.57537 7.51766 3.85621C11.3747 5.4562 11.4721 6.59184 11.4746 6.6482L11.485 6.6506C11.485 6.6506 11.485 6.6487 11.4849 6.64574C11.4849 6.64569 11.4849 6.6457 11.4849 6.64563Z" fill="#97AEBF"/>
<path d="M17.2653 0.365543C17.2646 0.36658 17.2637 0.367968 17.2625 0.369619C17.2613 0.371386 17.2599 0.373563 17.2582 0.376032C17.2564 0.378618 17.2544 0.381496 17.2521 0.384827C17.2503 0.387383 17.2482 0.390334 17.2461 0.393329C17.2432 0.397536 17.2401 0.401861 17.2365 0.406915C17.2345 0.409823 17.232 0.413226 17.2297 0.416426C17.2253 0.42262 17.2209 0.428843 17.2156 0.43606C17.2148 0.437214 17.2138 0.438602 17.2129 0.439771C17.1928 0.467484 17.1668 0.502443 17.1352 0.543815C17.1339 0.545539 17.1327 0.547175 17.1313 0.548914C17.1211 0.562237 17.1102 0.576305 17.0988 0.590914C17.0971 0.593164 17.0953 0.595413 17.0935 0.597692C17.0815 0.613075 17.0689 0.629043 17.0556 0.64577C17.055 0.646544 17.0544 0.647363 17.0537 0.648137C16.8097 0.95466 16.3502 1.4814 15.645 2.09823C15.6422 2.10061 15.6395 2.10298 15.6368 2.10537C15.5979 2.13937 15.5582 2.17359 15.5178 2.20812C15.5134 2.21187 15.509 2.21561 15.5046 2.21936C15.3331 2.36539 15.1485 2.51566 14.9498 2.66883C14.9497 2.66891 14.9496 2.66898 14.9495 2.66905V0C14.9495 0 13.9061 1.80796 12.9959 2.93041C11.9779 4.18589 11.6443 5.51597 11.5359 6.19432C11.4938 6.45769 11.4854 6.62255 11.4844 6.64649C11.4853 6.63131 11.4914 6.57307 11.532 6.47681C11.6921 6.0964 12.391 5.12153 15.4412 3.85623C16.1355 3.5682 16.74 3.30676 17.2676 3.06497V0.362095C17.2676 0.362095 17.2665 0.363761 17.2653 0.365543Z" fill="#97AEBF"/>
<path d="M22.2623 4.63776L12.9462 6.45498C12.4598 6.6565 11.9451 6.71357 11.4841 6.7042C11.4818 6.70415 11.4795 6.70409 11.4772 6.70405C10.652 6.68604 10.0013 6.455 10.0013 6.455V6.45799L0.679707 4.63776C0.329956 4.5626 0 4.82918 0 5.18692V22.6135C0 22.6389 0.0022058 22.6638 0.00552201 22.6884V23.0028C0.00552201 23.2675 0.190354 23.4963 0.449179 23.5519L10.0013 25.4024C10.0013 25.4024 11.4009 25.971 12.9463 25.4024V25.385L22.4983 23.5344C22.5469 23.524 22.5928 23.5075 22.6354 23.4858C22.678 23.4641 22.7173 23.4372 22.7525 23.406C22.8698 23.3022 22.942 23.1507 22.942 22.9853V5.18691C22.942 4.82916 22.612 4.56258 22.2623 4.63776Z" fill="#4C78A1"/>
<path d="M21.3149 14.7873C19.5021 15.7633 17.5583 16.5497 15.5345 16.9521C13.5093 17.3549 11.4235 17.4236 9.37136 17.213C7.3044 17.0008 5.28285 16.5142 3.33611 15.7908C2.1811 15.3617 1.01908 14.8427 0 14.1329V22.6081C0 22.6335 0.0022058 22.6585 0.00552201 22.6831V22.9974C0.00552201 23.2621 0.190354 23.4909 0.449179 23.5465L10.0013 25.397C10.0013 25.397 11.4009 25.9656 12.9462 25.397V25.3796L22.4983 23.5291C22.5469 23.5186 22.5928 23.5021 22.6354 23.4804C22.678 23.4587 22.7172 23.4318 22.7524 23.4007C22.8698 23.2968 22.942 23.1453 22.942 22.9799V13.8281C22.4118 14.1672 21.8701 14.4883 21.3149 14.7873Z" fill="#45759A"/>
<path d="M10 6.82031V25.3959C10 25.3959 11.3996 25.9645 12.945 25.3959V6.82031C11.5843 7.38404 10 6.82031 10 6.82031Z" fill="#3B6B8E"/>
<path d="M22.2623 4.63776L12.9462 6.45498C12.4598 6.6565 11.9451 6.71357 11.4841 6.7042C11.4818 6.70415 11.4795 6.70409 11.4772 6.70405C10.652 6.68604 10.0013 6.455 10.0013 6.455V6.45799L0.679707 4.63776C0.329956 4.5626 0 4.82918 0 5.18692V5.65788H0.00552201V5.57617C0.00552201 5.21843 0.335478 4.95185 0.685229 5.02701L10.0013 6.82678C10.0013 6.82678 11.5855 7.39051 12.9463 6.82678V6.83109L22.2623 5.00954C22.612 4.93438 22.942 5.20096 22.942 5.5587V5.18691C22.942 4.82916 22.612 4.56258 22.2623 4.63776Z" fill="#69A2CC"/>
<path d="M1.48438 8.95312V12.5396L8.51151 13.8547V10.2682L1.48438 8.95312Z" fill="#69A2CC"/>
<path d="M11.4491 9.62502C10.9987 9.62504 10.6243 9.56276 10.3643 9.50102C10.2344 9.47017 10.1331 9.43946 10.0653 9.41692C10.0371 9.40753 10.0162 9.40003 10 9.39404V9.82978C10.2621 9.91115 10.7774 10.0379 11.4491 10.0381C11.8902 10.0381 12.3991 9.98199 12.945 9.82245V9.39062C12.3967 9.56535 11.887 9.62499 11.4491 9.62502Z" fill="#F7A83D"/>
<path d="M11.4491 10.3985C10.9987 10.3985 10.6243 10.3362 10.3643 10.2745C10.2344 10.2436 10.1331 10.2129 10.0653 10.1904C10.0371 10.181 10.0162 10.1735 10 10.1675V10.6032C10.2621 10.6846 10.7774 10.8113 11.4491 10.8116C11.8902 10.8116 12.3991 10.7554 12.945 10.5959V10.1641C12.3967 10.3388 11.887 10.3984 11.4491 10.3985Z" fill="#F7A83D"/>
<path d="M11.4491 21.6485C10.9987 21.6485 10.6243 21.5862 10.3643 21.5245C10.2344 21.4936 10.1331 21.4629 10.0653 21.4404C10.0371 21.431 10.0162 21.4235 10 21.4175V21.8532C10.2621 21.9346 10.7774 22.0613 11.4491 22.0615C11.8902 22.0616 12.3991 22.0054 12.945 21.8459V21.4141C12.3967 21.5888 11.887 21.6484 11.4491 21.6485Z" fill="#F7A83D"/>
<path d="M11.4491 22.4141C10.9987 22.4141 10.6243 22.3518 10.3643 22.2901C10.2344 22.2592 10.1331 22.2285 10.0653 22.206C10.0371 22.1966 10.0162 22.1891 10 22.1831V22.6188C10.2621 22.7002 10.7774 22.8269 11.4491 22.8272C11.8902 22.8272 12.3991 22.7711 12.945 22.6115V22.1797C12.3967 22.3544 11.887 22.4141 11.4491 22.4141Z" fill="#F7A83D"/>
<path d="M11.4491 19.9532C10.9987 19.9532 10.6243 19.8909 10.3643 19.8292C10.2344 19.7983 10.1331 19.7676 10.0653 19.7451C10.0371 19.7357 10.0162 19.7282 10 19.7222V20.1579C10.2621 20.2393 10.7774 20.366 11.4491 20.3662C11.8902 20.3662 12.3991 20.3101 12.945 20.1506V19.7188C12.3967 19.8935 11.887 19.9531 11.4491 19.9532Z" fill="#F7A83D"/>
<path d="M11.4491 20.7266C10.9987 20.7266 10.6243 20.6643 10.3643 20.6026C10.2344 20.5717 10.1331 20.541 10.0653 20.5185C10.0371 20.5091 10.0162 20.5016 10 20.4956V20.9313C10.2621 21.0127 10.7774 21.1394 11.4491 21.1397C11.8902 21.1397 12.3991 21.0836 12.945 20.924V20.4922C12.3967 20.6669 11.887 20.7266 11.4491 20.7266Z" fill="#F7A83D"/>
<path d="M11.4834 6.65061C11.4834 6.65061 11.4818 6.57646 11.4689 6.44512C11.4156 5.90175 11.1654 4.36701 10.0005 2.93041C9.09028 1.80796 8.04688 0 8.04688 0V2.66905C8.36184 2.91188 8.71079 3.16146 9.09656 3.41152C11.4584 4.94234 11.4834 6.65061 11.4834 6.65061Z" fill="#819CAD"/>
<path d="M13.8998 3.41152C14.2856 3.16147 14.6346 2.91188 14.9495 2.66905V0C14.9495 0 13.9061 1.80796 12.9959 2.93041C11.9779 4.18589 11.6443 5.51597 11.5359 6.19432C11.4938 6.45769 11.4854 6.62255 11.4844 6.64649C11.4853 6.63131 11.4914 6.57307 11.532 6.47681C11.6078 6.00489 11.9886 4.65028 13.8998 3.41152Z" fill="#819CAD"/>
</svg>
