<svg width="32" height="32" viewBox="0 0 32 32" fill="none" xmlns="http://www.w3.org/2000/svg">
<path d="M22.3058 12.8383L22.2191 15.0116L14.7391 7.52494C14.4475 7.21642 14.0524 7.02614 13.6293 6.99048C13.2063 6.95482 12.7849 7.07626 12.4458 7.33161C12.2647 7.47819 12.1165 7.66125 12.0108 7.86887C11.9052 8.0765 11.8444 8.30404 11.8324 8.5367C11.8205 8.76936 11.8576 9.00193 11.9415 9.21929C12.0253 9.43664 12.154 9.63392 12.3191 9.79828L11.2591 8.73828C10.9355 8.40141 10.4964 8.19967 10.03 8.1737C9.56363 8.14772 9.10474 8.29943 8.74577 8.59828C8.56652 8.75999 8.42203 8.95647 8.3211 9.17578C8.22017 9.39508 8.16491 9.63263 8.15867 9.87397C8.15243 10.1153 8.19536 10.3554 8.28483 10.5796C8.37429 10.8038 8.50844 11.0075 8.67911 11.1783L8.66577 11.1449C8.41041 10.8844 8.07746 10.7137 7.71686 10.6584C7.35627 10.6031 6.98746 10.6662 6.66577 10.8383C6.44295 10.9652 6.25243 11.1419 6.10905 11.3545C5.96567 11.5672 5.87329 11.81 5.8391 12.0642C5.80491 12.3183 5.82983 12.577 5.91193 12.8199C5.99403 13.0629 6.13109 13.2836 6.31244 13.4649L8.31244 15.4649C8.16831 15.321 7.99566 15.2089 7.8056 15.1357C7.61553 15.0624 7.41225 15.0298 7.20881 15.0399C7.00538 15.0499 6.8063 15.1024 6.62437 15.194C6.44244 15.2856 6.28169 15.4142 6.15244 15.5716C5.93165 15.8675 5.82613 16.2337 5.85557 16.6018C5.88501 16.9698 6.04741 17.3145 6.31244 17.5716L14.6658 25.9983C15.2508 26.5861 15.9468 27.0517 16.7133 27.3683C17.4798 27.6848 18.3015 27.8459 19.1308 27.8422C19.9601 27.8385 20.7804 27.67 21.544 27.3466C22.3076 27.0232 22.9994 26.5513 23.5791 25.9583C24.4936 25.0038 25.2023 23.8716 25.661 22.6319C26.1197 21.3922 26.3188 20.0715 26.2458 18.7516L25.9991 10.6649C25.9856 10.4834 25.9039 10.3137 25.7703 10.19C25.6367 10.0663 25.4612 9.99778 25.2791 9.99828C24.5126 9.99586 23.7749 10.2902 23.2206 10.8196C22.6664 11.3491 22.3385 12.0725 22.3058 12.8383Z" fill="#FFE500"/>
<path d="M22.2201 15.0116L14.7401 7.52494C14.4485 7.21642 14.0534 7.02614 13.6304 6.99048C13.2073 6.95482 12.786 7.07626 12.4468 7.33161C12.2782 7.46858 12.1382 7.63742 12.0349 7.8285C11.9316 8.01958 11.867 8.22914 11.8447 8.44521C11.8224 8.66129 11.8429 8.87963 11.905 9.08778C11.9672 9.29592 12.0697 9.48978 12.2068 9.65828C12.2745 9.56495 12.3553 9.48187 12.4468 9.41161C12.7844 9.1546 13.2048 9.03089 13.6278 9.06409C14.0508 9.09729 14.4467 9.28508 14.7401 9.59161L21.1801 16.0383L22.2201 15.0116ZM26.0601 12.7449L26.0001 10.6649C25.9866 10.4834 25.9049 10.3137 25.7713 10.19C25.6377 10.0663 25.4622 9.99778 25.2801 9.99828C24.5114 9.99778 23.7726 10.2957 23.2192 10.8291C22.6658 11.3626 22.3411 12.0901 22.3134 12.8583L22.2268 15.0316L22.3134 14.9383C22.3427 14.1707 22.668 13.4442 23.221 12.911C23.774 12.3779 24.5119 12.0794 25.2801 12.0783C25.4688 12.0763 25.6517 12.1427 25.7952 12.2653C25.9386 12.3879 26.0327 12.5583 26.0601 12.7449Z" fill="#FFF48C"/>
<path d="M8.22577 15.4516L12.2658 19.4849M8.67911 11.1849L14.6191 17.1249M12.3191 9.81161L17.1258 14.6249M22.3058 12.8383L22.2191 15.0116L14.7391 7.52494C14.4475 7.21642 14.0524 7.02614 13.6293 6.99048C13.2063 6.95482 12.7849 7.07626 12.4458 7.33161C12.2647 7.47819 12.1165 7.66125 12.0108 7.86887C11.9052 8.0765 11.8444 8.30404 11.8324 8.5367C11.8205 8.76936 11.8576 9.00193 11.9415 9.21929C12.0253 9.43664 12.154 9.63392 12.3191 9.79828L11.2591 8.73828C10.9355 8.40141 10.4964 8.19967 10.03 8.1737C9.56363 8.14772 9.10474 8.29943 8.74577 8.59828C8.56652 8.75999 8.42203 8.95647 8.3211 9.17578C8.22017 9.39508 8.16491 9.63263 8.15867 9.87397C8.15243 10.1153 8.19536 10.3554 8.28483 10.5796C8.37429 10.8038 8.50844 11.0075 8.67911 11.1783L8.66577 11.1449C8.41041 10.8844 8.07746 10.7137 7.71686 10.6584C7.35627 10.6031 6.98746 10.6662 6.66577 10.8383C6.44295 10.9652 6.25243 11.1419 6.10905 11.3545C5.96567 11.5672 5.87329 11.81 5.8391 12.0642C5.80491 12.3183 5.82983 12.577 5.91193 12.8199C5.99403 13.0629 6.13109 13.2836 6.31244 13.4649L8.31244 15.4649C8.16831 15.321 7.99566 15.2089 7.8056 15.1357C7.61553 15.0624 7.41225 15.0298 7.20881 15.0399C7.00538 15.0499 6.8063 15.1024 6.62437 15.194C6.44244 15.2856 6.28169 15.4142 6.15244 15.5716C5.93165 15.8675 5.82613 16.2337 5.85557 16.6018C5.88501 16.9698 6.04741 17.3145 6.31244 17.5716L14.6658 25.9983C15.2508 26.5861 15.9468 27.0517 16.7133 27.3683C17.4798 27.6848 18.3015 27.8459 19.1308 27.8422C19.9601 27.8385 20.7804 27.67 21.544 27.3466C22.3076 27.0232 22.9994 26.5513 23.5791 25.9583C24.4936 25.0038 25.2023 23.8716 25.661 22.6319C26.1197 21.3922 26.3188 20.0715 26.2458 18.7516L25.9991 10.6649C25.9856 10.4834 25.9039 10.3137 25.7703 10.19C25.6367 10.0663 25.4612 9.99778 25.2791 9.99828C24.5126 9.99586 23.7749 10.2902 23.2206 10.8196C22.6664 11.3491 22.3385 12.0725 22.3058 12.8383Z" stroke="#45413C" stroke-width="0.5" stroke-linecap="round" stroke-linejoin="round"/>
<path d="M22.2201 15.0158L19.8401 17.3958C19.4682 17.7673 19.1732 18.2085 18.9719 18.6941C18.7706 19.1797 18.667 19.7002 18.667 20.2258C18.667 20.7515 18.7706 21.272 18.9719 21.7576C19.1732 22.2432 19.4682 22.6843 19.8401 23.0558M16.0735 5.8425C17.1328 6.02341 18.1247 6.48368 18.9468 7.17583C19.7619 7.89889 20.381 8.81616 20.7468 9.8425M16.4535 4.0625C17.759 4.27253 18.984 4.82977 20.0001 5.67583C21.0078 6.56459 21.7719 7.69585 22.2201 8.9625M3.10013 16.1625C2.99457 17.2287 3.17642 18.3037 3.6268 19.2758C4.11524 20.2483 4.84236 21.0809 5.74013 21.6958M1.28013 16.0692C1.15303 17.388 1.38331 18.7167 1.9468 19.9158C2.55044 21.1167 3.44692 22.1462 4.55347 22.9092" stroke="#45413C" stroke-width="0.5" stroke-linecap="round" stroke-linejoin="round"/>
</svg>
