<svg width="18" height="18" viewBox="0 0 18 18" fill="none" xmlns="http://www.w3.org/2000/svg">
<path d="M16 9.5C16 13.6422 12.6422 17 8.5 17C4.35775 17 1 13.6422 1 9.5C1 5.35775 4.35775 2 8.5 2V3.5C7.0634 3.50016 5.67454 4.01577 4.58586 4.95311C3.49719 5.89045 2.78096 7.1873 2.56737 8.60793C2.35378 10.0286 2.657 11.4787 3.42192 12.6947C4.18684 13.9107 5.36268 14.8119 6.73572 15.2345C8.10876 15.6571 9.58785 15.573 10.9042 14.9976C12.2205 14.4221 13.2866 13.3934 13.9088 12.0986C14.531 10.8037 14.6679 9.32855 14.2947 7.94127C13.9215 6.554 13.0629 5.34667 11.875 4.53875V6.5H10.375V2H14.875V3.5H13C13.9319 4.1982 14.6882 5.10399 15.209 6.1455C15.7297 7.18701 16.0006 8.33556 16 9.5Z" fill="#C4C4C4"/>
</svg>
