<svg width="16" height="16" viewBox="0 0 16 16" fill="none" xmlns="http://www.w3.org/2000/svg">
<path d="M12.6666 7.33334H8.66663V3.33334C8.66663 3.15653 8.59639 2.98696 8.47136 2.86193C8.34634 2.73691 8.17677 2.66667 7.99996 2.66667C7.82315 2.66667 7.65358 2.73691 7.52855 2.86193C7.40353 2.98696 7.33329 3.15653 7.33329 3.33334V7.33334H3.33329C3.15648 7.33334 2.98691 7.40358 2.86189 7.5286C2.73686 7.65362 2.66663 7.82319 2.66663 8C2.66663 8.17682 2.73686 8.34639 2.86189 8.47141C2.98691 8.59643 3.15648 8.66667 3.33329 8.66667H7.33329V12.6667C7.33329 12.8435 7.40353 13.0131 7.52855 13.1381C7.65358 13.2631 7.82315 13.3333 7.99996 13.3333C8.17677 13.3333 8.34634 13.2631 8.47136 13.1381C8.59639 13.0131 8.66663 12.8435 8.66663 12.6667V8.66667H12.6666C12.8434 8.66667 13.013 8.59643 13.138 8.47141C13.2631 8.34639 13.3333 8.17682 13.3333 8C13.3333 7.82319 13.2631 7.65362 13.138 7.5286C13.013 7.40358 12.8434 7.33334 12.6666 7.33334Z" fill="black"/>
</svg>
