<svg width="20" height="20" viewBox="0 0 20 20" fill="none" xmlns="http://www.w3.org/2000/svg">
<path d="M16.6667 5.0013H13.3333V4.16797C13.3333 3.50493 13.0699 2.86904 12.6011 2.4002C12.1323 1.93136 11.4964 1.66797 10.8333 1.66797H9.16667C8.50363 1.66797 7.86774 1.93136 7.3989 2.4002C6.93006 2.86904 6.66667 3.50493 6.66667 4.16797V5.0013H3.33333C3.11232 5.0013 2.90036 5.0891 2.74408 5.24538C2.5878 5.40166 2.5 5.61362 2.5 5.83464C2.5 6.05565 2.5878 6.26761 2.74408 6.42389C2.90036 6.58017 3.11232 6.66797 3.33333 6.66797H4.16667V15.8346C4.16667 16.4977 4.43006 17.1336 4.8989 17.6024C5.36774 18.0712 6.00363 18.3346 6.66667 18.3346H13.3333C13.9964 18.3346 14.6323 18.0712 15.1011 17.6024C15.5699 17.1336 15.8333 16.4977 15.8333 15.8346V6.66797H16.6667C16.8877 6.66797 17.0996 6.58017 17.2559 6.42389C17.4122 6.26761 17.5 6.05565 17.5 5.83464C17.5 5.61362 17.4122 5.40166 17.2559 5.24538C17.0996 5.0891 16.8877 5.0013 16.6667 5.0013ZM8.33333 4.16797C8.33333 3.94696 8.42113 3.73499 8.57741 3.57871C8.73369 3.42243 8.94565 3.33464 9.16667 3.33464H10.8333C11.0543 3.33464 11.2663 3.42243 11.4226 3.57871C11.5789 3.73499 11.6667 3.94696 11.6667 4.16797V5.0013H8.33333V4.16797ZM14.1667 15.8346C14.1667 16.0556 14.0789 16.2676 13.9226 16.4239C13.7663 16.5802 13.5543 16.668 13.3333 16.668H6.66667C6.44565 16.668 6.23369 16.5802 6.07741 16.4239C5.92113 16.2676 5.83333 16.0556 5.83333 15.8346V6.66797H14.1667V15.8346Z" fill="#828282"/>
</svg>
